<?xml version="1.0" encoding="UTF-8" standalone="no"?>
<!DOCTYPE svg PUBLIC "-//W3C//DTD SVG 1.1//EN"
 "http://www.w3.org/Graphics/SVG/1.1/DTD/svg11.dtd">
<!-- Generated by graphviz version 2.40.1 (20161225.0304)
 -->
<!-- Title: conn_states Pages: 1 -->
<svg width="597pt" height="465pt"
 viewBox="0.00 0.00 596.60 465.00" xmlns="http://www.w3.org/2000/svg" xmlns:xlink="http://www.w3.org/1999/xlink">
<g id="graph0" class="graph" transform="scale(1 1) rotate(0) translate(4 461)">
<title>conn_states</title>
<polygon fill="#ffffff" stroke="transparent" points="-4,4 -4,-461 592.5952,-461 592.5952,4 -4,4"/>
<!-- StandAllone -->
<g id="node1" class="node">
<title>StandAllone</title>
<ellipse fill="none" stroke="#000000" cx="54.5952" cy="-439" rx="54.6905" ry="18"/>
<text text-anchor="middle" x="54.5952" y="-435.3" font-family="Times,serif" font-size="14.00" fill="#000000">StandAllone</text>
</g>
<!-- WFConnection -->
<g id="node2" class="node">
<title>WFConnection</title>
<ellipse fill="none" stroke="#000000" cx="266.5952" cy="-352" rx="64.9885" ry="18"/>
<text text-anchor="middle" x="266.5952" y="-348.3" font-family="Times,serif" font-size="14.00" fill="#000000">WFConnection</text>
</g>
<!-- StandAllone&#45;&gt;WFConnection -->
<g id="edge1" class="edge">
<title>StandAllone&#45;&gt;WFConnection</title>
<path fill="none" stroke="#000000" d="M89.1284,-424.8283C124.8223,-410.1804 180.7532,-387.2276 220.2708,-371.0105"/>
<polygon fill="#000000" stroke="#000000" points="222.0192,-374.0763 229.9417,-367.0417 219.3616,-367.6004 222.0192,-374.0763"/>
<text text-anchor="middle" x="213.0952" y="-391.8" font-family="Times,serif" font-size="14.00" fill="#000000">ioctl_set_net()</text>
</g>
<!-- Unconnected -->
<g id="node3" class="node">
<title>Unconnected</title>
<ellipse fill="none" stroke="#000000" cx="246.5952" cy="-265" rx="57.3905" ry="18"/>
<text text-anchor="middle" x="246.5952" y="-261.3" font-family="Times,serif" font-size="14.00" fill="#000000">Unconnected</text>
</g>
<!-- WFConnection&#45;&gt;Unconnected -->
<g id="edge2" class="edge">
<title>WFConnection&#45;&gt;Unconnected</title>
<path fill="none" stroke="#000000" d="M254.9942,-333.9883C252.0051,-328.4363 249.1848,-322.1585 247.5952,-316 245.7297,-308.773 244.9841,-300.7769 244.8233,-293.3013"/>
<polygon fill="#000000" stroke="#000000" points="248.3239,-293.2505 244.9295,-283.2142 241.3243,-293.1767 248.3239,-293.2505"/>
<text text-anchor="middle" x="291.5952" y="-304.8" font-family="Times,serif" font-size="14.00" fill="#000000">unable to bind()</text>
</g>
<!-- WFReportParams -->
<g id="node4" class="node">
<title>WFReportParams</title>
<ellipse fill="none" stroke="#000000" cx="90.5952" cy="-265" rx="74.9875" ry="18"/>
<text text-anchor="middle" x="90.5952" y="-261.3" font-family="Times,serif" font-size="14.00" fill="#000000">WFReportParams</text>
</g>
<!-- WFConnection&#45;&gt;WFReportParams -->
<g id="edge3" class="edge">
<title>WFConnection&#45;&gt;WFReportParams</title>
<path fill="none" stroke="#000000" d="M216.0271,-340.4568C206.5791,-338.3061 196.7872,-336.0813 187.5952,-334 152.0505,-325.9518 134.6264,-340.444 107.5952,-316 101.0989,-310.1255 97.0809,-301.7046 94.5973,-293.3936"/>
<polygon fill="#000000" stroke="#000000" points="97.964,-292.4207 92.2652,-283.489 91.1503,-294.025 97.964,-292.4207"/>
<text text-anchor="middle" x="174.0952" y="-304.8" font-family="Times,serif" font-size="14.00" fill="#000000">in connect() after accept</text>
</g>
<!-- WFReportParams&#45;&gt;StandAllone -->
<g id="edge4" class="edge">
<title>WFReportParams&#45;&gt;StandAllone</title>
<path fill="none" stroke="#000000" d="M75.6733,-282.6784C65.5578,-295.8771 53.0693,-314.8656 47.5952,-334 40.3401,-359.3594 43.4946,-389.5111 47.625,-410.984"/>
<polygon fill="#000000" stroke="#000000" points="44.2004,-411.7071 49.6897,-420.769 51.0496,-410.2618 44.2004,-411.7071"/>
<text text-anchor="middle" x="120.0952" y="-348.3" font-family="Times,serif" font-size="14.00" fill="#000000">checks in receive_param()</text>
</g>
<!-- Connected -->
<g id="node5" class="node">
<title>Connected</title>
<ellipse fill="none" stroke="#000000" cx="291.5952" cy="-18" rx="48.1917" ry="18"/>
<text text-anchor="middle" x="291.5952" y="-14.3" font-family="Times,serif" font-size="14.00" fill="#000000">Connected</text>
</g>
<!-- WFReportParams&#45;&gt;Connected -->
<g id="edge5" class="edge">
<title>WFReportParams&#45;&gt;Connected</title>
<path fill="none" stroke="#000000" d="M147.5356,-253.2295C162.6513,-247.8747 177.9795,-240.1396 189.5952,-229 224.9793,-195.066 210.4074,-171.2113 231.5952,-127 245.3999,-98.1944 263.2763,-66.2977 275.9142,-44.4924"/>
<polygon fill="#000000" stroke="#000000" points="278.9672,-46.205 280.9827,-35.8036 272.9207,-42.6779 278.9672,-46.205"/>
<text text-anchor="middle" x="283.5952" y="-130.8" font-family="Times,serif" font-size="14.00" fill="#000000">in receive_param()</text>
</g>
<!-- WFBitMapS -->
<g id="node6" class="node">
<title>WFBitMapS</title>
<ellipse fill="none" stroke="#000000" cx="87.5952" cy="-178" rx="56.59" ry="18"/>
<text text-anchor="middle" x="87.5952" y="-174.3" font-family="Times,serif" font-size="14.00" fill="#000000">WFBitMapS</text>
</g>
<!-- WFReportParams&#45;&gt;WFBitMapS -->
<g id="edge6" class="edge">
<title>WFReportParams&#45;&gt;WFBitMapS</title>
<path fill="none" stroke="#000000" d="M89.9736,-246.9735C89.5673,-235.1918 89.0283,-219.5607 88.5661,-206.1581"/>
<polygon fill="#000000" stroke="#000000" points="92.0586,-205.8768 88.216,-196.0034 85.0628,-206.1181 92.0586,-205.8768"/>
<text text-anchor="middle" x="138.5952" y="-217.8" font-family="Times,serif" font-size="14.00" fill="#000000">sync_handshake()</text>
</g>
<!-- WFBitMapT -->
<g id="node7" class="node">
<title>WFBitMapT</title>
<ellipse fill="none" stroke="#000000" cx="527.5952" cy="-178" rx="57.3905" ry="18"/>
<text text-anchor="middle" x="527.5952" y="-174.3" font-family="Times,serif" font-size="14.00" fill="#000000">WFBitMapT</text>
</g>
<!-- WFReportParams&#45;&gt;WFBitMapT -->
<g id="edge7" class="edge">
<title>WFReportParams&#45;&gt;WFBitMapT</title>
<path fill="none" stroke="#000000" d="M148.185,-253.3514C158.9504,-251.211 170.1113,-249.0169 180.5952,-247 303.0922,-223.4339 334.7374,-222.6753 456.5952,-196 462.2453,-194.7632 468.129,-193.3976 473.9849,-191.9881"/>
<polygon fill="#000000" stroke="#000000" points="474.8888,-195.3702 483.7676,-189.5895 473.2218,-188.5716 474.8888,-195.3702"/>
<text text-anchor="middle" x="414.5952" y="-217.8" font-family="Times,serif" font-size="14.00" fill="#000000">sync_handshake()</text>
</g>
<!-- Connected&#45;&gt;WFConnection -->
<g id="edge16" class="edge">
<title>Connected&#45;&gt;WFConnection</title>
<path fill="none" stroke="#000000" d="M314.8518,-34.0334C330.9878,-47.2267 349.5952,-67.5291 349.5952,-91 349.5952,-265 349.5952,-265 349.5952,-265 349.5952,-288.5052 350.3551,-297.7069 335.5952,-316 330.2287,-322.6511 323.302,-328.2131 315.9136,-332.8183"/>
<polygon fill="#000000" stroke="#000000" points="314.0847,-329.8315 307.0941,-337.7928 317.5236,-335.9285 314.0847,-329.8315"/>
<text text-anchor="middle" x="401.0952" y="-174.3" font-family="Times,serif" font-size="14.00" fill="#000000">* on network error</text>
</g>
<!-- SyncSource -->
<g id="node8" class="node">
<title>SyncSource</title>
<ellipse fill="none" stroke="#000000" cx="104.5952" cy="-91" rx="52.7911" ry="18"/>
<text text-anchor="middle" x="104.5952" y="-87.3" font-family="Times,serif" font-size="14.00" fill="#000000">SyncSource</text>
</g>
<!-- WFBitMapS&#45;&gt;SyncSource -->
<g id="edge8" class="edge">
<title>WFBitMapS&#45;&gt;SyncSource</title>
<path fill="none" stroke="#000000" d="M85.6791,-159.8499C85.1178,-150.0135 85.1929,-137.7131 87.5952,-127 88.2691,-123.9946 89.2235,-120.9446 90.3404,-117.9567"/>
<polygon fill="#000000" stroke="#000000" points="93.5631,-119.3222 94.3168,-108.7542 87.1373,-116.5455 93.5631,-119.3222"/>
<text text-anchor="middle" x="134.5952" y="-130.8" font-family="Times,serif" font-size="14.00" fill="#000000">receive_bitmap()</text>
</g>
<!-- SyncTarget -->
<g id="node9" class="node">
<title>SyncTarget</title>
<ellipse fill="none" stroke="#000000" cx="453.5952" cy="-91" rx="51.1914" ry="18"/>
<text text-anchor="middle" x="453.5952" y="-87.3" font-family="Times,serif" font-size="14.00" fill="#000000">SyncTarget</text>
</g>
<!-- WFBitMapT&#45;&gt;SyncTarget -->
<g id="edge9" class="edge">
<title>WFBitMapT&#45;&gt;SyncTarget</title>
<path fill="none" stroke="#000000" d="M512.6202,-160.3943C501.8172,-147.6935 487.0758,-130.3624 475.0277,-116.1977"/>
<polygon fill="#000000" stroke="#000000" points="477.4404,-113.6322 468.2953,-108.2827 472.1084,-118.1676 477.4404,-113.6322"/>
<text text-anchor="middle" x="541.5952" y="-130.8" font-family="Times,serif" font-size="14.00" fill="#000000">receive_bitmap()</text>
</g>
<!-- SyncSource&#45;&gt;Connected -->
<g id="edge10" class="edge">
<title>SyncSource&#45;&gt;Connected</title>
<path fill="none" stroke="#000000" d="M136.258,-76.578C152.1533,-69.5017 171.7732,-61.0136 189.5952,-54 207.8778,-46.8051 228.2534,-39.4781 245.9576,-33.3288"/>
<polygon fill="#000000" stroke="#000000" points="247.1756,-36.6111 255.4881,-30.042 244.8934,-29.9936 247.1756,-36.6111"/>
</g>
<!-- PausedSyncS -->
<g id="node10" class="node">
<title>PausedSyncS</title>
<ellipse fill="none" stroke="#000000" cx="104.5952" cy="-18" rx="57.6901" ry="18"/>
<text text-anchor="middle" x="104.5952" y="-14.3" font-family="Times,serif" font-size="14.00" fill="#000000">PausedSyncS</text>
</g>
<!-- SyncSource&#45;&gt;PausedSyncS -->
<g id="edge12" class="edge">
<title>SyncSource&#45;&gt;PausedSyncS</title>
<path fill="none" stroke="#000000" d="M98.6794,-72.9551C97.881,-64.8828 97.6557,-55.1764 98.0034,-46.1817"/>
<polygon fill="#000000" stroke="#000000" points="101.5032,-46.3007 98.6749,-36.0904 94.5186,-45.8359 101.5032,-46.3007"/>
</g>
<!-- SyncTarget&#45;&gt;Connected -->
<g id="edge11" class="edge">
<title>SyncTarget&#45;&gt;Connected</title>
<path fill="none" stroke="#000000" d="M421.9754,-76.7516C396.2764,-65.1712 359.8536,-48.7584 332.0344,-36.2226"/>
<polygon fill="#000000" stroke="#000000" points="333.1399,-32.8819 322.5849,-31.9645 330.2641,-39.2639 333.1399,-32.8819"/>
</g>
<!-- PausedSyncT -->
<g id="node11" class="node">
<title>PausedSyncT</title>
<ellipse fill="none" stroke="#000000" cx="453.5952" cy="-18" rx="58.4896" ry="18"/>
<text text-anchor="middle" x="453.5952" y="-14.3" font-family="Times,serif" font-size="14.00" fill="#000000">PausedSyncT</text>
</g>
<!-- SyncTarget&#45;&gt;PausedSyncT -->
<g id="edge13" class="edge">
<title>SyncTarget&#45;&gt;PausedSyncT</title>
<path fill="none" stroke="#000000" d="M447.6794,-72.9551C446.881,-64.8828 446.6557,-55.1764 447.0034,-46.1817"/>
<polygon fill="#000000" stroke="#000000" points="450.5032,-46.3007 447.6749,-36.0904 443.5186,-45.8359 450.5032,-46.3007"/>
</g>
<!-- PausedSyncS&#45;&gt;SyncSource -->
<g id="edge14" class="edge">
<title>PausedSyncS&#45;&gt;SyncSource</title>
<path fill="none" stroke="#000000" d="M110.5154,-36.0904C111.3117,-44.1687 111.5348,-53.8769 111.1849,-62.8688"/>
<polygon fill="#000000" stroke="#000000" points="107.6856,-62.7439 110.5109,-72.9551 114.67,-63.2107 107.6856,-62.7439"/>
</g>
<!-- PausedSyncT&#45;&gt;SyncTarget -->
<g id="edge15" class="edge">
<title>PausedSyncT&#45;&gt;SyncTarget</title>
<path fill="none" stroke="#000000" d="M459.5154,-36.0904C460.3117,-44.1687 460.5348,-53.8769 460.1849,-62.8688"/>
<polygon fill="#000000" stroke="#000000" points="456.6856,-62.7439 459.5109,-72.9551 463.67,-63.2107 456.6856,-62.7439"/>
</g>
</g>
</svg>
