<?xml version="1.0" encoding="UTF-8" standalone="no"?>
<!DOCTYPE svg PUBLIC "-//W3C//DTD SVG 1.1//EN"
 "http://www.w3.org/Graphics/SVG/1.1/DTD/svg11.dtd">
<!-- Generated by graphviz version 2.40.1 (20161225.0304)
 -->
<!-- Title: disk_states Pages: 1 -->
<svg width="754pt" height="479pt"
 viewBox="0.00 0.00 753.90 479.00" xmlns="http://www.w3.org/2000/svg" xmlns:xlink="http://www.w3.org/1999/xlink">
<g id="graph0" class="graph" transform="scale(1 1) rotate(0) translate(4 475)">
<title>disk_states</title>
<polygon fill="#ffffff" stroke="transparent" points="-4,4 -4,-475 749.8962,-475 749.8962,4 -4,4"/>
<!-- Diskless -->
<g id="node1" class="node">
<title>Diskless</title>
<ellipse fill="none" stroke="#000000" cx="245.8962" cy="-453" rx="40.0939" ry="18"/>
<text text-anchor="middle" x="245.8962" y="-449.3" font-family="Times,serif" font-size="14.00" fill="#000000">Diskless</text>
</g>
<!-- Inconsistent -->
<g id="node2" class="node">
<title>Inconsistent</title>
<ellipse fill="none" stroke="#000000" cx="157.8962" cy="-192" rx="53.0913" ry="18"/>
<text text-anchor="middle" x="157.8962" y="-188.3" font-family="Times,serif" font-size="14.00" fill="#000000">Inconsistent</text>
</g>
<!-- Diskless&#45;&gt;Inconsistent -->
<g id="edge1" class="edge">
<title>Diskless&#45;&gt;Inconsistent</title>
<path fill="none" stroke="#000000" d="M224.9302,-437.5129C198.5318,-416.5602 154.5044,-376.4191 136.8962,-330 122.9797,-293.3133 135.0667,-247.8314 145.8314,-219.3545"/>
<polygon fill="#000000" stroke="#000000" points="149.0952,-220.6189 149.5391,-210.0334 142.5908,-218.0316 149.0952,-220.6189"/>
<text text-anchor="middle" x="179.3962" y="-318.8" font-family="Times,serif" font-size="14.00" fill="#000000">ioctl_set_disk()</text>
</g>
<!-- Consistent -->
<g id="node3" class="node">
<title>Consistent</title>
<ellipse fill="none" stroke="#000000" cx="352.8962" cy="-366" rx="48.1917" ry="18"/>
<text text-anchor="middle" x="352.8962" y="-362.3" font-family="Times,serif" font-size="14.00" fill="#000000">Consistent</text>
</g>
<!-- Diskless&#45;&gt;Consistent -->
<g id="edge2" class="edge">
<title>Diskless&#45;&gt;Consistent</title>
<path fill="none" stroke="#000000" d="M265.5216,-437.0429C282.129,-423.5397 306.1343,-404.0214 324.7826,-388.8588"/>
<polygon fill="#000000" stroke="#000000" points="327.1172,-391.4714 332.6681,-382.4471 322.7011,-386.0402 327.1172,-391.4714"/>
<text text-anchor="middle" x="347.3962" y="-405.8" font-family="Times,serif" font-size="14.00" fill="#000000">ioctl_set_disk()</text>
</g>
<!-- Outdated -->
<g id="node4" class="node">
<title>Outdated</title>
<ellipse fill="none" stroke="#000000" cx="42.8962" cy="-279" rx="42.7926" ry="18"/>
<text text-anchor="middle" x="42.8962" y="-275.3" font-family="Times,serif" font-size="14.00" fill="#000000">Outdated</text>
</g>
<!-- Diskless&#45;&gt;Outdated -->
<g id="edge3" class="edge">
<title>Diskless&#45;&gt;Outdated</title>
<path fill="none" stroke="#000000" d="M208.3628,-445.9243C154.6219,-434.9248 60.0921,-412.0443 40.8962,-384 25.5355,-361.5587 28.7533,-329.6234 34.1149,-306.8755"/>
<polygon fill="#000000" stroke="#000000" points="37.5175,-307.6982 36.6702,-297.1373 30.7467,-305.9215 37.5175,-307.6982"/>
<text text-anchor="middle" x="83.3962" y="-362.3" font-family="Times,serif" font-size="14.00" fill="#000000">ioctl_set_disk()</text>
</g>
<!-- UpToDate -->
<g id="node5" class="node">
<title>UpToDate</title>
<ellipse fill="none" stroke="#000000" cx="312.8962" cy="-105" rx="48.1917" ry="18"/>
<text text-anchor="middle" x="312.8962" y="-101.3" font-family="Times,serif" font-size="14.00" fill="#000000">UpToDate</text>
</g>
<!-- Inconsistent&#45;&gt;UpToDate -->
<g id="edge9" class="edge">
<title>Inconsistent&#45;&gt;UpToDate</title>
<path fill="none" stroke="#000000" d="M158.0045,-173.6124C159.0619,-162.7038 162.2479,-149.4072 170.8962,-141 197.028,-115.5967 215.6022,-132.0848 250.8962,-123 255.6009,-121.789 260.4899,-120.472 265.3658,-119.1198"/>
<polygon fill="#000000" stroke="#000000" points="266.6199,-122.4026 275.2926,-116.317 264.7178,-115.6659 266.6199,-122.4026"/>
<text text-anchor="middle" x="219.3962" y="-144.8" font-family="Times,serif" font-size="14.00" fill="#000000">resync completed</text>
</g>
<!-- Failed -->
<g id="node6" class="node">
<title>Failed</title>
<ellipse fill="none" stroke="#000000" cx="312.8962" cy="-18" rx="32.4942" ry="18"/>
<text text-anchor="middle" x="312.8962" y="-14.3" font-family="Times,serif" font-size="14.00" fill="#000000">Failed</text>
</g>
<!-- Inconsistent&#45;&gt;Failed -->
<g id="edge13" class="edge">
<title>Inconsistent&#45;&gt;Failed</title>
<path fill="none" stroke="#000000" d="M150.2674,-173.9708C142.1094,-151.601 132.5276,-113.213 149.8962,-87 176.6178,-46.6713 232.1177,-29.8495 270.8948,-22.8744"/>
<polygon fill="#000000" stroke="#000000" points="271.5604,-26.3119 280.8572,-21.2306 270.4208,-19.4053 271.5604,-26.3119"/>
<text text-anchor="middle" x="202.8962" y="-101.3" font-family="Times,serif" font-size="14.00" fill="#000000">io completion error</text>
</g>
<!-- Consistent&#45;&gt;Inconsistent -->
<g id="edge6" class="edge">
<title>Consistent&#45;&gt;Inconsistent</title>
<path fill="none" stroke="#000000" d="M351.1715,-347.5616C349.4299,-337.1654 345.9299,-324.4154 338.8962,-315 329.8173,-302.8469 322.5851,-305.3135 309.8962,-297 267.654,-269.3239 219.8727,-235.9709 189.3466,-214.3944"/>
<polygon fill="#000000" stroke="#000000" points="191.0168,-211.2884 180.8331,-208.3658 186.9715,-217.0012 191.0168,-211.2884"/>
<text text-anchor="middle" x="341.3962" y="-275.3" font-family="Times,serif" font-size="14.00" fill="#000000">start resync</text>
</g>
<!-- Consistent&#45;&gt;Outdated -->
<g id="edge4" class="edge">
<title>Consistent&#45;&gt;Outdated</title>
<path fill="none" stroke="#000000" d="M314.4485,-355.1653C294.4298,-348.9127 269.8289,-340.2559 248.8962,-330 237.9369,-324.6305 237.2019,-319.5955 225.8962,-315 183.8086,-297.8927 132.884,-288.7236 95.452,-283.9301"/>
<polygon fill="#000000" stroke="#000000" points="95.6202,-280.4248 85.2706,-282.6911 94.7745,-287.3736 95.6202,-280.4248"/>
<text text-anchor="middle" x="293.8962" y="-318.8" font-family="Times,serif" font-size="14.00" fill="#000000">receive_param()</text>
</g>
<!-- Consistent&#45;&gt;UpToDate -->
<g id="edge5" class="edge">
<title>Consistent&#45;&gt;UpToDate</title>
<path fill="none" stroke="#000000" d="M360.4095,-348.188C376.0492,-308.1271 407.5674,-209.1096 368.8962,-141 365.1691,-134.4356 359.6987,-128.8774 353.6172,-124.2394"/>
<polygon fill="#000000" stroke="#000000" points="355.3025,-121.1549 345.0517,-118.477 351.3952,-126.963 355.3025,-121.1549"/>
<text text-anchor="middle" x="431.8962" y="-231.8" font-family="Times,serif" font-size="14.00" fill="#000000">receive_param()</text>
</g>
<!-- Consistent&#45;&gt;Failed -->
<g id="edge10" class="edge">
<title>Consistent&#45;&gt;Failed</title>
<path fill="none" stroke="#000000" d="M396.1147,-357.8855C436.9185,-347.4288 491.8962,-324.8352 491.8962,-279 491.8962,-279 491.8962,-279 491.8962,-105 491.8962,-74.1625 404.8739,-44.0322 352.182,-28.6148"/>
<polygon fill="#000000" stroke="#000000" points="353.032,-25.2175 342.4544,-25.8209 351.0997,-31.9455 353.032,-25.2175"/>
<text text-anchor="middle" x="544.8962" y="-188.3" font-family="Times,serif" font-size="14.00" fill="#000000">io completion error</text>
</g>
<!-- Outdated&#45;&gt;Inconsistent -->
<g id="edge7" class="edge">
<title>Outdated&#45;&gt;Inconsistent</title>
<path fill="none" stroke="#000000" d="M46.1436,-260.9071C48.9298,-250.1094 53.9682,-236.8259 62.8962,-228 73.5971,-217.4215 87.7162,-209.8956 101.7868,-204.5624"/>
<polygon fill="#000000" stroke="#000000" points="103.1714,-207.787 111.4777,-201.2101 100.8829,-201.1717 103.1714,-207.787"/>
<text text-anchor="middle" x="94.3962" y="-231.8" font-family="Times,serif" font-size="14.00" fill="#000000">start resync</text>
</g>
<!-- Outdated&#45;&gt;Failed -->
<g id="edge11" class="edge">
<title>Outdated&#45;&gt;Failed</title>
<path fill="none" stroke="#000000" d="M35.6354,-261.182C25.623,-233.6029 11.0406,-179.7238 31.8962,-141 78.5165,-54.4375 204.043,-28.7569 270.4164,-21.1658"/>
<polygon fill="#000000" stroke="#000000" points="270.963,-24.6276 280.5399,-20.0962 270.2275,-17.6664 270.963,-24.6276"/>
<text text-anchor="middle" x="84.8962" y="-144.8" font-family="Times,serif" font-size="14.00" fill="#000000">io completion error</text>
</g>
<!-- UpToDate&#45;&gt;Inconsistent -->
<g id="edge8" class="edge">
<title>UpToDate&#45;&gt;Inconsistent</title>
<path fill="none" stroke="#000000" d="M302.3983,-122.8538C295.1068,-133.8366 284.4624,-147.4072 271.8962,-156 255.0454,-167.5227 234.3152,-175.5053 215.1739,-180.9671"/>
<polygon fill="#000000" stroke="#000000" points="214.0935,-177.633 205.338,-183.5989 215.9029,-184.3951 214.0935,-177.633"/>
<text text-anchor="middle" x="325.8962" y="-144.8" font-family="Times,serif" font-size="14.00" fill="#000000">ioctl_replicate</text>
</g>
<!-- UpToDate&#45;&gt;Failed -->
<g id="edge12" class="edge">
<title>UpToDate&#45;&gt;Failed</title>
<path fill="none" stroke="#000000" d="M312.8962,-86.9735C312.8962,-75.1918 312.8962,-59.5607 312.8962,-46.1581"/>
<polygon fill="#000000" stroke="#000000" points="316.3963,-46.0033 312.8962,-36.0034 309.3963,-46.0034 316.3963,-46.0033"/>
<text text-anchor="middle" x="365.8962" y="-57.8" font-family="Times,serif" font-size="14.00" fill="#000000">io completion error</text>
</g>
<!-- Failed&#45;&gt;Diskless -->
<g id="edge14" class="edge">
<title>Failed&#45;&gt;Diskless</title>
<path fill="none" stroke="#000000" d="M345.2138,-20.0997C425.1848,-26.1774 625.8962,-47.1896 625.8962,-105 625.8962,-366 625.8962,-366 625.8962,-366 625.8962,-432.8224 399.7974,-448.3212 296.4071,-451.9153"/>
<polygon fill="#000000" stroke="#000000" points="296.0848,-448.4238 286.2031,-452.2451 296.311,-455.4201 296.0848,-448.4238"/>
<text text-anchor="middle" x="685.8962" y="-231.8" font-family="Times,serif" font-size="14.00" fill="#000000">sending notify to peer</text>
</g>
</g>
</svg>
