<?xml version="1.0" encoding="UTF-8" standalone="no"?>
<!DOCTYPE svg PUBLIC "-//W3C//DTD SVG 1.1//EN"
 "http://www.w3.org/Graphics/SVG/1.1/DTD/svg11.dtd">
<!-- Generated by graphviz version 2.40.1 (20161225.0304)
 -->
<!-- Title: decoder_state_machine Pages: 1 -->
<svg width="1223pt" height="951pt"
 viewBox="0.00 0.00 1222.73 950.90" xmlns="http://www.w3.org/2000/svg" xmlns:xlink="http://www.w3.org/1999/xlink">
<g id="graph0" class="graph" transform="scale(1 1) rotate(0) translate(4 946.8977)">
<title>decoder_state_machine</title>
<polygon fill="#ffffff" stroke="transparent" points="-4,4 -4,-946.8977 1218.7308,-946.8977 1218.7308,4 -4,4"/>
<!-- Decoding -->
<g id="node1" class="node">
<title>Decoding</title>
<ellipse fill="none" stroke="#000000" cx="552.7308" cy="-894.0516" rx="44.7051" ry="44.7051"/>
<ellipse fill="none" stroke="#000000" cx="552.7308" cy="-894.0516" rx="48.6925" ry="48.6925"/>
<text text-anchor="middle" x="552.7308" y="-890.3516" font-family="Times,serif" font-size="14.00" fill="#000000">Decoding</text>
</g>
<!-- Decoding&#45;&gt;Decoding -->
<g id="edge9" class="edge">
<title>Decoding&#45;&gt;Decoding</title>
<path fill="none" stroke="#000000" d="M598.9682,-910.3542C610.7396,-909.2827 619.5768,-903.8485 619.5768,-894.0516 619.5768,-887.3163 615.3998,-882.643 608.9641,-880.0317"/>
<polygon fill="#000000" stroke="#000000" points="609.4964,-876.5632 598.9682,-877.749 607.938,-883.3876 609.4964,-876.5632"/>
</g>
<!-- ResChange -->
<g id="node4" class="node">
<title>ResChange</title>
<ellipse fill="none" stroke="#000000" cx="205.7308" cy="-701.8111" rx="53.066" ry="53.066"/>
<text text-anchor="middle" x="205.7308" y="-713.1111" font-family="Times,serif" font-size="14.00" fill="#000000">Dynamic</text>
<text text-anchor="middle" x="205.7308" y="-698.1111" font-family="Times,serif" font-size="14.00" fill="#000000">Resolution</text>
<text text-anchor="middle" x="205.7308" y="-683.1111" font-family="Times,serif" font-size="14.00" fill="#000000">Change</text>
</g>
<!-- Decoding&#45;&gt;ResChange -->
<g id="edge4" class="edge">
<title>Decoding&#45;&gt;ResChange</title>
<path fill="none" stroke="#000000" d="M503.9537,-891.2815C420.4255,-885.4541 255.3475,-868.8502 217.7308,-827.2056 202.5396,-810.3878 197.6808,-786.6382 197.2787,-764.3245"/>
<polygon fill="#000000" stroke="#000000" points="200.7796,-764.2401 197.3864,-754.2034 193.78,-764.1656 200.7796,-764.2401"/>
<text text-anchor="middle" x="245.2308" y="-816.0056" font-family="Times,serif" font-size="14.00" fill="#000000">Stream</text>
<text text-anchor="middle" x="245.2308" y="-801.0056" font-family="Times,serif" font-size="14.00" fill="#000000">resolution</text>
<text text-anchor="middle" x="245.2308" y="-786.0056" font-family="Times,serif" font-size="14.00" fill="#000000">change</text>
</g>
<!-- Stopped -->
<g id="node5" class="node">
<title>Stopped</title>
<ellipse fill="none" stroke="#000000" cx="511.7308" cy="-339.3316" rx="39.7935" ry="39.7935"/>
<text text-anchor="middle" x="511.7308" y="-335.6316" font-family="Times,serif" font-size="14.00" fill="#000000">Stopped</text>
</g>
<!-- Decoding&#45;&gt;Stopped -->
<g id="edge8" class="edge">
<title>Decoding&#45;&gt;Stopped</title>
<path fill="none" stroke="#000000" d="M514.1102,-863.4152C459.8138,-817.5884 363.3449,-725.3777 325.7308,-621.4167 318.9262,-602.6098 312.3923,-591.3192 325.7308,-576.4167 349.8877,-549.427 462.1381,-584.049 487.7308,-558.4167 531.6136,-514.466 529.497,-438.1723 522.0711,-388.219"/>
<polygon fill="#000000" stroke="#000000" points="525.5176,-387.6062 520.474,-378.2889 518.6064,-388.7178 525.5176,-387.6062"/>
<text text-anchor="middle" x="428.2308" y="-595.2167" font-family="Times,serif" font-size="14.00" fill="#000000">VIDIOC_STREAMOFF(CAPTURE)</text>
</g>
<!-- Drain -->
<g id="node6" class="node">
<title>Drain</title>
<ellipse fill="none" stroke="#000000" cx="782.7308" cy="-516.6974" rx="30.5947" ry="30.5947"/>
<text text-anchor="middle" x="782.7308" y="-512.9974" font-family="Times,serif" font-size="14.00" fill="#000000">Drain</text>
</g>
<!-- Decoding&#45;&gt;Drain -->
<g id="edge5" class="edge">
<title>Decoding&#45;&gt;Drain</title>
<path fill="none" stroke="#000000" d="M572.5546,-849.3069C598.9293,-794.0032 650.1989,-699.8208 717.7308,-639.4167 731.0639,-627.4908 742.3626,-635.2285 753.7308,-621.4167 768.5665,-603.3919 775.8357,-578.3233 779.3868,-557.2326"/>
<polygon fill="#000000" stroke="#000000" points="782.8632,-557.6484 780.8483,-547.2469 775.937,-556.6346 782.8632,-557.6484"/>
<text text-anchor="middle" x="789.7308" y="-698.1111" font-family="Times,serif" font-size="14.00" fill="#000000">V4L2_DEC_CMD_STOP</text>
</g>
<!-- Seek -->
<g id="node7" class="node">
<title>Seek</title>
<ellipse fill="none" stroke="#000000" cx="374.7308" cy="-190.7376" rx="27.8951" ry="27.8951"/>
<text text-anchor="middle" x="374.7308" y="-187.0376" font-family="Times,serif" font-size="14.00" fill="#000000">Seek</text>
</g>
<!-- Decoding&#45;&gt;Seek -->
<g id="edge7" class="edge">
<title>Decoding&#45;&gt;Seek</title>
<path fill="none" stroke="#000000" d="M505.7003,-880.0301C454.0042,-862.0238 372.7285,-825.5488 330.7308,-764.2056 294.0038,-710.5611 262.712,-535.3908 286.7308,-474.9781 290.7962,-464.7527 298.3712,-466.5886 303.7308,-456.9781 345.2337,-382.5577 363.355,-282.8035 370.5393,-228.9999"/>
<polygon fill="#000000" stroke="#000000" points="374.0375,-229.2361 371.834,-218.8729 367.094,-228.3483 374.0375,-229.2361"/>
<text text-anchor="middle" x="385.2308" y="-512.9974" font-family="Times,serif" font-size="14.00" fill="#000000">VIDIOC_STREAMOFF(OUTPUT)</text>
</g>
<!-- EoS -->
<g id="node8" class="node">
<title>EoS</title>
<ellipse fill="none" stroke="#000000" cx="932.7308" cy="-701.8111" rx="62.2891" ry="62.2891"/>
<text text-anchor="middle" x="932.7308" y="-698.1111" font-family="Times,serif" font-size="14.00" fill="#000000">End of Stream</text>
</g>
<!-- Decoding&#45;&gt;EoS -->
<g id="edge6" class="edge">
<title>Decoding&#45;&gt;EoS</title>
<path fill="none" stroke="#000000" d="M599.5378,-879.3023C661.257,-858.7106 771.9436,-817.7705 856.7308,-764.2056 863.7847,-759.7493 870.9153,-754.7202 877.8363,-749.4997"/>
<polygon fill="#000000" stroke="#000000" points="880.0769,-752.1915 885.8474,-743.306 875.7953,-746.6536 880.0769,-752.1915"/>
<text text-anchor="middle" x="861.7308" y="-808.5056" font-family="Times,serif" font-size="14.00" fill="#000000">EoS mark</text>
<text text-anchor="middle" x="861.7308" y="-793.5056" font-family="Times,serif" font-size="14.00" fill="#000000">in the stream</text>
</g>
<!-- Initialization -->
<g id="node2" class="node">
<title>Initialization</title>
<ellipse fill="none" stroke="#000000" cx="278.7308" cy="-55.895" rx="55.7903" ry="55.7903"/>
<text text-anchor="middle" x="278.7308" y="-52.195" font-family="Times,serif" font-size="14.00" fill="#000000">Initialization</text>
</g>
<!-- CaptureSetup -->
<g id="node3" class="node">
<title>CaptureSetup</title>
<ellipse fill="none" stroke="#000000" cx="207.7308" cy="-516.6974" rx="41.9398" ry="41.9398"/>
<text text-anchor="middle" x="207.7308" y="-520.4974" font-family="Times,serif" font-size="14.00" fill="#000000">Capture</text>
<text text-anchor="middle" x="207.7308" y="-505.4974" font-family="Times,serif" font-size="14.00" fill="#000000">setup</text>
</g>
<!-- Initialization&#45;&gt;CaptureSetup -->
<g id="edge2" class="edge">
<title>Initialization&#45;&gt;CaptureSetup</title>
<path fill="none" stroke="#000000" d="M266.3168,-110.6696C258.5151,-146.4094 248.6534,-194.1541 241.7308,-236.6851 228.844,-315.8589 218.5283,-408.3556 212.7696,-464.7101"/>
<polygon fill="#000000" stroke="#000000" points="209.2732,-464.4989 211.7478,-474.8007 216.2376,-465.2043 209.2732,-464.4989"/>
<text text-anchor="middle" x="272.7308" y="-270.4851" font-family="Times,serif" font-size="14.00" fill="#000000">CAPTURE</text>
<text text-anchor="middle" x="272.7308" y="-255.4851" font-family="Times,serif" font-size="14.00" fill="#000000">format</text>
<text text-anchor="middle" x="272.7308" y="-240.4851" font-family="Times,serif" font-size="14.00" fill="#000000">established</text>
</g>
<!-- CaptureSetup&#45;&gt;Stopped -->
<g id="edge3" class="edge">
<title>CaptureSetup&#45;&gt;Stopped</title>
<path fill="none" stroke="#000000" d="M240.9826,-491.2503C248.6518,-485.6947 256.8692,-479.9841 264.7308,-474.9781 333.2989,-431.3159 416.9124,-387.1879 467.1548,-361.5924"/>
<polygon fill="#000000" stroke="#000000" points="468.804,-364.6805 476.1367,-357.0332 465.6355,-358.4386 468.804,-364.6805"/>
<text text-anchor="middle" x="427.7308" y="-438.2781" font-family="Times,serif" font-size="14.00" fill="#000000">CAPTURE</text>
<text text-anchor="middle" x="427.7308" y="-423.2781" font-family="Times,serif" font-size="14.00" fill="#000000">buffers</text>
<text text-anchor="middle" x="427.7308" y="-408.2781" font-family="Times,serif" font-size="14.00" fill="#000000">ready</text>
</g>
<!-- ResChange&#45;&gt;CaptureSetup -->
<g id="edge10" class="edge">
<title>ResChange&#45;&gt;CaptureSetup</title>
<path fill="none" stroke="#000000" d="M206.3039,-648.765C206.5758,-623.5998 206.8995,-593.6373 207.1698,-568.6177"/>
<polygon fill="#000000" stroke="#000000" points="210.6699,-568.6206 207.2782,-558.5833 203.6703,-568.5449 210.6699,-568.6206"/>
<text text-anchor="middle" x="238.7308" y="-610.2167" font-family="Times,serif" font-size="14.00" fill="#000000">CAPTURE</text>
<text text-anchor="middle" x="238.7308" y="-595.2167" font-family="Times,serif" font-size="14.00" fill="#000000">format</text>
<text text-anchor="middle" x="238.7308" y="-580.2167" font-family="Times,serif" font-size="14.00" fill="#000000">established</text>
</g>
<!-- ResChange&#45;&gt;Seek -->
<g id="edge11" class="edge">
<title>ResChange&#45;&gt;Seek</title>
<path fill="none" stroke="#000000" d="M161.9848,-671.7953C89.8917,-618.3929 -40.8295,-502.5547 12.7308,-396.9781 77.4811,-269.3438 258.3963,-215.8029 337.2236,-198.068"/>
<polygon fill="#000000" stroke="#000000" points="338.179,-201.442 347.204,-195.8923 336.688,-194.6026 338.179,-201.442"/>
<text text-anchor="middle" x="111.2308" y="-423.2781" font-family="Times,serif" font-size="14.00" fill="#000000">VIDIOC_STREAMOFF(OUTPUT)</text>
</g>
<!-- Stopped&#45;&gt;Decoding -->
<g id="edge17" class="edge">
<title>Stopped&#45;&gt;Decoding</title>
<path fill="none" stroke="#000000" d="M525.7099,-376.7767C527.7192,-383.4248 529.5147,-390.3445 530.7308,-396.9781 545.8163,-479.269 550.6683,-721.6143 552.1364,-834.6898"/>
<polygon fill="#000000" stroke="#000000" points="548.6392,-834.9378 552.2643,-844.8932 555.6386,-834.8501 548.6392,-834.9378"/>
<text text-anchor="middle" x="646.7308" y="-610.2167" font-family="Times,serif" font-size="14.00" fill="#000000">V4L2_DEC_CMD_START</text>
<text text-anchor="middle" x="646.7308" y="-595.2167" font-family="Times,serif" font-size="14.00" fill="#000000">or</text>
<text text-anchor="middle" x="646.7308" y="-580.2167" font-family="Times,serif" font-size="14.00" fill="#000000">VIDIOC_STREAMON(CAPTURE)</text>
</g>
<!-- Stopped&#45;&gt;Seek -->
<g id="edge18" class="edge">
<title>Stopped&#45;&gt;Seek</title>
<path fill="none" stroke="#000000" d="M484.664,-309.9742C460.3536,-283.6065 424.8908,-245.1425 400.8696,-219.0885"/>
<polygon fill="#000000" stroke="#000000" points="403.1587,-216.4079 393.807,-211.4283 398.0123,-221.1528 403.1587,-216.4079"/>
<text text-anchor="middle" x="553.2308" y="-255.4851" font-family="Times,serif" font-size="14.00" fill="#000000">VIDIOC_STREAMOFF(OUTPUT)</text>
</g>
<!-- Drain&#45;&gt;Stopped -->
<g id="edge13" class="edge">
<title>Drain&#45;&gt;Stopped</title>
<path fill="none" stroke="#000000" d="M752.5953,-511.2719C702.2988,-501.6759 604.2357,-480.4901 578.7308,-456.9781 557.7329,-437.621 569.6476,-421.9166 555.7308,-396.9781 552.1455,-390.5533 547.9043,-384.0579 543.4934,-377.8589"/>
<polygon fill="#000000" stroke="#000000" points="546.1719,-375.5939 537.4192,-369.6239 540.5385,-379.7491 546.1719,-375.5939"/>
<text text-anchor="middle" x="681.2308" y="-445.7781" font-family="Times,serif" font-size="14.00" fill="#000000">All CAPTURE</text>
<text text-anchor="middle" x="681.2308" y="-430.7781" font-family="Times,serif" font-size="14.00" fill="#000000">buffers dequeued</text>
<text text-anchor="middle" x="681.2308" y="-415.7781" font-family="Times,serif" font-size="14.00" fill="#000000">or</text>
<text text-anchor="middle" x="681.2308" y="-400.7781" font-family="Times,serif" font-size="14.00" fill="#000000">VIDIOC_STREAMOFF(CAPTURE)</text>
</g>
<!-- Drain&#45;&gt;Seek -->
<g id="edge14" class="edge">
<title>Drain&#45;&gt;Seek</title>
<path fill="none" stroke="#000000" d="M788.5444,-486.2548C791.9771,-461.488 793.9003,-426.0108 783.7308,-396.9781 753.5918,-310.9356 735.725,-280.4184 655.7308,-236.6851 621.8162,-218.1438 520.769,-225.5459 482.7308,-218.6851 458.6525,-214.3423 432.0388,-207.48 411.2552,-201.6423"/>
<polygon fill="#000000" stroke="#000000" points="412.134,-198.2535 401.5573,-198.8744 410.2127,-204.9847 412.134,-198.2535"/>
<text text-anchor="middle" x="875.2308" y="-335.6316" font-family="Times,serif" font-size="14.00" fill="#000000">VIDIOC_STREAMOFF(OUTPUT)</text>
</g>
<!-- Seek&#45;&gt;Decoding -->
<g id="edge15" class="edge">
<title>Seek&#45;&gt;Decoding</title>
<path fill="none" stroke="#000000" d="M401.5285,-199.0397C423.2157,-205.4254 454.6594,-213.9354 482.7308,-218.6851 603.9661,-239.1982 1022.7308,-216.3731 1022.7308,-339.3316 1022.7308,-701.8111 1022.7308,-701.8111 1022.7308,-701.8111 1022.7308,-779.2578 973.9008,-799.1081 901.7308,-827.2056 804.198,-865.1775 682.6591,-882.1785 611.7689,-889.3272"/>
<polygon fill="#000000" stroke="#000000" points="611.2985,-885.8564 601.6861,-890.3117 611.9789,-892.8232 611.2985,-885.8564"/>
<text text-anchor="middle" x="1118.7308" y="-512.9974" font-family="Times,serif" font-size="14.00" fill="#000000">VIDIOC_STREAMON(OUTPUT)</text>
</g>
<!-- Seek&#45;&gt;Initialization -->
<g id="edge16" class="edge">
<title>Seek&#45;&gt;Initialization</title>
<path fill="none" stroke="#000000" d="M346.9336,-185.5606C324.5463,-179.7765 294.4627,-167.989 279.7308,-144.7901 275.2603,-137.7503 272.6324,-129.7222 271.2683,-121.4366"/>
<polygon fill="#000000" stroke="#000000" points="274.7237,-120.8284 270.1925,-111.2514 267.7624,-121.5638 274.7237,-120.8284"/>
<text text-anchor="middle" x="375.7308" y="-133.5901" font-family="Times,serif" font-size="14.00" fill="#000000">VIDIOC_REQBUFS(OUTPUT, 0)</text>
</g>
<!-- EoS&#45;&gt;Drain -->
<g id="edge12" class="edge">
<title>EoS&#45;&gt;Drain</title>
<path fill="none" stroke="#000000" d="M893.32,-653.1747C866.538,-620.1232 831.8739,-577.3446 808.5536,-548.5652"/>
<polygon fill="#000000" stroke="#000000" points="811.0127,-546.0405 801.9977,-540.4745 805.5741,-550.4475 811.0127,-546.0405"/>
<text text-anchor="middle" x="887.7308" y="-602.7167" font-family="Times,serif" font-size="14.00" fill="#000000">Implicit</text>
<text text-anchor="middle" x="887.7308" y="-587.7167" font-family="Times,serif" font-size="14.00" fill="#000000">drain</text>
</g>
<!-- qi -->
<g id="node9" class="node">
<title>qi</title>
<ellipse fill="#000000" stroke="#000000" cx="493.7308" cy="-190.7376" rx="1.8" ry="1.8"/>
</g>
<!-- qi&#45;&gt;Initialization -->
<g id="edge1" class="edge">
<title>qi&#45;&gt;Initialization</title>
<path fill="none" stroke="#000000" d="M493.5761,-188.5089C492.8526,-179.7704 489.0615,-147.4577 471.7308,-129.7901 437.6546,-95.0517 385.5137,-76.3807 344.0138,-66.5027"/>
<polygon fill="#000000" stroke="#000000" points="344.7788,-63.0874 334.2527,-64.2928 343.233,-69.9146 344.7788,-63.0874"/>
<text text-anchor="middle" x="499.7308" y="-133.5901" font-family="Times,serif" font-size="14.00" fill="#000000">open()</text>
</g>
</g>
</svg>
