<?xml version="1.0" encoding="UTF-8" standalone="no"?>
<!DOCTYPE svg PUBLIC "-//W3C//DTD SVG 1.1//EN"
 "http://www.w3.org/Graphics/SVG/1.1/DTD/svg11.dtd">
<!-- Generated by graphviz version 2.40.1 (20161225.0304)
 -->
<!-- Title: Fencing Cycle Pages: 1 -->
<svg width="483pt" height="48pt"
 viewBox="0.00 0.00 482.50 47.62" xmlns="http://www.w3.org/2000/svg" xmlns:xlink="http://www.w3.org/1999/xlink">
<g id="graph0" class="graph" transform="scale(1 1) rotate(0) translate(4 43.6236)">
<title>Fencing Cycle</title>
<polygon fill="#ffffff" stroke="transparent" points="-4,4 -4,-43.6236 478.5,-43.6236 478.5,4 -4,4"/>
<!-- kernel -->
<g id="node1" class="node">
<title>kernel</title>
<polygon fill="#d3d3d3" stroke="#000000" points="131,-39.6236 0,-39.6236 0,-3.6236 131,-3.6236 131,-39.6236"/>
<text text-anchor="middle" x="65.5" y="-17.9236" font-family="Times,serif" font-size="14.00" fill="#000000">Kernel DMA Fences</text>
</g>
<!-- userspace -->
<g id="node2" class="node">
<title>userspace</title>
<polygon fill="#d3d3d3" stroke="#000000" points="474.5,-39.6236 308.5,-39.6236 308.5,-3.6236 474.5,-3.6236 474.5,-39.6236"/>
<text text-anchor="middle" x="391.5" y="-17.9236" font-family="Times,serif" font-size="14.00" fill="#000000">userspace controlled fences</text>
</g>
<!-- kernel&#45;&gt;userspace -->
<g id="edge1" class="edge">
<title>kernel&#45;&gt;userspace</title>
<path fill="none" stroke="#000000" d="M131.0909,-7.3979C140.5003,-5.8341 150.0931,-4.4947 159.25,-3.6236 212.7861,1.4693 226.6451,.6849 280.25,-3.6236 286.1221,-4.0956 292.1518,-4.7055 298.2209,-5.4145"/>
<polygon fill="#000000" stroke="#000000" points="298.0939,-8.9258 308.451,-6.6942 298.9628,-1.9799 298.0939,-8.9258"/>
<text text-anchor="middle" x="219.75" y="-7.4236" font-family="Times,serif" font-size="14.00" fill="#000000">memory management</text>
</g>
<!-- userspace&#45;&gt;kernel -->
<g id="edge2" class="edge">
<title>userspace&#45;&gt;kernel</title>
<path fill="none" stroke="#000000" d="M308.3257,-21.6236C256.8316,-21.6236 191.2241,-21.6236 141.1887,-21.6236"/>
<polygon fill="#000000" stroke="#000000" points="141.0788,-18.1237 131.0788,-21.6236 141.0788,-25.1237 141.0788,-18.1237"/>
<text text-anchor="middle" x="219.75" y="-28.4236" font-family="Times,serif" font-size="14.00" fill="#000000">Future fence, fence proxy, ...</text>
</g>
</g>
</svg>
