<?xml version="1.0" encoding="UTF-8" standalone="no"?>
<!DOCTYPE svg PUBLIC "-//W3C//DTD SVG 1.1//EN"
 "http://www.w3.org/Graphics/SVG/1.1/DTD/svg11.dtd">
<!-- Generated by graphviz version 2.40.1 (20161225.0304)
 -->
<!-- Title: NFC Pages: 1 -->
<svg width="410pt" height="404pt"
 viewBox="0.00 0.00 410.38 404.00" xmlns="http://www.w3.org/2000/svg" xmlns:xlink="http://www.w3.org/1999/xlink">
<g id="graph0" class="graph" transform="scale(1 1) rotate(0) translate(4 400)">
<title>NFC</title>
<polygon fill="#ffffff" stroke="transparent" points="-4,4 -4,-400 406.3829,-400 406.3829,4 -4,4"/>
<!-- cl_nfc -->
<g id="node1" class="node">
<title>cl_nfc</title>
<ellipse fill="none" stroke="#000000" cx="208.3408" cy="-90" rx="55.7903" ry="18"/>
<text text-anchor="middle" x="208.3408" y="-86.3" font-family="Times,serif" font-size="14.00" fill="#000000">mei/bus(nfc)</text>
</g>
<!-- me_cl_nfc -->
<g id="node2" class="node">
<title>me_cl_nfc</title>
<ellipse fill="none" stroke="#000000" cx="208.3408" cy="-18" rx="53.0913" ry="18"/>
<text text-anchor="middle" x="208.3408" y="-14.3" font-family="Times,serif" font-size="14.00" fill="#000000">me fw (nfc)</text>
</g>
<!-- cl_nfc&#45;&gt;me_cl_nfc -->
<g id="edge1" class="edge">
<title>cl_nfc&#45;&gt;me_cl_nfc</title>
<path fill="none" stroke="#000000" d="M208.3408,-71.8314C208.3408,-64.131 208.3408,-54.9743 208.3408,-46.4166"/>
<polygon fill="#000000" stroke="#000000" points="211.8409,-46.4132 208.3408,-36.4133 204.8409,-46.4133 211.8409,-46.4132"/>
</g>
<!-- drivers/nfc/mei_phy -->
<g id="node3" class="node">
<title>drivers/nfc/mei_phy</title>
<ellipse fill="none" stroke="#000000" cx="208.3408" cy="-162" rx="82.5854" ry="18"/>
<text text-anchor="middle" x="208.3408" y="-158.3" font-family="Times,serif" font-size="14.00" fill="#000000">drivers/nfc/mei_phy</text>
</g>
<!-- drivers/nfc/mei_phy&#45;&gt;cl_nfc -->
<g id="edge2" class="edge">
<title>drivers/nfc/mei_phy&#45;&gt;cl_nfc</title>
<path fill="none" stroke="#000000" d="M208.3408,-143.8314C208.3408,-136.131 208.3408,-126.9743 208.3408,-118.4166"/>
<polygon fill="#000000" stroke="#000000" points="211.8409,-118.4132 208.3408,-108.4133 204.8409,-118.4133 211.8409,-118.4132"/>
</g>
<!-- drivers/nfc/microread/mei -->
<g id="node4" class="node">
<title>drivers/nfc/microread/mei</title>
<ellipse fill="none" stroke="#000000" cx="103.3408" cy="-234" rx="103.1819" ry="18"/>
<text text-anchor="middle" x="103.3408" y="-230.3" font-family="Times,serif" font-size="14.00" fill="#000000">drivers/nfc/microread/mei</text>
</g>
<!-- drivers/nfc/microread/mei&#45;&gt;cl_nfc -->
<g id="edge3" class="edge">
<title>drivers/nfc/microread/mei&#45;&gt;cl_nfc</title>
<path fill="none" stroke="#000000" d="M101.5753,-215.8097C100.6254,-196.3811 101.8988,-165.4888 116.3408,-144 127.0622,-128.0474 144.2105,-116.1544 160.8129,-107.6512"/>
<polygon fill="#000000" stroke="#000000" points="162.4357,-110.7547 169.9361,-103.2717 159.4063,-104.4441 162.4357,-110.7547"/>
</g>
<!-- drivers/nfc/microread/mei&#45;&gt;drivers/nfc/mei_phy -->
<g id="edge4" class="edge">
<title>drivers/nfc/microread/mei&#45;&gt;drivers/nfc/mei_phy</title>
<path fill="none" stroke="#000000" d="M129.0267,-216.3868C142.8314,-206.9208 160.0171,-195.1363 174.8583,-184.9594"/>
<polygon fill="#000000" stroke="#000000" points="177.0145,-187.7248 183.2825,-179.1829 173.0558,-181.9517 177.0145,-187.7248"/>
</g>
<!-- drivers/nfc/pn544/mei -->
<g id="node5" class="node">
<title>drivers/nfc/pn544/mei</title>
<ellipse fill="none" stroke="#000000" cx="313.3408" cy="-234" rx="89.0842" ry="18"/>
<text text-anchor="middle" x="313.3408" y="-230.3" font-family="Times,serif" font-size="14.00" fill="#000000">drivers/nfc/pn544/mei</text>
</g>
<!-- drivers/nfc/pn544/mei&#45;&gt;cl_nfc -->
<g id="edge5" class="edge">
<title>drivers/nfc/pn544/mei&#45;&gt;cl_nfc</title>
<path fill="none" stroke="#000000" d="M315.1063,-215.8097C316.0563,-196.3811 314.7829,-165.4888 300.3408,-144 289.6195,-128.0474 272.4711,-116.1544 255.8687,-107.6512"/>
<polygon fill="#000000" stroke="#000000" points="257.2754,-104.4441 246.7456,-103.2717 254.246,-110.7547 257.2754,-104.4441"/>
</g>
<!-- drivers/nfc/pn544/mei&#45;&gt;drivers/nfc/mei_phy -->
<g id="edge6" class="edge">
<title>drivers/nfc/pn544/mei&#45;&gt;drivers/nfc/mei_phy</title>
<path fill="none" stroke="#000000" d="M287.9233,-216.5708C274.1231,-207.1078 256.885,-195.2874 241.984,-185.0696"/>
<polygon fill="#000000" stroke="#000000" points="243.751,-182.0375 233.5243,-179.2687 239.7923,-187.8106 243.751,-182.0375"/>
</g>
<!-- net/nfc -->
<g id="node6" class="node">
<title>net/nfc</title>
<ellipse fill="none" stroke="#000000" cx="208.3408" cy="-306" rx="35.194" ry="18"/>
<text text-anchor="middle" x="208.3408" y="-302.3" font-family="Times,serif" font-size="14.00" fill="#000000">net/nfc</text>
</g>
<!-- net/nfc&#45;&gt;drivers/nfc/microread/mei -->
<g id="edge7" class="edge">
<title>net/nfc&#45;&gt;drivers/nfc/microread/mei</title>
<path fill="none" stroke="#000000" d="M187.0925,-291.4297C172.8043,-281.6321 153.6604,-268.5049 137.2822,-257.2741"/>
<polygon fill="#000000" stroke="#000000" points="139.2366,-254.3704 129.0099,-251.6017 135.2779,-260.1435 139.2366,-254.3704"/>
</g>
<!-- net/nfc&#45;&gt;drivers/nfc/pn544/mei -->
<g id="edge8" class="edge">
<title>net/nfc&#45;&gt;drivers/nfc/pn544/mei</title>
<path fill="none" stroke="#000000" d="M229.5891,-291.4297C243.9794,-281.5621 263.295,-268.3172 279.75,-257.0337"/>
<polygon fill="#000000" stroke="#000000" points="281.785,-259.8822 288.0529,-251.3403 277.8262,-254.1091 281.785,-259.8822"/>
</g>
<!-- neard -->
<g id="node7" class="node">
<title>neard</title>
<ellipse fill="none" stroke="#000000" cx="208.3408" cy="-378" rx="30.5947" ry="18"/>
<text text-anchor="middle" x="208.3408" y="-374.3" font-family="Times,serif" font-size="14.00" fill="#000000">neard</text>
</g>
<!-- neard&#45;&gt;net/nfc -->
<g id="edge9" class="edge">
<title>neard&#45;&gt;net/nfc</title>
<path fill="none" stroke="#000000" d="M208.3408,-359.8314C208.3408,-352.131 208.3408,-342.9743 208.3408,-334.4166"/>
<polygon fill="#000000" stroke="#000000" points="211.8409,-334.4132 208.3408,-324.4133 204.8409,-334.4133 211.8409,-334.4132"/>
</g>
</g>
</svg>
