<?xml version="1.0" encoding="UTF-8" standalone="no"?>
<!DOCTYPE svg PUBLIC "-//W3C//DTD SVG 1.1//EN"
 "http://www.w3.org/Graphics/SVG/1.1/DTD/svg11.dtd">
<!-- Generated by graphviz version 2.40.1 (20161225.0304)
 -->
<!-- Title: IPU3 ImgU Pages: 1 -->
<svg width="544pt" height="530pt"
 viewBox="0.00 0.00 544.00 530.00" xmlns="http://www.w3.org/2000/svg" xmlns:xlink="http://www.w3.org/1999/xlink">
<g id="graph0" class="graph" transform="scale(1 1) rotate(0) translate(4 526)">
<title>IPU3 ImgU</title>
<polygon fill="#ffffff" stroke="transparent" points="-4,4 -4,-526 540,-526 540,4 -4,4"/>
<!-- a -->
<g id="node1" class="node">
<title>a</title>
<polygon fill="none" stroke="#000000" points="159,-522 82,-522 82,-486 159,-486 159,-522"/>
<text text-anchor="middle" x="120.5" y="-500.3" font-family="Times,serif" font-size="14.00" fill="#000000">Raw pixels</text>
</g>
<!-- b -->
<g id="node2" class="node">
<title>b</title>
<polygon fill="none" stroke="#000000" points="182.5,-468 58.5,-468 58.5,-432 182.5,-432 182.5,-468"/>
<text text-anchor="middle" x="120.5" y="-446.3" font-family="Times,serif" font-size="14.00" fill="#000000">Bayer Downscaling</text>
</g>
<!-- a&#45;&gt;b -->
<g id="edge1" class="edge">
<title>a&#45;&gt;b</title>
<path fill="none" stroke="#000000" d="M121,-485.7181C121,-485.7181 121,-478.2631 121,-478.2631"/>
<polygon fill="#000000" stroke="#000000" points="124.5001,-478.2631 121,-468.2631 117.5001,-478.2631 124.5001,-478.2631"/>
</g>
<!-- j -->
<g id="node10" class="node">
<title>j</title>
<polygon fill="none" stroke="#000000" points="436.5,-522 286.5,-522 286.5,-486 436.5,-486 436.5,-522"/>
<text text-anchor="middle" x="361.5" y="-500.3" font-family="Times,serif" font-size="14.00" fill="#000000">Color Correction Matrix</text>
</g>
<!-- a&#45;&gt;j -->
<!-- c -->
<g id="node3" class="node">
<title>c</title>
<polygon fill="none" stroke="#000000" points="197,-414 44,-414 44,-378 197,-378 197,-414"/>
<text text-anchor="middle" x="120.5" y="-392.3" font-family="Times,serif" font-size="14.00" fill="#000000">Optical Black Correction</text>
</g>
<!-- b&#45;&gt;c -->
<g id="edge2" class="edge">
<title>b&#45;&gt;c</title>
<path fill="none" stroke="#000000" d="M121,-431.7181C121,-431.7181 121,-424.2631 121,-424.2631"/>
<polygon fill="#000000" stroke="#000000" points="124.5001,-424.2631 121,-414.2631 117.5001,-424.2631 124.5001,-424.2631"/>
</g>
<!-- d -->
<g id="node4" class="node">
<title>d</title>
<polygon fill="none" stroke="#000000" points="165,-360 76,-360 76,-324 165,-324 165,-360"/>
<text text-anchor="middle" x="120.5" y="-338.3" font-family="Times,serif" font-size="14.00" fill="#000000">Linearization</text>
</g>
<!-- c&#45;&gt;d -->
<g id="edge3" class="edge">
<title>c&#45;&gt;d</title>
<path fill="none" stroke="#000000" d="M121,-377.7181C121,-377.7181 121,-370.2631 121,-370.2631"/>
<polygon fill="#000000" stroke="#000000" points="124.5001,-370.2631 121,-360.2631 117.5001,-370.2631 124.5001,-370.2631"/>
</g>
<!-- e -->
<g id="node5" class="node">
<title>e</title>
<polygon fill="none" stroke="#000000" points="196.5,-306 44.5,-306 44.5,-270 196.5,-270 196.5,-306"/>
<text text-anchor="middle" x="120.5" y="-284.3" font-family="Times,serif" font-size="14.00" fill="#000000">Lens Shading Correction</text>
</g>
<!-- d&#45;&gt;e -->
<g id="edge4" class="edge">
<title>d&#45;&gt;e</title>
<path fill="none" stroke="#000000" d="M121,-323.7181C121,-323.7181 121,-316.2631 121,-316.2631"/>
<polygon fill="#000000" stroke="#000000" points="124.5001,-316.2631 121,-306.2631 117.5001,-316.2631 124.5001,-316.2631"/>
</g>
<!-- f -->
<g id="node6" class="node">
<title>f</title>
<polygon fill="none" stroke="#000000" points="241,-252 0,-252 0,-216 241,-216 241,-252"/>
<text text-anchor="middle" x="120.5" y="-230.3" font-family="Times,serif" font-size="14.00" fill="#000000">White Balance / Exposure / Focus Apply</text>
</g>
<!-- e&#45;&gt;f -->
<g id="edge5" class="edge">
<title>e&#45;&gt;f</title>
<path fill="none" stroke="#000000" d="M121,-269.7181C121,-269.7181 121,-262.2631 121,-262.2631"/>
<polygon fill="#000000" stroke="#000000" points="124.5001,-262.2631 121,-252.2631 117.5001,-262.2631 124.5001,-262.2631"/>
</g>
<!-- g -->
<g id="node7" class="node">
<title>g</title>
<polygon fill="none" stroke="#000000" points="192,-198 49,-198 49,-162 192,-162 192,-198"/>
<text text-anchor="middle" x="120.5" y="-176.3" font-family="Times,serif" font-size="14.00" fill="#000000">Bayer Noise Reduction</text>
</g>
<!-- f&#45;&gt;g -->
<g id="edge6" class="edge">
<title>f&#45;&gt;g</title>
<path fill="none" stroke="#000000" d="M121,-215.7181C121,-215.7181 121,-208.2631 121,-208.2631"/>
<polygon fill="#000000" stroke="#000000" points="124.5001,-208.2631 121,-198.2631 117.5001,-208.2631 124.5001,-208.2631"/>
</g>
<!-- h -->
<g id="node8" class="node">
<title>h</title>
<polygon fill="none" stroke="#000000" points="147.5,-144 93.5,-144 93.5,-108 147.5,-108 147.5,-144"/>
<text text-anchor="middle" x="120.5" y="-122.3" font-family="Times,serif" font-size="14.00" fill="#000000">ANR</text>
</g>
<!-- g&#45;&gt;h -->
<g id="edge7" class="edge">
<title>g&#45;&gt;h</title>
<path fill="none" stroke="#000000" d="M121,-161.7181C121,-161.7181 121,-154.2631 121,-154.2631"/>
<polygon fill="#000000" stroke="#000000" points="124.5001,-154.2631 121,-144.2631 117.5001,-154.2631 124.5001,-154.2631"/>
</g>
<!-- i -->
<g id="node9" class="node">
<title>i</title>
<polygon fill="none" stroke="#000000" points="165,-90 76,-90 76,-54 165,-54 165,-90"/>
<text text-anchor="middle" x="120.5" y="-68.3" font-family="Times,serif" font-size="14.00" fill="#000000">Demosaicing</text>
</g>
<!-- h&#45;&gt;i -->
<g id="edge8" class="edge">
<title>h&#45;&gt;i</title>
<path fill="none" stroke="#000000" d="M121,-107.7181C121,-107.7181 121,-100.2631 121,-100.2631"/>
<polygon fill="#000000" stroke="#000000" points="124.5001,-100.2631 121,-90.2631 117.5001,-100.2631 124.5001,-100.2631"/>
</g>
<!-- i&#45;&gt;j -->
<g id="edge19" class="edge">
<title>i&#45;&gt;j</title>
<path fill="none" stroke="#000000" d="M165.0846,-72C205.5726,-72 259,-72 259,-72 259,-72 259,-498 259,-498 259,-498 276.4681,-498 276.4681,-498"/>
<polygon fill="#000000" stroke="#000000" points="276.4682,-501.5001 286.4681,-498 276.4681,-494.5001 276.4682,-501.5001"/>
</g>
<!-- k -->
<g id="node11" class="node">
<title>k</title>
<polygon fill="none" stroke="#000000" points="421,-468 302,-468 302,-432 421,-432 421,-468"/>
<text text-anchor="middle" x="361.5" y="-446.3" font-family="Times,serif" font-size="14.00" fill="#000000">Gamma correction</text>
</g>
<!-- j&#45;&gt;k -->
<g id="edge9" class="edge">
<title>j&#45;&gt;k</title>
<path fill="none" stroke="#000000" d="M362,-485.7181C362,-485.7181 362,-478.2631 362,-478.2631"/>
<polygon fill="#000000" stroke="#000000" points="365.5001,-478.2631 362,-468.2631 358.5001,-478.2631 365.5001,-478.2631"/>
</g>
<!-- l -->
<g id="node12" class="node">
<title>l</title>
<polygon fill="none" stroke="#000000" points="436,-414 287,-414 287,-378 436,-378 436,-414"/>
<text text-anchor="middle" x="361.5" y="-392.3" font-family="Times,serif" font-size="14.00" fill="#000000">Color Space Conversion</text>
</g>
<!-- k&#45;&gt;l -->
<g id="edge10" class="edge">
<title>k&#45;&gt;l</title>
<path fill="none" stroke="#000000" d="M362,-431.7181C362,-431.7181 362,-424.2631 362,-424.2631"/>
<polygon fill="#000000" stroke="#000000" points="365.5001,-424.2631 362,-414.2631 358.5001,-424.2631 365.5001,-424.2631"/>
</g>
<!-- m -->
<g id="node13" class="node">
<title>m</title>
<polygon fill="none" stroke="#000000" points="432.5,-360 290.5,-360 290.5,-324 432.5,-324 432.5,-360"/>
<text text-anchor="middle" x="361.5" y="-338.3" font-family="Times,serif" font-size="14.00" fill="#000000">Chroma Down Scaling</text>
</g>
<!-- l&#45;&gt;m -->
<g id="edge11" class="edge">
<title>l&#45;&gt;m</title>
<path fill="none" stroke="#000000" d="M362,-377.7181C362,-377.7181 362,-370.2631 362,-370.2631"/>
<polygon fill="#000000" stroke="#000000" points="365.5001,-370.2631 362,-360.2631 358.5001,-370.2631 365.5001,-370.2631"/>
</g>
<!-- n -->
<g id="node14" class="node">
<title>n</title>
<polygon fill="none" stroke="#000000" points="446,-306 277,-306 277,-270 446,-270 446,-306"/>
<text text-anchor="middle" x="361.5" y="-284.3" font-family="Times,serif" font-size="14.00" fill="#000000">Chromatic Noise Reduction</text>
</g>
<!-- m&#45;&gt;n -->
<g id="edge12" class="edge">
<title>m&#45;&gt;n</title>
<path fill="none" stroke="#000000" d="M362,-323.7181C362,-323.7181 362,-316.2631 362,-316.2631"/>
<polygon fill="#000000" stroke="#000000" points="365.5001,-316.2631 362,-306.2631 358.5001,-316.2631 365.5001,-316.2631"/>
</g>
<!-- o -->
<g id="node15" class="node">
<title>o</title>
<polygon fill="none" stroke="#000000" points="432,-252 291,-252 291,-216 432,-216 432,-252"/>
<text text-anchor="middle" x="361.5" y="-230.3" font-family="Times,serif" font-size="14.00" fill="#000000">Total Color Correction</text>
</g>
<!-- n&#45;&gt;o -->
<g id="edge13" class="edge">
<title>n&#45;&gt;o</title>
<path fill="none" stroke="#000000" d="M362,-269.7181C362,-269.7181 362,-262.2631 362,-262.2631"/>
<polygon fill="#000000" stroke="#000000" points="365.5001,-262.2631 362,-252.2631 358.5001,-262.2631 365.5001,-262.2631"/>
</g>
<!-- p -->
<g id="node16" class="node">
<title>p</title>
<polygon fill="none" stroke="#000000" points="388.5,-198 334.5,-198 334.5,-162 388.5,-162 388.5,-198"/>
<text text-anchor="middle" x="361.5" y="-176.3" font-family="Times,serif" font-size="14.00" fill="#000000">XNR3</text>
</g>
<!-- o&#45;&gt;p -->
<g id="edge14" class="edge">
<title>o&#45;&gt;p</title>
<path fill="none" stroke="#000000" d="M362,-215.7181C362,-215.7181 362,-208.2631 362,-208.2631"/>
<polygon fill="#000000" stroke="#000000" points="365.5001,-208.2631 362,-198.2631 358.5001,-208.2631 365.5001,-208.2631"/>
</g>
<!-- q -->
<g id="node17" class="node">
<title>q</title>
<polygon fill="none" stroke="#000000" points="388.5,-144 334.5,-144 334.5,-108 388.5,-108 388.5,-144"/>
<text text-anchor="middle" x="361.5" y="-122.3" font-family="Times,serif" font-size="14.00" fill="#000000">TNR</text>
</g>
<!-- p&#45;&gt;q -->
<g id="edge15" class="edge">
<title>p&#45;&gt;q</title>
<path fill="none" stroke="#000000" d="M362,-161.7181C362,-161.7181 362,-154.2631 362,-154.2631"/>
<polygon fill="#000000" stroke="#000000" points="365.5001,-154.2631 362,-144.2631 358.5001,-154.2631 365.5001,-154.2631"/>
</g>
<!-- r -->
<g id="node18" class="node">
<title>r</title>
<path fill="#ffff00" stroke="#000000" d="M536,-140.7273C536,-142.5331 523.8982,-144 509,-144 494.1018,-144 482,-142.5331 482,-140.7273 482,-140.7273 482,-111.2727 482,-111.2727 482,-109.4669 494.1018,-108 509,-108 523.8982,-108 536,-109.4669 536,-111.2727 536,-111.2727 536,-140.7273 536,-140.7273"/>
<path fill="none" stroke="#000000" d="M536,-140.7273C536,-138.9214 523.8982,-137.4545 509,-137.4545 494.1018,-137.4545 482,-138.9214 482,-140.7273"/>
<text text-anchor="middle" x="509" y="-122.3" font-family="Times,serif" font-size="14.00" fill="#000000">DDR</text>
</g>
<!-- q&#45;&gt;r -->
<g id="edge20" class="edge">
<title>q&#45;&gt;r</title>
<path fill="none" stroke="#000000" d="M388.5538,-126C388.5538,-126 471.8684,-126 471.8684,-126"/>
<polygon fill="#000000" stroke="#000000" points="471.8684,-129.5001 481.8684,-126 471.8684,-122.5001 471.8684,-129.5001"/>
</g>
<!-- s -->
<g id="node19" class="node">
<title>s</title>
<polygon fill="none" stroke="#000000" points="422,-90 301,-90 301,-54 422,-54 422,-90"/>
<text text-anchor="middle" x="361.5" y="-68.3" font-family="Times,serif" font-size="14.00" fill="#000000">YUV Downscaling</text>
</g>
<!-- q&#45;&gt;s -->
<g id="edge16" class="edge">
<title>q&#45;&gt;s</title>
<path fill="none" stroke="#000000" d="M362,-107.7181C362,-107.7181 362,-100.2631 362,-100.2631"/>
<polygon fill="#000000" stroke="#000000" points="365.5001,-100.2631 362,-90.2631 358.5001,-100.2631 365.5001,-100.2631"/>
</g>
<!-- t -->
<g id="node20" class="node">
<title>t</title>
<path fill="#ffff00" stroke="#000000" d="M388.5,-32.7273C388.5,-34.5331 376.3982,-36 361.5,-36 346.6018,-36 334.5,-34.5331 334.5,-32.7273 334.5,-32.7273 334.5,-3.2727 334.5,-3.2727 334.5,-1.4669 346.6018,0 361.5,0 376.3982,0 388.5,-1.4669 388.5,-3.2727 388.5,-3.2727 388.5,-32.7273 388.5,-32.7273"/>
<path fill="none" stroke="#000000" d="M388.5,-32.7273C388.5,-30.9214 376.3982,-29.4545 361.5,-29.4545 346.6018,-29.4545 334.5,-30.9214 334.5,-32.7273"/>
<text text-anchor="middle" x="361.5" y="-14.3" font-family="Times,serif" font-size="14.00" fill="#000000">DDR</text>
</g>
<!-- s&#45;&gt;t -->
<g id="edge17" class="edge">
<title>s&#45;&gt;t</title>
<path fill="none" stroke="#000000" d="M362,-53.7181C362,-53.7181 362,-46.2631 362,-46.2631"/>
<polygon fill="#000000" stroke="#000000" points="365.5001,-46.2631 362,-36.2631 358.5001,-46.2631 365.5001,-46.2631"/>
</g>
</g>
</svg>
