<?xml version="1.0" encoding="UTF-8" standalone="no"?>
<!DOCTYPE svg PUBLIC "-//W3C//DTD SVG 1.1//EN"
 "http://www.w3.org/Graphics/SVG/1.1/DTD/svg11.dtd">
<!-- Generated by graphviz version 2.40.1 (20161225.0304)
 -->
<!-- Title: board Pages: 1 -->
<svg width="912pt" height="893pt"
 viewBox="0.00 0.00 911.78 893.00" xmlns="http://www.w3.org/2000/svg" xmlns:xlink="http://www.w3.org/1999/xlink">
<g id="graph0" class="graph" transform="scale(1 1) rotate(0) translate(4 889)">
<title>board</title>
<polygon fill="#ffffff" stroke="transparent" points="-4,4 -4,-889 907.7779,-889 907.7779,4 -4,4"/>
<!-- n00000001 -->
<g id="node1" class="node">
<title>n00000001</title>
<path fill="#00ff00" stroke="#000000" d="M95.2779,-437.5C95.2779,-437.5 181.2779,-437.5 181.2779,-437.5 187.2779,-437.5 193.2779,-443.5 193.2779,-449.5 193.2779,-449.5 193.2779,-509.5 193.2779,-509.5 193.2779,-515.5 187.2779,-521.5 181.2779,-521.5 181.2779,-521.5 95.2779,-521.5 95.2779,-521.5 89.2779,-521.5 83.2779,-515.5 83.2779,-509.5 83.2779,-509.5 83.2779,-449.5 83.2779,-449.5 83.2779,-443.5 89.2779,-437.5 95.2779,-437.5"/>
<text text-anchor="middle" x="138.2779" y="-506.3" font-family="Times,serif" font-size="14.00" fill="#000000">0</text>
<polyline fill="none" stroke="#000000" points="83.2779,-498.5 193.2779,-498.5 "/>
<text text-anchor="middle" x="138.2779" y="-483.3" font-family="Times,serif" font-size="14.00" fill="#000000">ipu1_csi0</text>
<text text-anchor="middle" x="138.2779" y="-468.3" font-family="Times,serif" font-size="14.00" fill="#000000">/dev/v4l&#45;subdev0</text>
<polyline fill="none" stroke="#000000" points="83.2779,-460.5 193.2779,-460.5 "/>
<text text-anchor="middle" x="110.7779" y="-445.3" font-family="Times,serif" font-size="14.00" fill="#000000">1</text>
<polyline fill="none" stroke="#000000" points="138.2779,-437.5 138.2779,-460.5 "/>
<text text-anchor="middle" x="165.7779" y="-445.3" font-family="Times,serif" font-size="14.00" fill="#000000">2</text>
</g>
<!-- n00000005 -->
<g id="node2" class="node">
<title>n00000005</title>
<polygon fill="#ffff00" stroke="#000000" points="137.7779,-377.5 24.7779,-377.5 24.7779,-339.5 137.7779,-339.5 137.7779,-377.5"/>
<text text-anchor="middle" x="81.2779" y="-362.3" font-family="Times,serif" font-size="14.00" fill="#000000">ipu1_csi0 capture</text>
<text text-anchor="middle" x="81.2779" y="-347.3" font-family="Times,serif" font-size="14.00" fill="#000000">/dev/video0</text>
</g>
<!-- n00000001&#45;&gt;n00000005 -->
<g id="edge1" class="edge">
<title>n00000001:port2&#45;&gt;n00000005</title>
<path fill="none" stroke="#000000" stroke-dasharray="5,2" d="M166.2779,-437.5C166.2779,-423.4149 140.9191,-401.1477 117.9037,-383.8387"/>
<polygon fill="#000000" stroke="#000000" points="119.7094,-380.8218 109.5817,-377.7104 115.5586,-386.4584 119.7094,-380.8218"/>
</g>
<!-- n0000000f -->
<g id="node3" class="node">
<title>n0000000f</title>
<path fill="#00ff00" stroke="#000000" d="M168.2779,-195.5C168.2779,-195.5 254.2779,-195.5 254.2779,-195.5 260.2779,-195.5 266.2779,-201.5 266.2779,-207.5 266.2779,-207.5 266.2779,-267.5 266.2779,-267.5 266.2779,-273.5 260.2779,-279.5 254.2779,-279.5 254.2779,-279.5 168.2779,-279.5 168.2779,-279.5 162.2779,-279.5 156.2779,-273.5 156.2779,-267.5 156.2779,-267.5 156.2779,-207.5 156.2779,-207.5 156.2779,-201.5 162.2779,-195.5 168.2779,-195.5"/>
<text text-anchor="middle" x="211.2779" y="-264.3" font-family="Times,serif" font-size="14.00" fill="#000000">0</text>
<polyline fill="none" stroke="#000000" points="156.2779,-256.5 266.2779,-256.5 "/>
<text text-anchor="middle" x="211.2779" y="-241.3" font-family="Times,serif" font-size="14.00" fill="#000000">ipu1_ic_prp</text>
<text text-anchor="middle" x="211.2779" y="-226.3" font-family="Times,serif" font-size="14.00" fill="#000000">/dev/v4l&#45;subdev2</text>
<polyline fill="none" stroke="#000000" points="156.2779,-218.5 266.2779,-218.5 "/>
<text text-anchor="middle" x="183.7779" y="-203.3" font-family="Times,serif" font-size="14.00" fill="#000000">1</text>
<polyline fill="none" stroke="#000000" points="211.2779,-195.5 211.2779,-218.5 "/>
<text text-anchor="middle" x="238.7779" y="-203.3" font-family="Times,serif" font-size="14.00" fill="#000000">2</text>
</g>
<!-- n00000001&#45;&gt;n0000000f -->
<g id="edge2" class="edge">
<title>n00000001:port1&#45;&gt;n0000000f:port0</title>
<path fill="none" stroke="#000000" stroke-dasharray="5,2" d="M83.2779,-448.5C17.0866,-448.5 -23.3392,-369.7588 15.2779,-316 32.8346,-291.5593 107.8455,-272.26 146.1109,-268.9895"/>
<polygon fill="#000000" stroke="#000000" points="146.4578,-272.4769 156.2779,-268.5 146.1211,-265.485 146.4578,-272.4769"/>
</g>
<!-- n0000000b -->
<g id="node4" class="node">
<title>n0000000b</title>
<path fill="#00ff00" stroke="#000000" d="M168.2779,-316.5C168.2779,-316.5 254.2779,-316.5 254.2779,-316.5 260.2779,-316.5 266.2779,-322.5 266.2779,-328.5 266.2779,-328.5 266.2779,-388.5 266.2779,-388.5 266.2779,-394.5 260.2779,-400.5 254.2779,-400.5 254.2779,-400.5 168.2779,-400.5 168.2779,-400.5 162.2779,-400.5 156.2779,-394.5 156.2779,-388.5 156.2779,-388.5 156.2779,-328.5 156.2779,-328.5 156.2779,-322.5 162.2779,-316.5 168.2779,-316.5"/>
<text text-anchor="middle" x="183.7779" y="-385.3" font-family="Times,serif" font-size="14.00" fill="#000000">0</text>
<polyline fill="none" stroke="#000000" points="211.2779,-377.5 211.2779,-400.5 "/>
<text text-anchor="middle" x="238.7779" y="-385.3" font-family="Times,serif" font-size="14.00" fill="#000000">1</text>
<polyline fill="none" stroke="#000000" points="156.2779,-377.5 266.2779,-377.5 "/>
<text text-anchor="middle" x="211.2779" y="-362.3" font-family="Times,serif" font-size="14.00" fill="#000000">ipu1_vdic</text>
<text text-anchor="middle" x="211.2779" y="-347.3" font-family="Times,serif" font-size="14.00" fill="#000000">/dev/v4l&#45;subdev1</text>
<polyline fill="none" stroke="#000000" points="156.2779,-339.5 266.2779,-339.5 "/>
<text text-anchor="middle" x="211.2779" y="-324.3" font-family="Times,serif" font-size="14.00" fill="#000000">2</text>
</g>
<!-- n00000001&#45;&gt;n0000000b -->
<g id="edge3" class="edge">
<title>n00000001:port1&#45;&gt;n0000000b:port0</title>
<path fill="none" stroke="#000000" stroke-dasharray="5,2" d="M110.2779,-437.5C110.2779,-405.2466 167.6756,-429.7003 180.6798,-410.2946"/>
<polygon fill="#000000" stroke="#000000" points="184.0969,-411.0631 183.2779,-400.5 177.3309,-409.2683 184.0969,-411.0631"/>
</g>
<!-- n00000013 -->
<g id="node5" class="node">
<title>n00000013</title>
<path fill="#00ff00" stroke="#000000" d="M96.2779,-74.5C96.2779,-74.5 182.2779,-74.5 182.2779,-74.5 188.2779,-74.5 194.2779,-80.5 194.2779,-86.5 194.2779,-86.5 194.2779,-146.5 194.2779,-146.5 194.2779,-152.5 188.2779,-158.5 182.2779,-158.5 182.2779,-158.5 96.2779,-158.5 96.2779,-158.5 90.2779,-158.5 84.2779,-152.5 84.2779,-146.5 84.2779,-146.5 84.2779,-86.5 84.2779,-86.5 84.2779,-80.5 90.2779,-74.5 96.2779,-74.5"/>
<text text-anchor="middle" x="139.2779" y="-143.3" font-family="Times,serif" font-size="14.00" fill="#000000">0</text>
<polyline fill="none" stroke="#000000" points="84.2779,-135.5 194.2779,-135.5 "/>
<text text-anchor="middle" x="139.2779" y="-120.3" font-family="Times,serif" font-size="14.00" fill="#000000">ipu1_ic_prpenc</text>
<text text-anchor="middle" x="139.2779" y="-105.3" font-family="Times,serif" font-size="14.00" fill="#000000">/dev/v4l&#45;subdev3</text>
<polyline fill="none" stroke="#000000" points="84.2779,-97.5 194.2779,-97.5 "/>
<text text-anchor="middle" x="139.2779" y="-82.3" font-family="Times,serif" font-size="14.00" fill="#000000">1</text>
</g>
<!-- n0000000f&#45;&gt;n00000013 -->
<g id="edge5" class="edge">
<title>n0000000f:port1&#45;&gt;n00000013:port0</title>
<path fill="none" stroke="#000000" stroke-dasharray="5,2" d="M183.2779,-195.5C183.2779,-180.7951 198.1233,-164.1819 201.2276,-154.8628"/>
<polygon fill="#000000" stroke="#000000" points="203.6873,-152.3697 194.2779,-147.5 198.5968,-157.1746 203.6873,-152.3697"/>
</g>
<!-- n0000001c -->
<g id="node6" class="node">
<title>n0000001c</title>
<path fill="#00ff00" stroke="#000000" d="M232.2779,-74.5C232.2779,-74.5 318.2779,-74.5 318.2779,-74.5 324.2779,-74.5 330.2779,-80.5 330.2779,-86.5 330.2779,-86.5 330.2779,-146.5 330.2779,-146.5 330.2779,-152.5 324.2779,-158.5 318.2779,-158.5 318.2779,-158.5 232.2779,-158.5 232.2779,-158.5 226.2779,-158.5 220.2779,-152.5 220.2779,-146.5 220.2779,-146.5 220.2779,-86.5 220.2779,-86.5 220.2779,-80.5 226.2779,-74.5 232.2779,-74.5"/>
<text text-anchor="middle" x="275.2779" y="-143.3" font-family="Times,serif" font-size="14.00" fill="#000000">0</text>
<polyline fill="none" stroke="#000000" points="220.2779,-135.5 330.2779,-135.5 "/>
<text text-anchor="middle" x="275.2779" y="-120.3" font-family="Times,serif" font-size="14.00" fill="#000000">ipu1_ic_prpvf</text>
<text text-anchor="middle" x="275.2779" y="-105.3" font-family="Times,serif" font-size="14.00" fill="#000000">/dev/v4l&#45;subdev4</text>
<polyline fill="none" stroke="#000000" points="220.2779,-97.5 330.2779,-97.5 "/>
<text text-anchor="middle" x="275.2779" y="-82.3" font-family="Times,serif" font-size="14.00" fill="#000000">1</text>
</g>
<!-- n0000000f&#45;&gt;n0000001c -->
<g id="edge6" class="edge">
<title>n0000000f:port2&#45;&gt;n0000001c:port0</title>
<path fill="none" stroke="#000000" stroke-dasharray="5,2" d="M239.2779,-195.5C239.2779,-181.1601 222.8936,-165.9951 216.2069,-156.6379"/>
<polygon fill="#000000" stroke="#000000" points="219.4054,-158.0589 220.2779,-147.5 213.0112,-155.2101 219.4054,-158.0589"/>
</g>
<!-- n0000000b&#45;&gt;n0000000f -->
<g id="edge4" class="edge">
<title>n0000000b:port2&#45;&gt;n0000000f:port0</title>
<path fill="none" stroke="#000000" stroke-dasharray="5,2" d="M211.2779,-316.5C211.2779,-304.0382 211.2779,-298.6592 211.2779,-289.6281"/>
<polygon fill="#000000" stroke="#000000" points="214.778,-289.5 211.2779,-279.5 207.778,-289.5 214.778,-289.5"/>
</g>
<!-- n00000016 -->
<g id="node7" class="node">
<title>n00000016</title>
<polygon fill="#ffff00" stroke="#000000" points="196.2779,-38 52.2779,-38 52.2779,0 196.2779,0 196.2779,-38"/>
<text text-anchor="middle" x="124.2779" y="-22.8" font-family="Times,serif" font-size="14.00" fill="#000000">ipu1_ic_prpenc capture</text>
<text text-anchor="middle" x="124.2779" y="-7.8" font-family="Times,serif" font-size="14.00" fill="#000000">/dev/video1</text>
</g>
<!-- n00000013&#45;&gt;n00000016 -->
<g id="edge7" class="edge">
<title>n00000013:port1&#45;&gt;n00000016</title>
<path fill="none" stroke="#000000" stroke-dasharray="5,2" d="M139.2779,-74.5C139.2779,-65.701 137.4991,-56.3807 135.1667,-47.9414"/>
<polygon fill="#000000" stroke="#000000" points="138.4421,-46.6875 132.1294,-38.1787 131.7581,-48.767 138.4421,-46.6875"/>
</g>
<!-- n0000001f -->
<g id="node8" class="node">
<title>n0000001f</title>
<polygon fill="#ffff00" stroke="#000000" points="351.7779,-38 214.7779,-38 214.7779,0 351.7779,0 351.7779,-38"/>
<text text-anchor="middle" x="283.2779" y="-22.8" font-family="Times,serif" font-size="14.00" fill="#000000">ipu1_ic_prpvf capture</text>
<text text-anchor="middle" x="283.2779" y="-7.8" font-family="Times,serif" font-size="14.00" fill="#000000">/dev/video2</text>
</g>
<!-- n0000001c&#45;&gt;n0000001f -->
<g id="edge8" class="edge">
<title>n0000001c:port1&#45;&gt;n0000001f</title>
<path fill="none" stroke="#000000" stroke-dasharray="5,2" d="M275.2779,-74.5C275.2779,-65.9438 276.2209,-56.7209 277.4593,-48.2976"/>
<polygon fill="#000000" stroke="#000000" points="280.9562,-48.6035 279.1373,-38.166 274.0503,-47.4597 280.9562,-48.6035"/>
</g>
<!-- n0000002f -->
<g id="node9" class="node">
<title>n0000002f</title>
<path fill="#00ff00" stroke="#000000" d="M293.2779,-437.5C293.2779,-437.5 379.2779,-437.5 379.2779,-437.5 385.2779,-437.5 391.2779,-443.5 391.2779,-449.5 391.2779,-449.5 391.2779,-509.5 391.2779,-509.5 391.2779,-515.5 385.2779,-521.5 379.2779,-521.5 379.2779,-521.5 293.2779,-521.5 293.2779,-521.5 287.2779,-521.5 281.2779,-515.5 281.2779,-509.5 281.2779,-509.5 281.2779,-449.5 281.2779,-449.5 281.2779,-443.5 287.2779,-437.5 293.2779,-437.5"/>
<text text-anchor="middle" x="336.2779" y="-506.3" font-family="Times,serif" font-size="14.00" fill="#000000">0</text>
<polyline fill="none" stroke="#000000" points="281.2779,-498.5 391.2779,-498.5 "/>
<text text-anchor="middle" x="336.2779" y="-483.3" font-family="Times,serif" font-size="14.00" fill="#000000">ipu1_csi1</text>
<text text-anchor="middle" x="336.2779" y="-468.3" font-family="Times,serif" font-size="14.00" fill="#000000">/dev/v4l&#45;subdev5</text>
<polyline fill="none" stroke="#000000" points="281.2779,-460.5 391.2779,-460.5 "/>
<text text-anchor="middle" x="308.7779" y="-445.3" font-family="Times,serif" font-size="14.00" fill="#000000">1</text>
<polyline fill="none" stroke="#000000" points="336.2779,-437.5 336.2779,-460.5 "/>
<text text-anchor="middle" x="363.7779" y="-445.3" font-family="Times,serif" font-size="14.00" fill="#000000">2</text>
</g>
<!-- n0000002f&#45;&gt;n0000000f -->
<g id="edge10" class="edge">
<title>n0000002f:port1&#45;&gt;n0000000f:port0</title>
<path fill="none" stroke="#000000" stroke-dasharray="5,2" d="M308.2779,-437.5C308.2779,-402.2788 305.5425,-291.1742 275.8744,-271.4944"/>
<polygon fill="#000000" stroke="#000000" points="276.8665,-268.1377 266.2779,-268.5 274.7814,-274.8199 276.8665,-268.1377"/>
</g>
<!-- n0000002f&#45;&gt;n0000000b -->
<g id="edge11" class="edge">
<title>n0000002f:port1&#45;&gt;n0000000b:port0</title>
<path fill="none" stroke="#000000" stroke-dasharray="5,2" d="M281.2779,-448.5C260.2488,-448.5 201.9947,-430.6395 186.8918,-410.0811"/>
<polygon fill="#000000" stroke="#000000" points="190.082,-408.6213 183.2779,-400.5 183.5324,-411.0918 190.082,-408.6213"/>
</g>
<!-- n00000033 -->
<g id="node10" class="node">
<title>n00000033</title>
<polygon fill="#ffff00" stroke="#000000" points="435.7779,-377.5 322.7779,-377.5 322.7779,-339.5 435.7779,-339.5 435.7779,-377.5"/>
<text text-anchor="middle" x="379.2779" y="-362.3" font-family="Times,serif" font-size="14.00" fill="#000000">ipu1_csi1 capture</text>
<text text-anchor="middle" x="379.2779" y="-347.3" font-family="Times,serif" font-size="14.00" fill="#000000">/dev/video3</text>
</g>
<!-- n0000002f&#45;&gt;n00000033 -->
<g id="edge9" class="edge">
<title>n0000002f:port2&#45;&gt;n00000033</title>
<path fill="none" stroke="#000000" stroke-dasharray="5,2" d="M364.2779,-437.5C364.2779,-420.8741 367.5242,-402.6201 370.9964,-387.851"/>
<polygon fill="#000000" stroke="#000000" points="374.4829,-388.3369 373.5214,-377.7857 367.6933,-386.6335 374.4829,-388.3369"/>
</g>
<!-- n0000003d -->
<g id="node11" class="node">
<title>n0000003d</title>
<path fill="#00ff00" stroke="#000000" d="M463.2779,-437.5C463.2779,-437.5 549.2779,-437.5 549.2779,-437.5 555.2779,-437.5 561.2779,-443.5 561.2779,-449.5 561.2779,-449.5 561.2779,-509.5 561.2779,-509.5 561.2779,-515.5 555.2779,-521.5 549.2779,-521.5 549.2779,-521.5 463.2779,-521.5 463.2779,-521.5 457.2779,-521.5 451.2779,-515.5 451.2779,-509.5 451.2779,-509.5 451.2779,-449.5 451.2779,-449.5 451.2779,-443.5 457.2779,-437.5 463.2779,-437.5"/>
<text text-anchor="middle" x="506.2779" y="-506.3" font-family="Times,serif" font-size="14.00" fill="#000000">0</text>
<polyline fill="none" stroke="#000000" points="451.2779,-498.5 561.2779,-498.5 "/>
<text text-anchor="middle" x="506.2779" y="-483.3" font-family="Times,serif" font-size="14.00" fill="#000000">ipu2_csi0</text>
<text text-anchor="middle" x="506.2779" y="-468.3" font-family="Times,serif" font-size="14.00" fill="#000000">/dev/v4l&#45;subdev6</text>
<polyline fill="none" stroke="#000000" points="451.2779,-460.5 561.2779,-460.5 "/>
<text text-anchor="middle" x="478.7779" y="-445.3" font-family="Times,serif" font-size="14.00" fill="#000000">1</text>
<polyline fill="none" stroke="#000000" points="506.2779,-437.5 506.2779,-460.5 "/>
<text text-anchor="middle" x="533.7779" y="-445.3" font-family="Times,serif" font-size="14.00" fill="#000000">2</text>
</g>
<!-- n00000041 -->
<g id="node12" class="node">
<title>n00000041</title>
<polygon fill="#ffff00" stroke="#000000" points="605.7779,-377.5 492.7779,-377.5 492.7779,-339.5 605.7779,-339.5 605.7779,-377.5"/>
<text text-anchor="middle" x="549.2779" y="-362.3" font-family="Times,serif" font-size="14.00" fill="#000000">ipu2_csi0 capture</text>
<text text-anchor="middle" x="549.2779" y="-347.3" font-family="Times,serif" font-size="14.00" fill="#000000">/dev/video4</text>
</g>
<!-- n0000003d&#45;&gt;n00000041 -->
<g id="edge12" class="edge">
<title>n0000003d:port2&#45;&gt;n00000041</title>
<path fill="none" stroke="#000000" stroke-dasharray="5,2" d="M534.2779,-437.5C534.2779,-420.8741 537.5242,-402.6201 540.9964,-387.851"/>
<polygon fill="#000000" stroke="#000000" points="544.4829,-388.3369 543.5214,-377.7857 537.6933,-386.6335 544.4829,-388.3369"/>
</g>
<!-- n0000004b -->
<g id="node13" class="node">
<title>n0000004b</title>
<path fill="#00ff00" stroke="#000000" d="M636.2779,-195.5C636.2779,-195.5 722.2779,-195.5 722.2779,-195.5 728.2779,-195.5 734.2779,-201.5 734.2779,-207.5 734.2779,-207.5 734.2779,-267.5 734.2779,-267.5 734.2779,-273.5 728.2779,-279.5 722.2779,-279.5 722.2779,-279.5 636.2779,-279.5 636.2779,-279.5 630.2779,-279.5 624.2779,-273.5 624.2779,-267.5 624.2779,-267.5 624.2779,-207.5 624.2779,-207.5 624.2779,-201.5 630.2779,-195.5 636.2779,-195.5"/>
<text text-anchor="middle" x="679.2779" y="-264.3" font-family="Times,serif" font-size="14.00" fill="#000000">0</text>
<polyline fill="none" stroke="#000000" points="624.2779,-256.5 734.2779,-256.5 "/>
<text text-anchor="middle" x="679.2779" y="-241.3" font-family="Times,serif" font-size="14.00" fill="#000000">ipu2_ic_prp</text>
<text text-anchor="middle" x="679.2779" y="-226.3" font-family="Times,serif" font-size="14.00" fill="#000000">/dev/v4l&#45;subdev8</text>
<polyline fill="none" stroke="#000000" points="624.2779,-218.5 734.2779,-218.5 "/>
<text text-anchor="middle" x="651.7779" y="-203.3" font-family="Times,serif" font-size="14.00" fill="#000000">1</text>
<polyline fill="none" stroke="#000000" points="679.2779,-195.5 679.2779,-218.5 "/>
<text text-anchor="middle" x="706.7779" y="-203.3" font-family="Times,serif" font-size="14.00" fill="#000000">2</text>
</g>
<!-- n0000003d&#45;&gt;n0000004b -->
<g id="edge13" class="edge">
<title>n0000003d:port1&#45;&gt;n0000004b:port0</title>
<path fill="none" stroke="#000000" stroke-dasharray="5,2" d="M478.2779,-437.5C478.2779,-383.4342 451.708,-359.1545 484.2779,-316 502.2909,-292.1332 576.2735,-272.3632 614.1917,-269.0034"/>
<polygon fill="#000000" stroke="#000000" points="614.4648,-272.4942 624.2779,-268.5 614.1158,-265.5029 614.4648,-272.4942"/>
</g>
<!-- n00000047 -->
<g id="node14" class="node">
<title>n00000047</title>
<path fill="#00ff00" stroke="#000000" d="M636.2779,-316.5C636.2779,-316.5 722.2779,-316.5 722.2779,-316.5 728.2779,-316.5 734.2779,-322.5 734.2779,-328.5 734.2779,-328.5 734.2779,-388.5 734.2779,-388.5 734.2779,-394.5 728.2779,-400.5 722.2779,-400.5 722.2779,-400.5 636.2779,-400.5 636.2779,-400.5 630.2779,-400.5 624.2779,-394.5 624.2779,-388.5 624.2779,-388.5 624.2779,-328.5 624.2779,-328.5 624.2779,-322.5 630.2779,-316.5 636.2779,-316.5"/>
<text text-anchor="middle" x="651.7779" y="-385.3" font-family="Times,serif" font-size="14.00" fill="#000000">0</text>
<polyline fill="none" stroke="#000000" points="679.2779,-377.5 679.2779,-400.5 "/>
<text text-anchor="middle" x="706.7779" y="-385.3" font-family="Times,serif" font-size="14.00" fill="#000000">1</text>
<polyline fill="none" stroke="#000000" points="624.2779,-377.5 734.2779,-377.5 "/>
<text text-anchor="middle" x="679.2779" y="-362.3" font-family="Times,serif" font-size="14.00" fill="#000000">ipu2_vdic</text>
<text text-anchor="middle" x="679.2779" y="-347.3" font-family="Times,serif" font-size="14.00" fill="#000000">/dev/v4l&#45;subdev7</text>
<polyline fill="none" stroke="#000000" points="624.2779,-339.5 734.2779,-339.5 "/>
<text text-anchor="middle" x="679.2779" y="-324.3" font-family="Times,serif" font-size="14.00" fill="#000000">2</text>
</g>
<!-- n0000003d&#45;&gt;n00000047 -->
<g id="edge14" class="edge">
<title>n0000003d:port1&#45;&gt;n00000047:port0</title>
<path fill="none" stroke="#000000" stroke-dasharray="5,2" d="M478.2779,-437.5C478.2779,-374.4872 562.6934,-435.7201 615.2779,-401 616.6319,-400.106 617.4658,-398.9402 618.0564,-397.6944"/>
<polygon fill="#000000" stroke="#000000" points="621.0185,-399.581 624.2779,-389.5 615.4433,-395.3481 621.0185,-399.581"/>
</g>
<!-- n0000004f -->
<g id="node15" class="node">
<title>n0000004f</title>
<path fill="#00ff00" stroke="#000000" d="M564.2779,-74.5C564.2779,-74.5 650.2779,-74.5 650.2779,-74.5 656.2779,-74.5 662.2779,-80.5 662.2779,-86.5 662.2779,-86.5 662.2779,-146.5 662.2779,-146.5 662.2779,-152.5 656.2779,-158.5 650.2779,-158.5 650.2779,-158.5 564.2779,-158.5 564.2779,-158.5 558.2779,-158.5 552.2779,-152.5 552.2779,-146.5 552.2779,-146.5 552.2779,-86.5 552.2779,-86.5 552.2779,-80.5 558.2779,-74.5 564.2779,-74.5"/>
<text text-anchor="middle" x="607.2779" y="-143.3" font-family="Times,serif" font-size="14.00" fill="#000000">0</text>
<polyline fill="none" stroke="#000000" points="552.2779,-135.5 662.2779,-135.5 "/>
<text text-anchor="middle" x="607.2779" y="-120.3" font-family="Times,serif" font-size="14.00" fill="#000000">ipu2_ic_prpenc</text>
<text text-anchor="middle" x="607.2779" y="-105.3" font-family="Times,serif" font-size="14.00" fill="#000000">/dev/v4l&#45;subdev9</text>
<polyline fill="none" stroke="#000000" points="552.2779,-97.5 662.2779,-97.5 "/>
<text text-anchor="middle" x="607.2779" y="-82.3" font-family="Times,serif" font-size="14.00" fill="#000000">1</text>
</g>
<!-- n0000004b&#45;&gt;n0000004f -->
<g id="edge16" class="edge">
<title>n0000004b:port1&#45;&gt;n0000004f:port0</title>
<path fill="none" stroke="#000000" stroke-dasharray="5,2" d="M651.2779,-195.5C651.2779,-180.7951 666.1233,-164.1819 669.2276,-154.8628"/>
<polygon fill="#000000" stroke="#000000" points="671.6873,-152.3697 662.2779,-147.5 666.5968,-157.1746 671.6873,-152.3697"/>
</g>
<!-- n00000058 -->
<g id="node16" class="node">
<title>n00000058</title>
<path fill="#00ff00" stroke="#000000" d="M705.7779,-74.5C705.7779,-74.5 798.7779,-74.5 798.7779,-74.5 804.7779,-74.5 810.7779,-80.5 810.7779,-86.5 810.7779,-86.5 810.7779,-146.5 810.7779,-146.5 810.7779,-152.5 804.7779,-158.5 798.7779,-158.5 798.7779,-158.5 705.7779,-158.5 705.7779,-158.5 699.7779,-158.5 693.7779,-152.5 693.7779,-146.5 693.7779,-146.5 693.7779,-86.5 693.7779,-86.5 693.7779,-80.5 699.7779,-74.5 705.7779,-74.5"/>
<text text-anchor="middle" x="752.2779" y="-143.3" font-family="Times,serif" font-size="14.00" fill="#000000">0</text>
<polyline fill="none" stroke="#000000" points="693.7779,-135.5 810.7779,-135.5 "/>
<text text-anchor="middle" x="752.2779" y="-120.3" font-family="Times,serif" font-size="14.00" fill="#000000">ipu2_ic_prpvf</text>
<text text-anchor="middle" x="752.2779" y="-105.3" font-family="Times,serif" font-size="14.00" fill="#000000">/dev/v4l&#45;subdev10</text>
<polyline fill="none" stroke="#000000" points="693.7779,-97.5 810.7779,-97.5 "/>
<text text-anchor="middle" x="752.2779" y="-82.3" font-family="Times,serif" font-size="14.00" fill="#000000">1</text>
</g>
<!-- n0000004b&#45;&gt;n00000058 -->
<g id="edge17" class="edge">
<title>n0000004b:port2&#45;&gt;n00000058:port0</title>
<path fill="none" stroke="#000000" stroke-dasharray="5,2" d="M707.2779,-195.5C707.2779,-181.0903 692.0475,-165.1855 687.3975,-155.7835"/>
<polygon fill="#000000" stroke="#000000" points="690.3432,-157.6803 693.2779,-147.5 684.6352,-153.6282 690.3432,-157.6803"/>
</g>
<!-- n00000047&#45;&gt;n0000004b -->
<g id="edge15" class="edge">
<title>n00000047:port2&#45;&gt;n0000004b:port0</title>
<path fill="none" stroke="#000000" stroke-dasharray="5,2" d="M679.2779,-316.5C679.2779,-304.0382 679.2779,-298.6592 679.2779,-289.6281"/>
<polygon fill="#000000" stroke="#000000" points="682.778,-289.5 679.2779,-279.5 675.778,-289.5 682.778,-289.5"/>
</g>
<!-- n00000052 -->
<g id="node17" class="node">
<title>n00000052</title>
<polygon fill="#ffff00" stroke="#000000" points="672.2779,-38 528.2779,-38 528.2779,0 672.2779,0 672.2779,-38"/>
<text text-anchor="middle" x="600.2779" y="-22.8" font-family="Times,serif" font-size="14.00" fill="#000000">ipu2_ic_prpenc capture</text>
<text text-anchor="middle" x="600.2779" y="-7.8" font-family="Times,serif" font-size="14.00" fill="#000000">/dev/video5</text>
</g>
<!-- n0000004f&#45;&gt;n00000052 -->
<g id="edge18" class="edge">
<title>n0000004f:port1&#45;&gt;n00000052</title>
<path fill="none" stroke="#000000" stroke-dasharray="5,2" d="M607.2779,-74.5C607.2779,-65.9643 606.4528,-56.7478 605.3692,-48.324"/>
<polygon fill="#000000" stroke="#000000" points="608.7986,-47.5837 603.9009,-38.1889 601.8709,-48.5874 608.7986,-47.5837"/>
</g>
<!-- n0000005b -->
<g id="node18" class="node">
<title>n0000005b</title>
<polygon fill="#ffff00" stroke="#000000" points="827.7779,-38 690.7779,-38 690.7779,0 827.7779,0 827.7779,-38"/>
<text text-anchor="middle" x="759.2779" y="-22.8" font-family="Times,serif" font-size="14.00" fill="#000000">ipu2_ic_prpvf capture</text>
<text text-anchor="middle" x="759.2779" y="-7.8" font-family="Times,serif" font-size="14.00" fill="#000000">/dev/video6</text>
</g>
<!-- n00000058&#45;&gt;n0000005b -->
<g id="edge19" class="edge">
<title>n00000058:port1&#45;&gt;n0000005b</title>
<path fill="none" stroke="#000000" stroke-dasharray="5,2" d="M752.2779,-74.5C752.2779,-65.9643 753.103,-56.7478 754.1866,-48.324"/>
<polygon fill="#000000" stroke="#000000" points="757.6849,-48.5874 755.6549,-38.1889 750.7573,-47.5837 757.6849,-48.5874"/>
</g>
<!-- n0000006b -->
<g id="node19" class="node">
<title>n0000006b</title>
<path fill="#00ff00" stroke="#000000" d="M689.7779,-437.5C689.7779,-437.5 782.7779,-437.5 782.7779,-437.5 788.7779,-437.5 794.7779,-443.5 794.7779,-449.5 794.7779,-449.5 794.7779,-509.5 794.7779,-509.5 794.7779,-515.5 788.7779,-521.5 782.7779,-521.5 782.7779,-521.5 689.7779,-521.5 689.7779,-521.5 683.7779,-521.5 677.7779,-515.5 677.7779,-509.5 677.7779,-509.5 677.7779,-449.5 677.7779,-449.5 677.7779,-443.5 683.7779,-437.5 689.7779,-437.5"/>
<text text-anchor="middle" x="736.2779" y="-506.3" font-family="Times,serif" font-size="14.00" fill="#000000">0</text>
<polyline fill="none" stroke="#000000" points="677.7779,-498.5 794.7779,-498.5 "/>
<text text-anchor="middle" x="736.2779" y="-483.3" font-family="Times,serif" font-size="14.00" fill="#000000">ipu2_csi1</text>
<text text-anchor="middle" x="736.2779" y="-468.3" font-family="Times,serif" font-size="14.00" fill="#000000">/dev/v4l&#45;subdev11</text>
<polyline fill="none" stroke="#000000" points="677.7779,-460.5 794.7779,-460.5 "/>
<text text-anchor="middle" x="706.7779" y="-445.3" font-family="Times,serif" font-size="14.00" fill="#000000">1</text>
<polyline fill="none" stroke="#000000" points="735.7779,-437.5 735.7779,-460.5 "/>
<text text-anchor="middle" x="765.2779" y="-445.3" font-family="Times,serif" font-size="14.00" fill="#000000">2</text>
</g>
<!-- n0000006b&#45;&gt;n0000004b -->
<g id="edge21" class="edge">
<title>n0000006b:port1&#45;&gt;n0000004b:port0</title>
<path fill="none" stroke="#000000" stroke-dasharray="5,2" d="M706.2779,-437.5C706.2779,-414.4006 734.3656,-422.3108 743.2779,-401 764.6277,-349.9489 789.9135,-278.1635 744.3561,-269.3898"/>
<polygon fill="#000000" stroke="#000000" points="744.547,-265.8931 734.2779,-268.5 743.9313,-272.866 744.547,-265.8931"/>
</g>
<!-- n0000006b&#45;&gt;n00000047 -->
<g id="edge22" class="edge">
<title>n0000006b:port1&#45;&gt;n00000047:port0</title>
<path fill="none" stroke="#000000" stroke-dasharray="5,2" d="M706.2779,-437.5C706.2779,-412.182 665.659,-424.8116 654.2349,-410.1663"/>
<polygon fill="#000000" stroke="#000000" points="657.5502,-409.0387 651.2779,-400.5 650.8564,-411.0864 657.5502,-409.0387"/>
</g>
<!-- n0000006f -->
<g id="node20" class="node">
<title>n0000006f</title>
<polygon fill="#ffff00" stroke="#000000" points="903.7779,-377.5 790.7779,-377.5 790.7779,-339.5 903.7779,-339.5 903.7779,-377.5"/>
<text text-anchor="middle" x="847.2779" y="-362.3" font-family="Times,serif" font-size="14.00" fill="#000000">ipu2_csi1 capture</text>
<text text-anchor="middle" x="847.2779" y="-347.3" font-family="Times,serif" font-size="14.00" fill="#000000">/dev/video7</text>
</g>
<!-- n0000006b&#45;&gt;n0000006f -->
<g id="edge20" class="edge">
<title>n0000006b:port2&#45;&gt;n0000006f</title>
<path fill="none" stroke="#000000" stroke-dasharray="5,2" d="M795.2779,-448.5C823.9534,-448.5 837.0653,-413.8228 842.8864,-387.5185"/>
<polygon fill="#000000" stroke="#000000" points="846.3441,-388.074 844.8384,-377.5867 839.4755,-386.7239 846.3441,-388.074"/>
</g>
<!-- n00000079 -->
<g id="node21" class="node">
<title>n00000079</title>
<path fill="#00ff00" stroke="#000000" d="M367.7779,-679.5C367.7779,-679.5 460.7779,-679.5 460.7779,-679.5 466.7779,-679.5 472.7779,-685.5 472.7779,-691.5 472.7779,-691.5 472.7779,-751.5 472.7779,-751.5 472.7779,-757.5 466.7779,-763.5 460.7779,-763.5 460.7779,-763.5 367.7779,-763.5 367.7779,-763.5 361.7779,-763.5 355.7779,-757.5 355.7779,-751.5 355.7779,-751.5 355.7779,-691.5 355.7779,-691.5 355.7779,-685.5 361.7779,-679.5 367.7779,-679.5"/>
<text text-anchor="middle" x="414.2779" y="-748.3" font-family="Times,serif" font-size="14.00" fill="#000000">0</text>
<polyline fill="none" stroke="#000000" points="355.7779,-740.5 472.7779,-740.5 "/>
<text text-anchor="middle" x="414.2779" y="-725.3" font-family="Times,serif" font-size="14.00" fill="#000000">imx6&#45;mipi&#45;csi2</text>
<text text-anchor="middle" x="414.2779" y="-710.3" font-family="Times,serif" font-size="14.00" fill="#000000">/dev/v4l&#45;subdev12</text>
<polyline fill="none" stroke="#000000" points="355.7779,-702.5 472.7779,-702.5 "/>
<text text-anchor="middle" x="370.2779" y="-687.3" font-family="Times,serif" font-size="14.00" fill="#000000">1</text>
<polyline fill="none" stroke="#000000" points="384.7779,-679.5 384.7779,-702.5 "/>
<text text-anchor="middle" x="399.2779" y="-687.3" font-family="Times,serif" font-size="14.00" fill="#000000">2</text>
<polyline fill="none" stroke="#000000" points="413.7779,-679.5 413.7779,-702.5 "/>
<text text-anchor="middle" x="428.2779" y="-687.3" font-family="Times,serif" font-size="14.00" fill="#000000">3</text>
<polyline fill="none" stroke="#000000" points="442.7779,-679.5 442.7779,-702.5 "/>
<text text-anchor="middle" x="457.7779" y="-687.3" font-family="Times,serif" font-size="14.00" fill="#000000">4</text>
</g>
<!-- n00000079&#45;&gt;n0000002f -->
<g id="edge23" class="edge">
<title>n00000079:port2&#45;&gt;n0000002f:port0</title>
<path fill="none" stroke="#000000" stroke-dasharray="5,2" d="M399.2779,-679.5C399.2779,-607.445 342.0457,-597.8876 336.6802,-531.6917"/>
<polygon fill="#000000" stroke="#000000" points="340.1697,-531.3541 336.2779,-521.5 333.1752,-531.6303 340.1697,-531.3541"/>
</g>
<!-- n00000079&#45;&gt;n0000003d -->
<g id="edge24" class="edge">
<title>n00000079:port3&#45;&gt;n0000003d:port0</title>
<path fill="none" stroke="#000000" stroke-dasharray="5,2" d="M428.2779,-679.5C428.2779,-604.7049 499.4275,-600.0918 505.8198,-531.6021"/>
<polygon fill="#000000" stroke="#000000" points="509.3213,-531.6483 506.2779,-521.5 502.3284,-531.3312 509.3213,-531.6483"/>
</g>
<!-- n0000007f -->
<g id="node22" class="node">
<title>n0000007f</title>
<path fill="#00ff00" stroke="#000000" d="M208.7779,-558.5C208.7779,-558.5 301.7779,-558.5 301.7779,-558.5 307.7779,-558.5 313.7779,-564.5 313.7779,-570.5 313.7779,-570.5 313.7779,-630.5 313.7779,-630.5 313.7779,-636.5 307.7779,-642.5 301.7779,-642.5 301.7779,-642.5 208.7779,-642.5 208.7779,-642.5 202.7779,-642.5 196.7779,-636.5 196.7779,-630.5 196.7779,-630.5 196.7779,-570.5 196.7779,-570.5 196.7779,-564.5 202.7779,-558.5 208.7779,-558.5"/>
<text text-anchor="middle" x="225.7779" y="-627.3" font-family="Times,serif" font-size="14.00" fill="#000000">0</text>
<polyline fill="none" stroke="#000000" points="254.7779,-619.5 254.7779,-642.5 "/>
<text text-anchor="middle" x="284.2779" y="-627.3" font-family="Times,serif" font-size="14.00" fill="#000000">1</text>
<polyline fill="none" stroke="#000000" points="196.7779,-619.5 313.7779,-619.5 "/>
<text text-anchor="middle" x="255.2779" y="-604.3" font-family="Times,serif" font-size="14.00" fill="#000000">ipu1_csi0_mux</text>
<text text-anchor="middle" x="255.2779" y="-589.3" font-family="Times,serif" font-size="14.00" fill="#000000">/dev/v4l&#45;subdev13</text>
<polyline fill="none" stroke="#000000" points="196.7779,-581.5 313.7779,-581.5 "/>
<text text-anchor="middle" x="255.2779" y="-566.3" font-family="Times,serif" font-size="14.00" fill="#000000">2</text>
</g>
<!-- n00000079&#45;&gt;n0000007f -->
<g id="edge25" class="edge">
<title>n00000079:port1&#45;&gt;n0000007f:port0</title>
<path fill="none" stroke="#000000" stroke-dasharray="5,2" d="M355.2779,-690.5C327.8509,-690.5 246.1606,-676.8529 228.6189,-652.1122"/>
<polygon fill="#000000" stroke="#000000" points="231.8671,-650.7966 225.2779,-642.5 225.2551,-653.0948 231.8671,-650.7966"/>
</g>
<!-- n00000083 -->
<g id="node23" class="node">
<title>n00000083</title>
<path fill="#00ff00" stroke="#000000" d="M590.7779,-558.5C590.7779,-558.5 683.7779,-558.5 683.7779,-558.5 689.7779,-558.5 695.7779,-564.5 695.7779,-570.5 695.7779,-570.5 695.7779,-630.5 695.7779,-630.5 695.7779,-636.5 689.7779,-642.5 683.7779,-642.5 683.7779,-642.5 590.7779,-642.5 590.7779,-642.5 584.7779,-642.5 578.7779,-636.5 578.7779,-630.5 578.7779,-630.5 578.7779,-570.5 578.7779,-570.5 578.7779,-564.5 584.7779,-558.5 590.7779,-558.5"/>
<text text-anchor="middle" x="607.7779" y="-627.3" font-family="Times,serif" font-size="14.00" fill="#000000">0</text>
<polyline fill="none" stroke="#000000" points="636.7779,-619.5 636.7779,-642.5 "/>
<text text-anchor="middle" x="666.2779" y="-627.3" font-family="Times,serif" font-size="14.00" fill="#000000">1</text>
<polyline fill="none" stroke="#000000" points="578.7779,-619.5 695.7779,-619.5 "/>
<text text-anchor="middle" x="637.2779" y="-604.3" font-family="Times,serif" font-size="14.00" fill="#000000">ipu2_csi1_mux</text>
<text text-anchor="middle" x="637.2779" y="-589.3" font-family="Times,serif" font-size="14.00" fill="#000000">/dev/v4l&#45;subdev14</text>
<polyline fill="none" stroke="#000000" points="578.7779,-581.5 695.7779,-581.5 "/>
<text text-anchor="middle" x="637.2779" y="-566.3" font-family="Times,serif" font-size="14.00" fill="#000000">2</text>
</g>
<!-- n00000079&#45;&gt;n00000083 -->
<g id="edge26" class="edge">
<title>n00000079:port4&#45;&gt;n00000083:port0</title>
<path fill="none" stroke="#000000" stroke-dasharray="5,2" d="M473.2779,-690.5C523.1479,-690.5 524.7703,-639.2907 568.044,-632.2894"/>
<polygon fill="#000000" stroke="#000000" points="568.5767,-635.7588 578.2779,-631.5 568.0383,-628.7796 568.5767,-635.7588"/>
</g>
<!-- n0000007f&#45;&gt;n00000001 -->
<g id="edge27" class="edge">
<title>n0000007f:port2&#45;&gt;n00000001:port0</title>
<path fill="none" stroke="#000000" stroke-dasharray="5,2" d="M196.2779,-569.5C175.3551,-569.5 202.5459,-532.0344 201.1692,-516.814"/>
<polygon fill="#000000" stroke="#000000" points="203.2728,-514.0147 193.2779,-510.5 198.8995,-519.4805 203.2728,-514.0147"/>
</g>
<!-- n00000083&#45;&gt;n0000006b -->
<g id="edge28" class="edge">
<title>n00000083:port2&#45;&gt;n0000006b:port0</title>
<path fill="none" stroke="#000000" stroke-dasharray="5,2" d="M696.2779,-569.5C717.1544,-569.5 679.6582,-535.6175 672.2604,-519.2057"/>
<polygon fill="#000000" stroke="#000000" points="675.3167,-520.9118 677.2779,-510.5 669.2519,-517.4163 675.3167,-520.9118"/>
</g>
<!-- n00000087 -->
<g id="node24" class="node">
<title>n00000087</title>
<path fill="#00ff00" stroke="#000000" d="M367.7779,-800.5C367.7779,-800.5 460.7779,-800.5 460.7779,-800.5 466.7779,-800.5 472.7779,-806.5 472.7779,-812.5 472.7779,-812.5 472.7779,-872.5 472.7779,-872.5 472.7779,-878.5 466.7779,-884.5 460.7779,-884.5 460.7779,-884.5 367.7779,-884.5 367.7779,-884.5 361.7779,-884.5 355.7779,-878.5 355.7779,-872.5 355.7779,-872.5 355.7779,-812.5 355.7779,-812.5 355.7779,-806.5 361.7779,-800.5 367.7779,-800.5"/>
<text text-anchor="middle" x="414.2779" y="-869.3" font-family="Times,serif" font-size="14.00" fill="#000000"> </text>
<polyline fill="none" stroke="#000000" points="355.7779,-861.5 472.7779,-861.5 "/>
<text text-anchor="middle" x="414.2779" y="-846.3" font-family="Times,serif" font-size="14.00" fill="#000000">ov5640 1&#45;003c</text>
<text text-anchor="middle" x="414.2779" y="-831.3" font-family="Times,serif" font-size="14.00" fill="#000000">/dev/v4l&#45;subdev15</text>
<polyline fill="none" stroke="#000000" points="355.7779,-823.5 472.7779,-823.5 "/>
<text text-anchor="middle" x="414.2779" y="-808.3" font-family="Times,serif" font-size="14.00" fill="#000000">0</text>
</g>
<!-- n00000087&#45;&gt;n00000079 -->
<g id="edge29" class="edge">
<title>n00000087:port0&#45;&gt;n00000079:port0</title>
<path fill="none" stroke="#000000" stroke-dasharray="5,2" d="M414.2779,-800.5C414.2779,-788.0382 414.2779,-782.6592 414.2779,-773.6281"/>
<polygon fill="#000000" stroke="#000000" points="417.778,-773.5 414.2779,-763.5 410.778,-773.5 417.778,-773.5"/>
</g>
</g>
</svg>
