<?xml version="1.0" encoding="UTF-8" standalone="no"?>
<!DOCTYPE svg PUBLIC "-//W3C//DTD SVG 1.1//EN"
 "http://www.w3.org/Graphics/SVG/1.1/DTD/svg11.dtd">
<!-- Generated by graphviz version 2.40.1 (20161225.0304)
 -->
<!-- Title: board Pages: 1 -->
<svg width="858pt" height="772pt"
 viewBox="0.00 0.00 858.00 772.00" xmlns="http://www.w3.org/2000/svg" xmlns:xlink="http://www.w3.org/1999/xlink">
<g id="graph0" class="graph" transform="scale(1 1) rotate(0) translate(4 768)">
<title>board</title>
<polygon fill="#ffffff" stroke="transparent" points="-4,4 -4,-768 854,-768 854,4 -4,4"/>
<!-- n00000001 -->
<g id="node1" class="node">
<title>n00000001</title>
<path fill="#00ff00" stroke="#000000" d="M15.5,-437.5C15.5,-437.5 101.5,-437.5 101.5,-437.5 107.5,-437.5 113.5,-443.5 113.5,-449.5 113.5,-449.5 113.5,-509.5 113.5,-509.5 113.5,-515.5 107.5,-521.5 101.5,-521.5 101.5,-521.5 15.5,-521.5 15.5,-521.5 9.5,-521.5 3.5,-515.5 3.5,-509.5 3.5,-509.5 3.5,-449.5 3.5,-449.5 3.5,-443.5 9.5,-437.5 15.5,-437.5"/>
<text text-anchor="middle" x="58.5" y="-506.3" font-family="Times,serif" font-size="14.00" fill="#000000">0</text>
<polyline fill="none" stroke="#000000" points="3.5,-498.5 113.5,-498.5 "/>
<text text-anchor="middle" x="58.5" y="-483.3" font-family="Times,serif" font-size="14.00" fill="#000000">ipu1_csi0</text>
<text text-anchor="middle" x="58.5" y="-468.3" font-family="Times,serif" font-size="14.00" fill="#000000">/dev/v4l&#45;subdev0</text>
<polyline fill="none" stroke="#000000" points="3.5,-460.5 113.5,-460.5 "/>
<text text-anchor="middle" x="31" y="-445.3" font-family="Times,serif" font-size="14.00" fill="#000000">1</text>
<polyline fill="none" stroke="#000000" points="58.5,-437.5 58.5,-460.5 "/>
<text text-anchor="middle" x="86" y="-445.3" font-family="Times,serif" font-size="14.00" fill="#000000">2</text>
</g>
<!-- n00000005 -->
<g id="node2" class="node">
<title>n00000005</title>
<polygon fill="#ffff00" stroke="#000000" points="143,-377.5 30,-377.5 30,-339.5 143,-339.5 143,-377.5"/>
<text text-anchor="middle" x="86.5" y="-362.3" font-family="Times,serif" font-size="14.00" fill="#000000">ipu1_csi0 capture</text>
<text text-anchor="middle" x="86.5" y="-347.3" font-family="Times,serif" font-size="14.00" fill="#000000">/dev/video0</text>
</g>
<!-- n00000001&#45;&gt;n00000005 -->
<g id="edge1" class="edge">
<title>n00000001:port2&#45;&gt;n00000005</title>
<path fill="none" stroke="#000000" stroke-dasharray="5,2" d="M86.5,-437.5C86.5,-421.0556 86.5,-402.6857 86.5,-387.8012"/>
<polygon fill="#000000" stroke="#000000" points="90.0001,-387.6562 86.5,-377.6563 83.0001,-387.6563 90.0001,-387.6562"/>
</g>
<!-- n0000000f -->
<g id="node3" class="node">
<title>n0000000f</title>
<path fill="#00ff00" stroke="#000000" d="M173.5,-195.5C173.5,-195.5 259.5,-195.5 259.5,-195.5 265.5,-195.5 271.5,-201.5 271.5,-207.5 271.5,-207.5 271.5,-267.5 271.5,-267.5 271.5,-273.5 265.5,-279.5 259.5,-279.5 259.5,-279.5 173.5,-279.5 173.5,-279.5 167.5,-279.5 161.5,-273.5 161.5,-267.5 161.5,-267.5 161.5,-207.5 161.5,-207.5 161.5,-201.5 167.5,-195.5 173.5,-195.5"/>
<text text-anchor="middle" x="216.5" y="-264.3" font-family="Times,serif" font-size="14.00" fill="#000000">0</text>
<polyline fill="none" stroke="#000000" points="161.5,-256.5 271.5,-256.5 "/>
<text text-anchor="middle" x="216.5" y="-241.3" font-family="Times,serif" font-size="14.00" fill="#000000">ipu1_ic_prp</text>
<text text-anchor="middle" x="216.5" y="-226.3" font-family="Times,serif" font-size="14.00" fill="#000000">/dev/v4l&#45;subdev2</text>
<polyline fill="none" stroke="#000000" points="161.5,-218.5 271.5,-218.5 "/>
<text text-anchor="middle" x="189" y="-203.3" font-family="Times,serif" font-size="14.00" fill="#000000">1</text>
<polyline fill="none" stroke="#000000" points="216.5,-195.5 216.5,-218.5 "/>
<text text-anchor="middle" x="244" y="-203.3" font-family="Times,serif" font-size="14.00" fill="#000000">2</text>
</g>
<!-- n00000001&#45;&gt;n0000000f -->
<g id="edge2" class="edge">
<title>n00000001:port1&#45;&gt;n0000000f:port0</title>
<path fill="none" stroke="#000000" stroke-dasharray="5,2" d="M30.5,-437.5C30.5,-420.68 22.7422,-417.6699 20.5,-401 15.4639,-363.5594 -1.5402,-346.6821 20.5,-316 38.0567,-291.5593 113.0676,-272.26 151.333,-268.9895"/>
<polygon fill="#000000" stroke="#000000" points="151.6799,-272.4769 161.5,-268.5 151.3432,-265.485 151.6799,-272.4769"/>
</g>
<!-- n0000000b -->
<g id="node4" class="node">
<title>n0000000b</title>
<path fill="#00ff00" stroke="#000000" d="M173.5,-316.5C173.5,-316.5 259.5,-316.5 259.5,-316.5 265.5,-316.5 271.5,-322.5 271.5,-328.5 271.5,-328.5 271.5,-388.5 271.5,-388.5 271.5,-394.5 265.5,-400.5 259.5,-400.5 259.5,-400.5 173.5,-400.5 173.5,-400.5 167.5,-400.5 161.5,-394.5 161.5,-388.5 161.5,-388.5 161.5,-328.5 161.5,-328.5 161.5,-322.5 167.5,-316.5 173.5,-316.5"/>
<text text-anchor="middle" x="189" y="-385.3" font-family="Times,serif" font-size="14.00" fill="#000000">0</text>
<polyline fill="none" stroke="#000000" points="216.5,-377.5 216.5,-400.5 "/>
<text text-anchor="middle" x="244" y="-385.3" font-family="Times,serif" font-size="14.00" fill="#000000">1</text>
<polyline fill="none" stroke="#000000" points="161.5,-377.5 271.5,-377.5 "/>
<text text-anchor="middle" x="216.5" y="-362.3" font-family="Times,serif" font-size="14.00" fill="#000000">ipu1_vdic</text>
<text text-anchor="middle" x="216.5" y="-347.3" font-family="Times,serif" font-size="14.00" fill="#000000">/dev/v4l&#45;subdev1</text>
<polyline fill="none" stroke="#000000" points="161.5,-339.5 271.5,-339.5 "/>
<text text-anchor="middle" x="216.5" y="-324.3" font-family="Times,serif" font-size="14.00" fill="#000000">2</text>
</g>
<!-- n00000001&#45;&gt;n0000000b -->
<g id="edge3" class="edge">
<title>n00000001:port1&#45;&gt;n0000000b:port0</title>
<path fill="none" stroke="#000000" stroke-dasharray="5,2" d="M30.5,-437.5C30.5,-381.3287 104.3314,-431.5013 151.5,-401 153.0997,-399.9656 154.0548,-398.6034 154.752,-397.1796"/>
<polygon fill="#000000" stroke="#000000" points="157.5284,-399.3223 161.5,-389.5 152.27,-394.7017 157.5284,-399.3223"/>
</g>
<!-- n00000013 -->
<g id="node5" class="node">
<title>n00000013</title>
<path fill="#00ff00" stroke="#000000" d="M101.5,-74.5C101.5,-74.5 187.5,-74.5 187.5,-74.5 193.5,-74.5 199.5,-80.5 199.5,-86.5 199.5,-86.5 199.5,-146.5 199.5,-146.5 199.5,-152.5 193.5,-158.5 187.5,-158.5 187.5,-158.5 101.5,-158.5 101.5,-158.5 95.5,-158.5 89.5,-152.5 89.5,-146.5 89.5,-146.5 89.5,-86.5 89.5,-86.5 89.5,-80.5 95.5,-74.5 101.5,-74.5"/>
<text text-anchor="middle" x="144.5" y="-143.3" font-family="Times,serif" font-size="14.00" fill="#000000">0</text>
<polyline fill="none" stroke="#000000" points="89.5,-135.5 199.5,-135.5 "/>
<text text-anchor="middle" x="144.5" y="-120.3" font-family="Times,serif" font-size="14.00" fill="#000000">ipu1_ic_prpenc</text>
<text text-anchor="middle" x="144.5" y="-105.3" font-family="Times,serif" font-size="14.00" fill="#000000">/dev/v4l&#45;subdev3</text>
<polyline fill="none" stroke="#000000" points="89.5,-97.5 199.5,-97.5 "/>
<text text-anchor="middle" x="144.5" y="-82.3" font-family="Times,serif" font-size="14.00" fill="#000000">1</text>
</g>
<!-- n0000000f&#45;&gt;n00000013 -->
<g id="edge5" class="edge">
<title>n0000000f:port1&#45;&gt;n00000013:port0</title>
<path fill="none" stroke="#000000" stroke-dasharray="5,2" d="M188.5,-195.5C188.5,-180.7951 203.3454,-164.1819 206.4497,-154.8628"/>
<polygon fill="#000000" stroke="#000000" points="208.9094,-152.3697 199.5,-147.5 203.8189,-157.1746 208.9094,-152.3697"/>
</g>
<!-- n0000001c -->
<g id="node6" class="node">
<title>n0000001c</title>
<path fill="#00ff00" stroke="#000000" d="M237.5,-74.5C237.5,-74.5 323.5,-74.5 323.5,-74.5 329.5,-74.5 335.5,-80.5 335.5,-86.5 335.5,-86.5 335.5,-146.5 335.5,-146.5 335.5,-152.5 329.5,-158.5 323.5,-158.5 323.5,-158.5 237.5,-158.5 237.5,-158.5 231.5,-158.5 225.5,-152.5 225.5,-146.5 225.5,-146.5 225.5,-86.5 225.5,-86.5 225.5,-80.5 231.5,-74.5 237.5,-74.5"/>
<text text-anchor="middle" x="280.5" y="-143.3" font-family="Times,serif" font-size="14.00" fill="#000000">0</text>
<polyline fill="none" stroke="#000000" points="225.5,-135.5 335.5,-135.5 "/>
<text text-anchor="middle" x="280.5" y="-120.3" font-family="Times,serif" font-size="14.00" fill="#000000">ipu1_ic_prpvf</text>
<text text-anchor="middle" x="280.5" y="-105.3" font-family="Times,serif" font-size="14.00" fill="#000000">/dev/v4l&#45;subdev4</text>
<polyline fill="none" stroke="#000000" points="225.5,-97.5 335.5,-97.5 "/>
<text text-anchor="middle" x="280.5" y="-82.3" font-family="Times,serif" font-size="14.00" fill="#000000">1</text>
</g>
<!-- n0000000f&#45;&gt;n0000001c -->
<g id="edge6" class="edge">
<title>n0000000f:port2&#45;&gt;n0000001c:port0</title>
<path fill="none" stroke="#000000" stroke-dasharray="5,2" d="M244.5,-195.5C244.5,-181.1601 228.1157,-165.9951 221.429,-156.6379"/>
<polygon fill="#000000" stroke="#000000" points="224.6275,-158.0589 225.5,-147.5 218.2333,-155.2101 224.6275,-158.0589"/>
</g>
<!-- n0000000b&#45;&gt;n0000000f -->
<g id="edge4" class="edge">
<title>n0000000b:port2&#45;&gt;n0000000f:port0</title>
<path fill="none" stroke="#000000" stroke-dasharray="5,2" d="M216.5,-316.5C216.5,-304.0382 216.5,-298.6592 216.5,-289.6281"/>
<polygon fill="#000000" stroke="#000000" points="220.0001,-289.5 216.5,-279.5 213.0001,-289.5 220.0001,-289.5"/>
</g>
<!-- n00000016 -->
<g id="node7" class="node">
<title>n00000016</title>
<polygon fill="#ffff00" stroke="#000000" points="201.5,-38 57.5,-38 57.5,0 201.5,0 201.5,-38"/>
<text text-anchor="middle" x="129.5" y="-22.8" font-family="Times,serif" font-size="14.00" fill="#000000">ipu1_ic_prpenc capture</text>
<text text-anchor="middle" x="129.5" y="-7.8" font-family="Times,serif" font-size="14.00" fill="#000000">/dev/video1</text>
</g>
<!-- n00000013&#45;&gt;n00000016 -->
<g id="edge7" class="edge">
<title>n00000013:port1&#45;&gt;n00000016</title>
<path fill="none" stroke="#000000" stroke-dasharray="5,2" d="M144.5,-74.5C144.5,-65.701 142.7212,-56.3807 140.3888,-47.9414"/>
<polygon fill="#000000" stroke="#000000" points="143.6642,-46.6875 137.3514,-38.1787 136.9802,-48.767 143.6642,-46.6875"/>
</g>
<!-- n0000001f -->
<g id="node8" class="node">
<title>n0000001f</title>
<polygon fill="#ffff00" stroke="#000000" points="357,-38 220,-38 220,0 357,0 357,-38"/>
<text text-anchor="middle" x="288.5" y="-22.8" font-family="Times,serif" font-size="14.00" fill="#000000">ipu1_ic_prpvf capture</text>
<text text-anchor="middle" x="288.5" y="-7.8" font-family="Times,serif" font-size="14.00" fill="#000000">/dev/video2</text>
</g>
<!-- n0000001c&#45;&gt;n0000001f -->
<g id="edge8" class="edge">
<title>n0000001c:port1&#45;&gt;n0000001f</title>
<path fill="none" stroke="#000000" stroke-dasharray="5,2" d="M280.5,-74.5C280.5,-65.9438 281.443,-56.7209 282.6814,-48.2976"/>
<polygon fill="#000000" stroke="#000000" points="286.1783,-48.6035 284.3594,-38.166 279.2724,-47.4597 286.1783,-48.6035"/>
</g>
<!-- n0000002f -->
<g id="node9" class="node">
<title>n0000002f</title>
<path fill="#00ff00" stroke="#000000" d="M284.5,-437.5C284.5,-437.5 370.5,-437.5 370.5,-437.5 376.5,-437.5 382.5,-443.5 382.5,-449.5 382.5,-449.5 382.5,-509.5 382.5,-509.5 382.5,-515.5 376.5,-521.5 370.5,-521.5 370.5,-521.5 284.5,-521.5 284.5,-521.5 278.5,-521.5 272.5,-515.5 272.5,-509.5 272.5,-509.5 272.5,-449.5 272.5,-449.5 272.5,-443.5 278.5,-437.5 284.5,-437.5"/>
<text text-anchor="middle" x="327.5" y="-506.3" font-family="Times,serif" font-size="14.00" fill="#000000">0</text>
<polyline fill="none" stroke="#000000" points="272.5,-498.5 382.5,-498.5 "/>
<text text-anchor="middle" x="327.5" y="-483.3" font-family="Times,serif" font-size="14.00" fill="#000000">ipu1_csi1</text>
<text text-anchor="middle" x="327.5" y="-468.3" font-family="Times,serif" font-size="14.00" fill="#000000">/dev/v4l&#45;subdev5</text>
<polyline fill="none" stroke="#000000" points="272.5,-460.5 382.5,-460.5 "/>
<text text-anchor="middle" x="300" y="-445.3" font-family="Times,serif" font-size="14.00" fill="#000000">1</text>
<polyline fill="none" stroke="#000000" points="327.5,-437.5 327.5,-460.5 "/>
<text text-anchor="middle" x="355" y="-445.3" font-family="Times,serif" font-size="14.00" fill="#000000">2</text>
</g>
<!-- n0000002f&#45;&gt;n0000000f -->
<g id="edge10" class="edge">
<title>n0000002f:port1&#45;&gt;n0000000f:port0</title>
<path fill="none" stroke="#000000" stroke-dasharray="5,2" d="M299.5,-437.5C299.5,-365.0825 343.0491,-277.529 281.7838,-269.1515"/>
<polygon fill="#000000" stroke="#000000" points="281.7013,-265.6393 271.5,-268.5 281.2587,-272.6253 281.7013,-265.6393"/>
</g>
<!-- n0000002f&#45;&gt;n0000000b -->
<g id="edge11" class="edge">
<title>n0000002f:port1&#45;&gt;n0000000b:port0</title>
<path fill="none" stroke="#000000" stroke-dasharray="5,2" d="M272.5,-448.5C233.1965,-448.5 195.5618,-444.3214 189.3837,-410.7647"/>
<polygon fill="#000000" stroke="#000000" points="192.8449,-410.1629 188.5,-400.5 185.8707,-410.7634 192.8449,-410.1629"/>
</g>
<!-- n00000033 -->
<g id="node10" class="node">
<title>n00000033</title>
<polygon fill="#ffff00" stroke="#000000" points="441,-377.5 328,-377.5 328,-339.5 441,-339.5 441,-377.5"/>
<text text-anchor="middle" x="384.5" y="-362.3" font-family="Times,serif" font-size="14.00" fill="#000000">ipu1_csi1 capture</text>
<text text-anchor="middle" x="384.5" y="-347.3" font-family="Times,serif" font-size="14.00" fill="#000000">/dev/video3</text>
</g>
<!-- n0000002f&#45;&gt;n00000033 -->
<g id="edge9" class="edge">
<title>n0000002f:port2&#45;&gt;n00000033</title>
<path fill="none" stroke="#000000" stroke-dasharray="5,2" d="M355.5,-437.5C355.5,-419.8822 361.9344,-401.3334 368.7416,-386.6397"/>
<polygon fill="#000000" stroke="#000000" points="371.921,-388.1058 373.2048,-377.589 365.6429,-385.0098 371.921,-388.1058"/>
</g>
<!-- n0000003d -->
<g id="node11" class="node">
<title>n0000003d</title>
<path fill="#00ff00" stroke="#000000" d="M424.5,-558.5C424.5,-558.5 510.5,-558.5 510.5,-558.5 516.5,-558.5 522.5,-564.5 522.5,-570.5 522.5,-570.5 522.5,-630.5 522.5,-630.5 522.5,-636.5 516.5,-642.5 510.5,-642.5 510.5,-642.5 424.5,-642.5 424.5,-642.5 418.5,-642.5 412.5,-636.5 412.5,-630.5 412.5,-630.5 412.5,-570.5 412.5,-570.5 412.5,-564.5 418.5,-558.5 424.5,-558.5"/>
<text text-anchor="middle" x="467.5" y="-627.3" font-family="Times,serif" font-size="14.00" fill="#000000">0</text>
<polyline fill="none" stroke="#000000" points="412.5,-619.5 522.5,-619.5 "/>
<text text-anchor="middle" x="467.5" y="-604.3" font-family="Times,serif" font-size="14.00" fill="#000000">ipu2_csi0</text>
<text text-anchor="middle" x="467.5" y="-589.3" font-family="Times,serif" font-size="14.00" fill="#000000">/dev/v4l&#45;subdev6</text>
<polyline fill="none" stroke="#000000" points="412.5,-581.5 522.5,-581.5 "/>
<text text-anchor="middle" x="440" y="-566.3" font-family="Times,serif" font-size="14.00" fill="#000000">1</text>
<polyline fill="none" stroke="#000000" points="467.5,-558.5 467.5,-581.5 "/>
<text text-anchor="middle" x="495" y="-566.3" font-family="Times,serif" font-size="14.00" fill="#000000">2</text>
</g>
<!-- n00000041 -->
<g id="node12" class="node">
<title>n00000041</title>
<polygon fill="#ffff00" stroke="#000000" points="552,-498.5 439,-498.5 439,-460.5 552,-460.5 552,-498.5"/>
<text text-anchor="middle" x="495.5" y="-483.3" font-family="Times,serif" font-size="14.00" fill="#000000">ipu2_csi0 capture</text>
<text text-anchor="middle" x="495.5" y="-468.3" font-family="Times,serif" font-size="14.00" fill="#000000">/dev/video4</text>
</g>
<!-- n0000003d&#45;&gt;n00000041 -->
<g id="edge12" class="edge">
<title>n0000003d:port2&#45;&gt;n00000041</title>
<path fill="none" stroke="#000000" stroke-dasharray="5,2" d="M495.5,-558.5C495.5,-542.0556 495.5,-523.6857 495.5,-508.8012"/>
<polygon fill="#000000" stroke="#000000" points="499.0001,-508.6562 495.5,-498.6563 492.0001,-508.6563 499.0001,-508.6562"/>
</g>
<!-- n0000004b -->
<g id="node13" class="node">
<title>n0000004b</title>
<path fill="#00ff00" stroke="#000000" d="M582.5,-316.5C582.5,-316.5 668.5,-316.5 668.5,-316.5 674.5,-316.5 680.5,-322.5 680.5,-328.5 680.5,-328.5 680.5,-388.5 680.5,-388.5 680.5,-394.5 674.5,-400.5 668.5,-400.5 668.5,-400.5 582.5,-400.5 582.5,-400.5 576.5,-400.5 570.5,-394.5 570.5,-388.5 570.5,-388.5 570.5,-328.5 570.5,-328.5 570.5,-322.5 576.5,-316.5 582.5,-316.5"/>
<text text-anchor="middle" x="625.5" y="-385.3" font-family="Times,serif" font-size="14.00" fill="#000000">0</text>
<polyline fill="none" stroke="#000000" points="570.5,-377.5 680.5,-377.5 "/>
<text text-anchor="middle" x="625.5" y="-362.3" font-family="Times,serif" font-size="14.00" fill="#000000">ipu2_ic_prp</text>
<text text-anchor="middle" x="625.5" y="-347.3" font-family="Times,serif" font-size="14.00" fill="#000000">/dev/v4l&#45;subdev8</text>
<polyline fill="none" stroke="#000000" points="570.5,-339.5 680.5,-339.5 "/>
<text text-anchor="middle" x="598" y="-324.3" font-family="Times,serif" font-size="14.00" fill="#000000">1</text>
<polyline fill="none" stroke="#000000" points="625.5,-316.5 625.5,-339.5 "/>
<text text-anchor="middle" x="653" y="-324.3" font-family="Times,serif" font-size="14.00" fill="#000000">2</text>
</g>
<!-- n0000003d&#45;&gt;n0000004b -->
<g id="edge13" class="edge">
<title>n0000003d:port1&#45;&gt;n0000004b:port0</title>
<path fill="none" stroke="#000000" stroke-dasharray="5,2" d="M439.5,-558.5C439.5,-541.68 431.7422,-538.6699 429.5,-522 424.4639,-484.5594 407.4598,-467.6821 429.5,-437 447.0567,-412.5593 522.0676,-393.26 560.333,-389.9895"/>
<polygon fill="#000000" stroke="#000000" points="560.6799,-393.4769 570.5,-389.5 560.3432,-386.485 560.6799,-393.4769"/>
</g>
<!-- n00000047 -->
<g id="node14" class="node">
<title>n00000047</title>
<path fill="#00ff00" stroke="#000000" d="M582.5,-437.5C582.5,-437.5 668.5,-437.5 668.5,-437.5 674.5,-437.5 680.5,-443.5 680.5,-449.5 680.5,-449.5 680.5,-509.5 680.5,-509.5 680.5,-515.5 674.5,-521.5 668.5,-521.5 668.5,-521.5 582.5,-521.5 582.5,-521.5 576.5,-521.5 570.5,-515.5 570.5,-509.5 570.5,-509.5 570.5,-449.5 570.5,-449.5 570.5,-443.5 576.5,-437.5 582.5,-437.5"/>
<text text-anchor="middle" x="598" y="-506.3" font-family="Times,serif" font-size="14.00" fill="#000000">0</text>
<polyline fill="none" stroke="#000000" points="625.5,-498.5 625.5,-521.5 "/>
<text text-anchor="middle" x="653" y="-506.3" font-family="Times,serif" font-size="14.00" fill="#000000">1</text>
<polyline fill="none" stroke="#000000" points="570.5,-498.5 680.5,-498.5 "/>
<text text-anchor="middle" x="625.5" y="-483.3" font-family="Times,serif" font-size="14.00" fill="#000000">ipu2_vdic</text>
<text text-anchor="middle" x="625.5" y="-468.3" font-family="Times,serif" font-size="14.00" fill="#000000">/dev/v4l&#45;subdev7</text>
<polyline fill="none" stroke="#000000" points="570.5,-460.5 680.5,-460.5 "/>
<text text-anchor="middle" x="625.5" y="-445.3" font-family="Times,serif" font-size="14.00" fill="#000000">2</text>
</g>
<!-- n0000003d&#45;&gt;n00000047 -->
<g id="edge14" class="edge">
<title>n0000003d:port1&#45;&gt;n00000047:port0</title>
<path fill="none" stroke="#000000" stroke-dasharray="5,2" d="M439.5,-558.5C439.5,-502.3287 513.3314,-552.5013 560.5,-522 562.0997,-520.9656 563.0548,-519.6034 563.752,-518.1796"/>
<polygon fill="#000000" stroke="#000000" points="566.5284,-520.3223 570.5,-510.5 561.27,-515.7017 566.5284,-520.3223"/>
</g>
<!-- n0000004f -->
<g id="node15" class="node">
<title>n0000004f</title>
<path fill="#00ff00" stroke="#000000" d="M512.5,-195.5C512.5,-195.5 598.5,-195.5 598.5,-195.5 604.5,-195.5 610.5,-201.5 610.5,-207.5 610.5,-207.5 610.5,-267.5 610.5,-267.5 610.5,-273.5 604.5,-279.5 598.5,-279.5 598.5,-279.5 512.5,-279.5 512.5,-279.5 506.5,-279.5 500.5,-273.5 500.5,-267.5 500.5,-267.5 500.5,-207.5 500.5,-207.5 500.5,-201.5 506.5,-195.5 512.5,-195.5"/>
<text text-anchor="middle" x="555.5" y="-264.3" font-family="Times,serif" font-size="14.00" fill="#000000">0</text>
<polyline fill="none" stroke="#000000" points="500.5,-256.5 610.5,-256.5 "/>
<text text-anchor="middle" x="555.5" y="-241.3" font-family="Times,serif" font-size="14.00" fill="#000000">ipu2_ic_prpenc</text>
<text text-anchor="middle" x="555.5" y="-226.3" font-family="Times,serif" font-size="14.00" fill="#000000">/dev/v4l&#45;subdev9</text>
<polyline fill="none" stroke="#000000" points="500.5,-218.5 610.5,-218.5 "/>
<text text-anchor="middle" x="555.5" y="-203.3" font-family="Times,serif" font-size="14.00" fill="#000000">1</text>
</g>
<!-- n0000004b&#45;&gt;n0000004f -->
<g id="edge16" class="edge">
<title>n0000004b:port1&#45;&gt;n0000004f:port0</title>
<path fill="none" stroke="#000000" stroke-dasharray="5,2" d="M597.5,-316.5C597.5,-301.9956 612.6171,-285.8564 616.7636,-276.4745"/>
<polygon fill="#000000" stroke="#000000" points="619.4295,-274.2022 610.5,-268.5 613.9245,-278.5261 619.4295,-274.2022"/>
</g>
<!-- n00000058 -->
<g id="node16" class="node">
<title>n00000058</title>
<path fill="#00ff00" stroke="#000000" d="M648,-195.5C648,-195.5 741,-195.5 741,-195.5 747,-195.5 753,-201.5 753,-207.5 753,-207.5 753,-267.5 753,-267.5 753,-273.5 747,-279.5 741,-279.5 741,-279.5 648,-279.5 648,-279.5 642,-279.5 636,-273.5 636,-267.5 636,-267.5 636,-207.5 636,-207.5 636,-201.5 642,-195.5 648,-195.5"/>
<text text-anchor="middle" x="694.5" y="-264.3" font-family="Times,serif" font-size="14.00" fill="#000000">0</text>
<polyline fill="none" stroke="#000000" points="636,-256.5 753,-256.5 "/>
<text text-anchor="middle" x="694.5" y="-241.3" font-family="Times,serif" font-size="14.00" fill="#000000">ipu2_ic_prpvf</text>
<text text-anchor="middle" x="694.5" y="-226.3" font-family="Times,serif" font-size="14.00" fill="#000000">/dev/v4l&#45;subdev10</text>
<polyline fill="none" stroke="#000000" points="636,-218.5 753,-218.5 "/>
<text text-anchor="middle" x="694.5" y="-203.3" font-family="Times,serif" font-size="14.00" fill="#000000">1</text>
</g>
<!-- n0000004b&#45;&gt;n00000058 -->
<g id="edge17" class="edge">
<title>n0000004b:port2&#45;&gt;n00000058:port0</title>
<path fill="none" stroke="#000000" stroke-dasharray="5,2" d="M653.5,-316.5C653.5,-302.26 637.5687,-287.07 631.1828,-277.68"/>
<polygon fill="#000000" stroke="#000000" points="634.4115,-279.0388 635.5,-268.5 628.077,-276.0597 634.4115,-279.0388"/>
</g>
<!-- n00000047&#45;&gt;n0000004b -->
<g id="edge15" class="edge">
<title>n00000047:port2&#45;&gt;n0000004b:port0</title>
<path fill="none" stroke="#000000" stroke-dasharray="5,2" d="M625.5,-437.5C625.5,-425.0382 625.5,-419.6592 625.5,-410.6281"/>
<polygon fill="#000000" stroke="#000000" points="629.0001,-410.5 625.5,-400.5 622.0001,-410.5 629.0001,-410.5"/>
</g>
<!-- n00000052 -->
<g id="node17" class="node">
<title>n00000052</title>
<polygon fill="#ffff00" stroke="#000000" points="620.5,-135.5 476.5,-135.5 476.5,-97.5 620.5,-97.5 620.5,-135.5"/>
<text text-anchor="middle" x="548.5" y="-120.3" font-family="Times,serif" font-size="14.00" fill="#000000">ipu2_ic_prpenc capture</text>
<text text-anchor="middle" x="548.5" y="-105.3" font-family="Times,serif" font-size="14.00" fill="#000000">/dev/video5</text>
</g>
<!-- n0000004f&#45;&gt;n00000052 -->
<g id="edge18" class="edge">
<title>n0000004f:port1&#45;&gt;n00000052</title>
<path fill="none" stroke="#000000" stroke-dasharray="5,2" d="M555.5,-195.5C555.5,-178.9912 553.9645,-160.6172 552.3318,-145.7466"/>
<polygon fill="#000000" stroke="#000000" points="555.7848,-145.1398 551.1464,-135.6143 548.8322,-145.9533 555.7848,-145.1398"/>
</g>
<!-- n0000005b -->
<g id="node18" class="node">
<title>n0000005b</title>
<polygon fill="#ffff00" stroke="#000000" points="776,-135.5 639,-135.5 639,-97.5 776,-97.5 776,-135.5"/>
<text text-anchor="middle" x="707.5" y="-120.3" font-family="Times,serif" font-size="14.00" fill="#000000">ipu2_ic_prpvf capture</text>
<text text-anchor="middle" x="707.5" y="-105.3" font-family="Times,serif" font-size="14.00" fill="#000000">/dev/video6</text>
</g>
<!-- n00000058&#45;&gt;n0000005b -->
<g id="edge19" class="edge">
<title>n00000058:port1&#45;&gt;n0000005b</title>
<path fill="none" stroke="#000000" stroke-dasharray="5,2" d="M694.5,-195.5C694.5,-178.8344 697.3516,-160.4506 700.3837,-145.6137"/>
<polygon fill="#000000" stroke="#000000" points="703.8755,-146.0282 702.5853,-135.5122 697.036,-144.5375 703.8755,-146.0282"/>
</g>
<!-- n0000006b -->
<g id="node19" class="node">
<title>n0000006b</title>
<path fill="#00ff00" stroke="#000000" d="M692,-558.5C692,-558.5 785,-558.5 785,-558.5 791,-558.5 797,-564.5 797,-570.5 797,-570.5 797,-630.5 797,-630.5 797,-636.5 791,-642.5 785,-642.5 785,-642.5 692,-642.5 692,-642.5 686,-642.5 680,-636.5 680,-630.5 680,-630.5 680,-570.5 680,-570.5 680,-564.5 686,-558.5 692,-558.5"/>
<text text-anchor="middle" x="738.5" y="-627.3" font-family="Times,serif" font-size="14.00" fill="#000000">0</text>
<polyline fill="none" stroke="#000000" points="680,-619.5 797,-619.5 "/>
<text text-anchor="middle" x="738.5" y="-604.3" font-family="Times,serif" font-size="14.00" fill="#000000">ipu2_csi1</text>
<text text-anchor="middle" x="738.5" y="-589.3" font-family="Times,serif" font-size="14.00" fill="#000000">/dev/v4l&#45;subdev11</text>
<polyline fill="none" stroke="#000000" points="680,-581.5 797,-581.5 "/>
<text text-anchor="middle" x="709" y="-566.3" font-family="Times,serif" font-size="14.00" fill="#000000">1</text>
<polyline fill="none" stroke="#000000" points="738,-558.5 738,-581.5 "/>
<text text-anchor="middle" x="767.5" y="-566.3" font-family="Times,serif" font-size="14.00" fill="#000000">2</text>
</g>
<!-- n0000006b&#45;&gt;n0000004b -->
<g id="edge21" class="edge">
<title>n0000006b:port1&#45;&gt;n0000004b:port0</title>
<path fill="none" stroke="#000000" stroke-dasharray="5,2" d="M708.5,-558.5C708.5,-486.0825 752.0491,-398.529 690.7838,-390.1515"/>
<polygon fill="#000000" stroke="#000000" points="690.7013,-386.6393 680.5,-389.5 690.2587,-393.6253 690.7013,-386.6393"/>
</g>
<!-- n0000006b&#45;&gt;n00000047 -->
<g id="edge22" class="edge">
<title>n0000006b:port1&#45;&gt;n00000047:port0</title>
<path fill="none" stroke="#000000" stroke-dasharray="5,2" d="M679.5,-569.5C640.8998,-569.5 604.3538,-564.6785 598.3575,-531.5989"/>
<polygon fill="#000000" stroke="#000000" points="601.8336,-531.168 597.5,-521.5 594.8587,-531.7603 601.8336,-531.168"/>
</g>
<!-- n0000006f -->
<g id="node20" class="node">
<title>n0000006f</title>
<polygon fill="#ffff00" stroke="#000000" points="850,-498.5 737,-498.5 737,-460.5 850,-460.5 850,-498.5"/>
<text text-anchor="middle" x="793.5" y="-483.3" font-family="Times,serif" font-size="14.00" fill="#000000">ipu2_csi1 capture</text>
<text text-anchor="middle" x="793.5" y="-468.3" font-family="Times,serif" font-size="14.00" fill="#000000">/dev/video7</text>
</g>
<!-- n0000006b&#45;&gt;n0000006f -->
<g id="edge20" class="edge">
<title>n0000006b:port2&#45;&gt;n0000006f</title>
<path fill="none" stroke="#000000" stroke-dasharray="5,2" d="M767.5,-558.5C767.5,-541.2544 773.1595,-522.9048 779.1975,-508.2351"/>
<polygon fill="#000000" stroke="#000000" points="782.5571,-509.2893 783.3733,-498.7259 776.1479,-506.4747 782.5571,-509.2893"/>
</g>
<!-- n00000079 -->
<g id="node21" class="node">
<title>n00000079</title>
<path fill="#00ff00" stroke="#000000" d="M12,-558.5C12,-558.5 105,-558.5 105,-558.5 111,-558.5 117,-564.5 117,-570.5 117,-570.5 117,-630.5 117,-630.5 117,-636.5 111,-642.5 105,-642.5 105,-642.5 12,-642.5 12,-642.5 6,-642.5 0,-636.5 0,-630.5 0,-630.5 0,-570.5 0,-570.5 0,-564.5 6,-558.5 12,-558.5"/>
<text text-anchor="middle" x="29" y="-627.3" font-family="Times,serif" font-size="14.00" fill="#000000">0</text>
<polyline fill="none" stroke="#000000" points="58,-619.5 58,-642.5 "/>
<text text-anchor="middle" x="87.5" y="-627.3" font-family="Times,serif" font-size="14.00" fill="#000000">1</text>
<polyline fill="none" stroke="#000000" points="0,-619.5 117,-619.5 "/>
<text text-anchor="middle" x="58.5" y="-604.3" font-family="Times,serif" font-size="14.00" fill="#000000">ipu1_csi0_mux</text>
<text text-anchor="middle" x="58.5" y="-589.3" font-family="Times,serif" font-size="14.00" fill="#000000">/dev/v4l&#45;subdev12</text>
<polyline fill="none" stroke="#000000" points="0,-581.5 117,-581.5 "/>
<text text-anchor="middle" x="58.5" y="-566.3" font-family="Times,serif" font-size="14.00" fill="#000000">2</text>
</g>
<!-- n00000079&#45;&gt;n00000001 -->
<g id="edge23" class="edge">
<title>n00000079:port2&#45;&gt;n00000001:port0</title>
<path fill="none" stroke="#000000" stroke-dasharray="5,2" d="M58.5,-558.5C58.5,-546.0382 58.5,-540.6592 58.5,-531.6281"/>
<polygon fill="#000000" stroke="#000000" points="62.0001,-531.5 58.5,-521.5 55.0001,-531.5 62.0001,-531.5"/>
</g>
<!-- n0000007d -->
<g id="node22" class="node">
<title>n0000007d</title>
<path fill="#00ff00" stroke="#000000" d="M692,-679.5C692,-679.5 785,-679.5 785,-679.5 791,-679.5 797,-685.5 797,-691.5 797,-691.5 797,-751.5 797,-751.5 797,-757.5 791,-763.5 785,-763.5 785,-763.5 692,-763.5 692,-763.5 686,-763.5 680,-757.5 680,-751.5 680,-751.5 680,-691.5 680,-691.5 680,-685.5 686,-679.5 692,-679.5"/>
<text text-anchor="middle" x="709" y="-748.3" font-family="Times,serif" font-size="14.00" fill="#000000">0</text>
<polyline fill="none" stroke="#000000" points="738,-740.5 738,-763.5 "/>
<text text-anchor="middle" x="767.5" y="-748.3" font-family="Times,serif" font-size="14.00" fill="#000000">1</text>
<polyline fill="none" stroke="#000000" points="680,-740.5 797,-740.5 "/>
<text text-anchor="middle" x="738.5" y="-725.3" font-family="Times,serif" font-size="14.00" fill="#000000">ipu2_csi1_mux</text>
<text text-anchor="middle" x="738.5" y="-710.3" font-family="Times,serif" font-size="14.00" fill="#000000">/dev/v4l&#45;subdev13</text>
<polyline fill="none" stroke="#000000" points="680,-702.5 797,-702.5 "/>
<text text-anchor="middle" x="738.5" y="-687.3" font-family="Times,serif" font-size="14.00" fill="#000000">2</text>
</g>
<!-- n0000007d&#45;&gt;n0000006b -->
<g id="edge24" class="edge">
<title>n0000007d:port2&#45;&gt;n0000006b:port0</title>
<path fill="none" stroke="#000000" stroke-dasharray="5,2" d="M738.5,-679.5C738.5,-667.0382 738.5,-661.6592 738.5,-652.6281"/>
<polygon fill="#000000" stroke="#000000" points="742.0001,-652.5 738.5,-642.5 735.0001,-652.5 742.0001,-652.5"/>
</g>
<!-- n00000081 -->
<g id="node23" class="node">
<title>n00000081</title>
<path fill="#00ff00" stroke="#000000" d="M41,-679.5C41,-679.5 134,-679.5 134,-679.5 140,-679.5 146,-685.5 146,-691.5 146,-691.5 146,-751.5 146,-751.5 146,-757.5 140,-763.5 134,-763.5 134,-763.5 41,-763.5 41,-763.5 35,-763.5 29,-757.5 29,-751.5 29,-751.5 29,-691.5 29,-691.5 29,-685.5 35,-679.5 41,-679.5"/>
<text text-anchor="middle" x="87.5" y="-748.3" font-family="Times,serif" font-size="14.00" fill="#000000"> </text>
<polyline fill="none" stroke="#000000" points="29,-740.5 146,-740.5 "/>
<text text-anchor="middle" x="87.5" y="-725.3" font-family="Times,serif" font-size="14.00" fill="#000000">adv7180 3&#45;0021</text>
<text text-anchor="middle" x="87.5" y="-710.3" font-family="Times,serif" font-size="14.00" fill="#000000">/dev/v4l&#45;subdev14</text>
<polyline fill="none" stroke="#000000" points="29,-702.5 146,-702.5 "/>
<text text-anchor="middle" x="87.5" y="-687.3" font-family="Times,serif" font-size="14.00" fill="#000000">0</text>
</g>
<!-- n00000081&#45;&gt;n00000079 -->
<g id="edge25" class="edge">
<title>n00000081:port0&#45;&gt;n00000079:port1</title>
<path fill="none" stroke="#000000" stroke-dasharray="5,2" d="M87.5,-679.5C87.5,-667.0382 87.5,-661.6592 87.5,-652.6281"/>
<polygon fill="#000000" stroke="#000000" points="91.0001,-652.5 87.5,-642.5 84.0001,-652.5 91.0001,-652.5"/>
</g>
</g>
</svg>
