<?xml version="1.0" encoding="UTF-8" standalone="no"?>
<!DOCTYPE svg PUBLIC "-//W3C//DTD SVG 1.1//EN"
 "http://www.w3.org/Graphics/SVG/1.1/DTD/svg11.dtd">
<!-- Generated by graphviz version 2.40.1 (20161225.0304)
 -->
<!-- Title: peer_states Pages: 1 -->
<svg width="380pt" height="218pt"
 viewBox="0.00 0.00 379.60 218.00" xmlns="http://www.w3.org/2000/svg" xmlns:xlink="http://www.w3.org/1999/xlink">
<g id="graph0" class="graph" transform="scale(1 1) rotate(0) translate(4 214)">
<title>peer_states</title>
<polygon fill="#ffffff" stroke="transparent" points="-4,4 -4,-214 375.6047,-214 375.6047,4 -4,4"/>
<!-- Secondary -->
<g id="node1" class="node">
<title>Secondary</title>
<ellipse fill="none" stroke="#000000" cx="170.6047" cy="-192" rx="48.1917" ry="18"/>
<text text-anchor="middle" x="170.6047" y="-188.3" font-family="Times,serif" font-size="14.00" fill="#000000">Secondary</text>
</g>
<!-- Primary -->
<g id="node2" class="node">
<title>Primary</title>
<ellipse fill="none" stroke="#000000" cx="82.6047" cy="-105" rx="39.7935" ry="18"/>
<text text-anchor="middle" x="82.6047" y="-101.3" font-family="Times,serif" font-size="14.00" fill="#000000">Primary</text>
</g>
<!-- Secondary&#45;&gt;Primary -->
<g id="edge1" class="edge">
<title>Secondary&#45;&gt;Primary</title>
<path fill="none" stroke="#000000" d="M123.506,-188.2716C79.7926,-183.7172 19.321,-174.2498 4.6047,-156 -9.158,-138.9327 13.5056,-125.6439 37.8878,-116.9157"/>
<polygon fill="#000000" stroke="#000000" points="39.223,-120.1602 47.6072,-113.6828 37.0136,-113.518 39.223,-120.1602"/>
<text text-anchor="middle" x="50.1047" y="-144.8" font-family="Times,serif" font-size="14.00" fill="#000000">recv state packet</text>
</g>
<!-- Unknown -->
<g id="node3" class="node">
<title>Unknown</title>
<ellipse fill="none" stroke="#000000" cx="188.6047" cy="-18" rx="45.4919" ry="18"/>
<text text-anchor="middle" x="188.6047" y="-14.3" font-family="Times,serif" font-size="14.00" fill="#000000">Unknown</text>
</g>
<!-- Secondary&#45;&gt;Unknown -->
<g id="edge4" class="edge">
<title>Secondary&#45;&gt;Unknown</title>
<path fill="none" stroke="#000000" d="M193.9282,-176.1675C200.2116,-170.5991 206.2047,-163.7656 209.6047,-156 215.9541,-141.4981 244.0236,-187.5212 208.6047,-54 207.7614,-50.8211 206.5755,-47.6222 205.1972,-44.5132"/>
<polygon fill="#000000" stroke="#000000" points="208.2958,-42.8851 200.6358,-35.5657 202.0595,-46.0645 208.2958,-42.8851"/>
<text text-anchor="middle" x="266.1047" y="-101.3" font-family="Times,serif" font-size="14.00" fill="#000000">connection lost</text>
</g>
<!-- Primary&#45;&gt;Secondary -->
<g id="edge2" class="edge">
<title>Primary&#45;&gt;Secondary</title>
<path fill="none" stroke="#000000" d="M92.9097,-122.6952C99.4698,-133.0864 108.5968,-146.083 118.6047,-156 123.9132,-161.2603 130.0747,-166.2682 136.2603,-170.7861"/>
<polygon fill="#000000" stroke="#000000" points="134.427,-173.7746 144.6324,-176.6208 138.4294,-168.0317 134.427,-173.7746"/>
<text text-anchor="middle" x="164.1047" y="-144.8" font-family="Times,serif" font-size="14.00" fill="#000000">recv state packet</text>
</g>
<!-- Primary&#45;&gt;Unknown -->
<g id="edge3" class="edge">
<title>Primary&#45;&gt;Unknown</title>
<path fill="none" stroke="#000000" d="M61.6038,-89.6534C50.0369,-79.317 39.6714,-65.521 48.6047,-54 59.347,-40.1459 100.0606,-30.6914 134.8331,-24.9605"/>
<polygon fill="#000000" stroke="#000000" points="135.5886,-28.3848 144.9223,-23.3716 134.4995,-21.47 135.5886,-28.3848"/>
<text text-anchor="middle" x="90.1047" y="-57.8" font-family="Times,serif" font-size="14.00" fill="#000000">connection lost</text>
</g>
<!-- Unknown&#45;&gt;Secondary -->
<g id="edge6" class="edge">
<title>Unknown&#45;&gt;Secondary</title>
<path fill="none" stroke="#000000" d="M223.6501,-29.6372C268.652,-46.5915 337.9861,-80.7191 311.6047,-123 292.4034,-153.7736 255.0553,-171.1993 223.6198,-180.8382"/>
<polygon fill="#000000" stroke="#000000" points="222.2969,-177.5766 213.6517,-183.7012 224.2293,-184.3046 222.2969,-177.5766"/>
<text text-anchor="middle" x="344.1047" y="-101.3" font-family="Times,serif" font-size="14.00" fill="#000000">connected</text>
</g>
<!-- Unknown&#45;&gt;Primary -->
<g id="edge5" class="edge">
<title>Unknown&#45;&gt;Primary</title>
<path fill="none" stroke="#000000" d="M170.7672,-34.7632C159.7206,-44.9405 145.1113,-58.0382 131.6047,-69 125.6316,-73.8477 119.0884,-78.8527 112.7838,-83.5327"/>
<polygon fill="#000000" stroke="#000000" points="110.4085,-80.9341 104.4104,-89.6676 114.5456,-86.5807 110.4085,-80.9341"/>
<text text-anchor="middle" x="177.1047" y="-57.8" font-family="Times,serif" font-size="14.00" fill="#000000">connected</text>
</g>
</g>
</svg>
