<?xml version="1.0" encoding="UTF-8" standalone="no"?>
<!DOCTYPE svg PUBLIC "-//W3C//DTD SVG 1.1//EN"
 "http://www.w3.org/Graphics/SVG/1.1/DTD/svg11.dtd">
<!-- Generated by graphviz version 2.40.1 (20161225.0304)
 -->
<!-- Title: board Pages: 1 -->
<svg width="419pt" height="409pt"
 viewBox="0.00 0.00 419.00 409.00" xmlns="http://www.w3.org/2000/svg" xmlns:xlink="http://www.w3.org/1999/xlink">
<g id="graph0" class="graph" transform="scale(1 1) rotate(0) translate(4 405)">
<title>board</title>
<polygon fill="#ffffff" stroke="transparent" points="-4,4 -4,-405 415,-405 415,4 -4,4"/>
<!-- n00000001 -->
<g id="node1" class="node">
<title>n00000001</title>
<path fill="#00ff00" stroke="#000000" d="M225.5,-195.5C225.5,-195.5 311.5,-195.5 311.5,-195.5 317.5,-195.5 323.5,-201.5 323.5,-207.5 323.5,-207.5 323.5,-267.5 323.5,-267.5 323.5,-273.5 317.5,-279.5 311.5,-279.5 311.5,-279.5 225.5,-279.5 225.5,-279.5 219.5,-279.5 213.5,-273.5 213.5,-267.5 213.5,-267.5 213.5,-207.5 213.5,-207.5 213.5,-201.5 219.5,-195.5 225.5,-195.5"/>
<text text-anchor="middle" x="241" y="-264.3" font-family="Times,serif" font-size="14.00" fill="#000000">0</text>
<polyline fill="none" stroke="#000000" points="268.5,-256.5 268.5,-279.5 "/>
<text text-anchor="middle" x="296" y="-264.3" font-family="Times,serif" font-size="14.00" fill="#000000">1</text>
<polyline fill="none" stroke="#000000" points="213.5,-256.5 323.5,-256.5 "/>
<text text-anchor="middle" x="268.5" y="-241.3" font-family="Times,serif" font-size="14.00" fill="#000000">rkisp1_isp</text>
<text text-anchor="middle" x="268.5" y="-226.3" font-family="Times,serif" font-size="14.00" fill="#000000">/dev/v4l&#45;subdev0</text>
<polyline fill="none" stroke="#000000" points="213.5,-218.5 323.5,-218.5 "/>
<text text-anchor="middle" x="241" y="-203.3" font-family="Times,serif" font-size="14.00" fill="#000000">2</text>
<polyline fill="none" stroke="#000000" points="268.5,-195.5 268.5,-218.5 "/>
<text text-anchor="middle" x="296" y="-203.3" font-family="Times,serif" font-size="14.00" fill="#000000">3</text>
</g>
<!-- n00000006 -->
<g id="node2" class="node">
<title>n00000006</title>
<path fill="#00ff00" stroke="#000000" d="M12,-74.5C12,-74.5 139,-74.5 139,-74.5 145,-74.5 151,-80.5 151,-86.5 151,-86.5 151,-146.5 151,-146.5 151,-152.5 145,-158.5 139,-158.5 139,-158.5 12,-158.5 12,-158.5 6,-158.5 0,-152.5 0,-146.5 0,-146.5 0,-86.5 0,-86.5 0,-80.5 6,-74.5 12,-74.5"/>
<text text-anchor="middle" x="75.5" y="-143.3" font-family="Times,serif" font-size="14.00" fill="#000000">0</text>
<polyline fill="none" stroke="#000000" points="0,-135.5 151,-135.5 "/>
<text text-anchor="middle" x="75.5" y="-120.3" font-family="Times,serif" font-size="14.00" fill="#000000">rkisp1_resizer_mainpath</text>
<text text-anchor="middle" x="75.5" y="-105.3" font-family="Times,serif" font-size="14.00" fill="#000000">/dev/v4l&#45;subdev1</text>
<polyline fill="none" stroke="#000000" points="0,-97.5 151,-97.5 "/>
<text text-anchor="middle" x="75.5" y="-82.3" font-family="Times,serif" font-size="14.00" fill="#000000">1</text>
</g>
<!-- n00000001&#45;&gt;n00000006 -->
<g id="edge1" class="edge">
<title>n00000001:port2&#45;&gt;n00000006:port0</title>
<path fill="none" stroke="#000000" d="M213.5,-206.5C181.5363,-206.5 180.7817,-182.8489 159.5,-159 158.5932,-157.9838 157.9982,-156.8619 157.5569,-155.7291"/>
<polygon fill="#000000" stroke="#000000" points="160.2466,-153.479 151.5,-147.5 154.609,-157.6284 160.2466,-153.479"/>
</g>
<!-- n00000009 -->
<g id="node3" class="node">
<title>n00000009</title>
<path fill="#00ff00" stroke="#000000" d="M181,-74.5C181,-74.5 300,-74.5 300,-74.5 306,-74.5 312,-80.5 312,-86.5 312,-86.5 312,-146.5 312,-146.5 312,-152.5 306,-158.5 300,-158.5 300,-158.5 181,-158.5 181,-158.5 175,-158.5 169,-152.5 169,-146.5 169,-146.5 169,-86.5 169,-86.5 169,-80.5 175,-74.5 181,-74.5"/>
<text text-anchor="middle" x="240.5" y="-143.3" font-family="Times,serif" font-size="14.00" fill="#000000">0</text>
<polyline fill="none" stroke="#000000" points="169,-135.5 312,-135.5 "/>
<text text-anchor="middle" x="240.5" y="-120.3" font-family="Times,serif" font-size="14.00" fill="#000000">rkisp1_resizer_selfpath</text>
<text text-anchor="middle" x="240.5" y="-105.3" font-family="Times,serif" font-size="14.00" fill="#000000">/dev/v4l&#45;subdev2</text>
<polyline fill="none" stroke="#000000" points="169,-97.5 312,-97.5 "/>
<text text-anchor="middle" x="240.5" y="-82.3" font-family="Times,serif" font-size="14.00" fill="#000000">1</text>
</g>
<!-- n00000001&#45;&gt;n00000009 -->
<g id="edge2" class="edge">
<title>n00000001:port2&#45;&gt;n00000009:port0</title>
<path fill="none" stroke="#000000" d="M240.5,-195.5C240.5,-183.0382 240.5,-177.6592 240.5,-168.6281"/>
<polygon fill="#000000" stroke="#000000" points="244.0001,-168.5 240.5,-158.5 237.0001,-168.5 244.0001,-168.5"/>
</g>
<!-- n00000014 -->
<g id="node4" class="node">
<title>n00000014</title>
<polygon fill="#ffff00" stroke="#000000" points="411,-135.5 330,-135.5 330,-97.5 411,-97.5 411,-135.5"/>
<text text-anchor="middle" x="370.5" y="-120.3" font-family="Times,serif" font-size="14.00" fill="#000000">rkisp1_stats</text>
<text text-anchor="middle" x="370.5" y="-105.3" font-family="Times,serif" font-size="14.00" fill="#000000">/dev/video2</text>
</g>
<!-- n00000001&#45;&gt;n00000014 -->
<g id="edge3" class="edge">
<title>n00000001:port3&#45;&gt;n00000014</title>
<path fill="none" stroke="#000000" stroke-width="2" d="M323.5,-206.5C351.5109,-206.5 362.8567,-171.8228 367.4338,-145.5185"/>
<polygon fill="#000000" stroke="#000000" stroke-width="2" points="370.9014,-145.9949 368.9218,-135.5867 363.9787,-144.9577 370.9014,-145.9949"/>
</g>
<!-- n0000000c -->
<g id="node5" class="node">
<title>n0000000c</title>
<polygon fill="#ffff00" stroke="#000000" points="129.5,-38 21.5,-38 21.5,0 129.5,0 129.5,-38"/>
<text text-anchor="middle" x="75.5" y="-22.8" font-family="Times,serif" font-size="14.00" fill="#000000">rkisp1_mainpath</text>
<text text-anchor="middle" x="75.5" y="-7.8" font-family="Times,serif" font-size="14.00" fill="#000000">/dev/video0</text>
</g>
<!-- n00000006&#45;&gt;n0000000c -->
<g id="edge4" class="edge">
<title>n00000006:port1&#45;&gt;n0000000c</title>
<path fill="none" stroke="#000000" stroke-width="2" d="M75.5,-74.5C75.5,-65.9636 75.5,-56.6887 75.5,-48.2088"/>
<polygon fill="#000000" stroke="#000000" stroke-width="2" points="79.0001,-48.0081 75.5,-38.0081 72.0001,-48.0081 79.0001,-48.0081"/>
</g>
<!-- n00000010 -->
<g id="node6" class="node">
<title>n00000010</title>
<polygon fill="#ffff00" stroke="#000000" points="290.5,-38 190.5,-38 190.5,0 290.5,0 290.5,-38"/>
<text text-anchor="middle" x="240.5" y="-22.8" font-family="Times,serif" font-size="14.00" fill="#000000">rkisp1_selfpath</text>
<text text-anchor="middle" x="240.5" y="-7.8" font-family="Times,serif" font-size="14.00" fill="#000000">/dev/video1</text>
</g>
<!-- n00000009&#45;&gt;n00000010 -->
<g id="edge5" class="edge">
<title>n00000009:port1&#45;&gt;n00000010</title>
<path fill="none" stroke="#000000" stroke-width="2" d="M240.5,-74.5C240.5,-65.9636 240.5,-56.6887 240.5,-48.2088"/>
<polygon fill="#000000" stroke="#000000" stroke-width="2" points="244.0001,-48.0081 240.5,-38.0081 237.0001,-48.0081 244.0001,-48.0081"/>
</g>
<!-- n00000018 -->
<g id="node7" class="node">
<title>n00000018</title>
<polygon fill="#ffff00" stroke="#000000" points="378,-377.5 281,-377.5 281,-339.5 378,-339.5 378,-377.5"/>
<text text-anchor="middle" x="329.5" y="-362.3" font-family="Times,serif" font-size="14.00" fill="#000000">rkisp1_params</text>
<text text-anchor="middle" x="329.5" y="-347.3" font-family="Times,serif" font-size="14.00" fill="#000000">/dev/video3</text>
</g>
<!-- n00000018&#45;&gt;n00000001 -->
<g id="edge6" class="edge">
<title>n00000018&#45;&gt;n00000001:port1</title>
<path fill="none" stroke="#000000" stroke-width="2" d="M316.4575,-339.2972C308.6747,-326.2591 299.8174,-308.1017 297.2394,-289.7104"/>
<polygon fill="#000000" stroke="#000000" stroke-width="2" points="300.7133,-289.221 296.5,-279.5 293.7315,-289.7267 300.7133,-289.221"/>
</g>
<!-- n0000001c -->
<g id="node8" class="node">
<title>n0000001c</title>
<path fill="#00ff00" stroke="#000000" d="M164.5,-316.5C164.5,-316.5 250.5,-316.5 250.5,-316.5 256.5,-316.5 262.5,-322.5 262.5,-328.5 262.5,-328.5 262.5,-388.5 262.5,-388.5 262.5,-394.5 256.5,-400.5 250.5,-400.5 250.5,-400.5 164.5,-400.5 164.5,-400.5 158.5,-400.5 152.5,-394.5 152.5,-388.5 152.5,-388.5 152.5,-328.5 152.5,-328.5 152.5,-322.5 158.5,-316.5 164.5,-316.5"/>
<text text-anchor="middle" x="207.5" y="-385.3" font-family="Times,serif" font-size="14.00" fill="#000000"> </text>
<polyline fill="none" stroke="#000000" points="152.5,-377.5 262.5,-377.5 "/>
<text text-anchor="middle" x="207.5" y="-362.3" font-family="Times,serif" font-size="14.00" fill="#000000">imx219 4&#45;0010</text>
<text text-anchor="middle" x="207.5" y="-347.3" font-family="Times,serif" font-size="14.00" fill="#000000">/dev/v4l&#45;subdev3</text>
<polyline fill="none" stroke="#000000" points="152.5,-339.5 262.5,-339.5 "/>
<text text-anchor="middle" x="207.5" y="-324.3" font-family="Times,serif" font-size="14.00" fill="#000000">0</text>
</g>
<!-- n0000001c&#45;&gt;n00000001 -->
<g id="edge7" class="edge">
<title>n0000001c:port0&#45;&gt;n00000001:port0</title>
<path fill="none" stroke="#000000" d="M262.5,-327.5C267.6111,-327.5 263.8693,-320.9243 262.5,-316 258.5356,-301.7432 247.3379,-299.0455 242.6285,-289.5157"/>
<polygon fill="#000000" stroke="#000000" points="246.0024,-288.554 240.5,-279.5 239.1553,-290.0091 246.0024,-288.554"/>
</g>
</g>
</svg>
