<?xml version="1.0" encoding="UTF-8" standalone="no"?>
<!DOCTYPE svg PUBLIC "-//W3C//DTD SVG 1.1//EN"
 "http://www.w3.org/Graphics/SVG/1.1/DTD/svg11.dtd">
<!-- Generated by graphviz version 2.40.1 (20161225.0304)
 -->
<!-- Title: srp_initiator Pages: 1 -->
<svg width="703pt" height="761pt"
 viewBox="0.00 0.00 703.46 760.85" xmlns="http://www.w3.org/2000/svg" xmlns:xlink="http://www.w3.org/1999/xlink">
<g id="graph0" class="graph" transform="scale(1 1) rotate(0) translate(4 756.8465)">
<title>srp_initiator</title>
<polygon fill="#ffffff" stroke="transparent" points="-4,4 -4,-756.8465 699.4583,-756.8465 699.4583,4 -4,4"/>
<!-- running -->
<g id="node1" class="node">
<title>running</title>
<ellipse fill="none" stroke="#000000" cx="215.4583" cy="-521.4754" rx="48.5974" ry="48.5974"/>
<ellipse fill="none" stroke="#000000" cx="215.4583" cy="-521.4754" rx="52.5816" ry="52.5816"/>
<text text-anchor="middle" x="215.4583" y="-540.2754" font-family="Times,serif" font-size="14.00" fill="#000000">running;</text>
<text text-anchor="middle" x="215.4583" y="-525.2754" font-family="Times,serif" font-size="14.00" fill="#000000">reconnect</text>
<text text-anchor="middle" x="215.4583" y="-510.2754" font-family="Times,serif" font-size="14.00" fill="#000000">timer</text>
<text text-anchor="middle" x="215.4583" y="-495.2754" font-family="Times,serif" font-size="14.00" fill="#000000">stopped</text>
</g>
<!-- lost -->
<g id="node2" class="node">
<title>lost</title>
<ellipse fill="none" stroke="#000000" cx="194.4583" cy="-27.3979" rx="23.3111" ry="23.3111"/>
<ellipse fill="none" stroke="#000000" cx="194.4583" cy="-27.3979" rx="27.2962" ry="27.2962"/>
<text text-anchor="middle" x="194.4583" y="-23.6979" font-family="Times,serif" font-size="14.00" fill="#000000">lost</text>
</g>
<!-- running&#45;&gt;lost -->
<g id="edge11" class="edge">
<title>running&#45;&gt;lost</title>
<path fill="none" stroke="#000000" d="M163.939,-509.0512C113.2909,-495.7365 41.0867,-473.4301 23.4583,-450.685 -19.6963,-395.0049 11.0184,-363.3475 7.4583,-292.9918 6.1106,-266.3592 -1.9576,-257.9408 7.4583,-232.9918 40.9488,-144.2524 83.3305,-141.75 148.4583,-72.7958 154.4389,-66.4639 161.022,-59.7978 167.2924,-53.5825"/>
<polygon fill="#000000" stroke="#000000" points="169.7779,-56.0471 174.4547,-46.5403 164.8702,-51.0556 169.7779,-56.0471"/>
<text text-anchor="middle" x="72.4583" y="-259.2918" font-family="Times,serif" font-size="14.00" fill="#000000">srp_stop_rport_timers()</text>
</g>
<!-- running_rta -->
<g id="node3" class="node">
<title>running_rta</title>
<ellipse fill="none" stroke="#000000" cx="383.4583" cy="-704.0561" rx="48.5816" ry="48.5816"/>
<text text-anchor="middle" x="383.4583" y="-722.8561" font-family="Times,serif" font-size="14.00" fill="#000000">running;</text>
<text text-anchor="middle" x="383.4583" y="-707.8561" font-family="Times,serif" font-size="14.00" fill="#000000">reconnect</text>
<text text-anchor="middle" x="383.4583" y="-692.8561" font-family="Times,serif" font-size="14.00" fill="#000000">timer</text>
<text text-anchor="middle" x="383.4583" y="-677.8561" font-family="Times,serif" font-size="14.00" fill="#000000">active</text>
</g>
<!-- running&#45;&gt;running_rta -->
<g id="edge1" class="edge">
<title>running&#45;&gt;running_rta</title>
<path fill="none" stroke="#000000" d="M266.9133,-533.7855C298.9062,-544.11 338.2377,-562.1492 361.4583,-592.2657 373.0248,-607.2672 379.0162,-626.6889 381.9851,-645.1244"/>
<polygon fill="#000000" stroke="#000000" points="378.5422,-645.7843 383.3398,-655.2306 385.4801,-644.8542 378.5422,-645.7843"/>
<text text-anchor="middle" x="452.9583" y="-626.0657" font-family="Times,serif" font-size="14.00" fill="#000000">fast_io_fail_tmo = off and</text>
<text text-anchor="middle" x="452.9583" y="-611.0657" font-family="Times,serif" font-size="14.00" fill="#000000">dev_loss_tmo = off;</text>
<text text-anchor="middle" x="452.9583" y="-596.0657" font-family="Times,serif" font-size="14.00" fill="#000000">srp_start_tl_fail_timers()</text>
</g>
<!-- blocked -->
<g id="node4" class="node">
<title>blocked</title>
<ellipse fill="none" stroke="#000000" cx="155.4583" cy="-349.3384" rx="38.1938" ry="38.1938"/>
<text text-anchor="middle" x="155.4583" y="-345.6384" font-family="Times,serif" font-size="14.00" fill="#000000">blocked</text>
</g>
<!-- running&#45;&gt;blocked -->
<g id="edge3" class="edge">
<title>running&#45;&gt;blocked</title>
<path fill="none" stroke="#000000" d="M163.9882,-508.1897C116.285,-494.7122 50.4889,-472.7475 35.4583,-450.685 24.1977,-434.1563 24.7348,-422.5671 35.4583,-405.685 51.3249,-380.706 81.5235,-366.6047 107.6555,-358.7556"/>
<polygon fill="#000000" stroke="#000000" points="108.7325,-362.0891 117.4334,-356.0438 106.8617,-355.3437 108.7325,-362.0891"/>
<text text-anchor="middle" x="103.4583" y="-439.485" font-family="Times,serif" font-size="14.00" fill="#000000">fast_io_fail_tmo &gt;= 0 or</text>
<text text-anchor="middle" x="103.4583" y="-424.485" font-family="Times,serif" font-size="14.00" fill="#000000">dev_loss_tmo &gt;= 0;</text>
<text text-anchor="middle" x="103.4583" y="-409.485" font-family="Times,serif" font-size="14.00" fill="#000000">srp_start_tl_fail_timers()</text>
</g>
<!-- failfast -->
<g id="node5" class="node">
<title>failfast</title>
<ellipse fill="none" stroke="#000000" cx="327.4583" cy="-175.3938" rx="39.6962" ry="39.6962"/>
<text text-anchor="middle" x="327.4583" y="-179.1938" font-family="Times,serif" font-size="14.00" fill="#000000">fail I/O</text>
<text text-anchor="middle" x="327.4583" y="-164.1938" font-family="Times,serif" font-size="14.00" fill="#000000">fast</text>
</g>
<!-- running&#45;&gt;failfast -->
<g id="edge4" class="edge">
<title>running&#45;&gt;failfast</title>
<path fill="none" stroke="#000000" d="M247.2455,-479.1219C252.9644,-470.0803 258.3909,-460.337 262.4583,-450.685 287.1182,-392.1673 277.8533,-372.7909 292.4583,-310.9918 299.3201,-281.9571 307.6455,-249.6015 314.4547,-223.7798"/>
<polygon fill="#000000" stroke="#000000" points="317.9036,-224.4281 317.0792,-213.8653 311.1367,-222.6367 317.9036,-224.4281"/>
<text text-anchor="middle" x="364.9583" y="-360.6384" font-family="Times,serif" font-size="14.00" fill="#000000">fast_io_fail_tmo = off and</text>
<text text-anchor="middle" x="364.9583" y="-345.6384" font-family="Times,serif" font-size="14.00" fill="#000000">dev_loss_tmo = off;</text>
<text text-anchor="middle" x="364.9583" y="-330.6384" font-family="Times,serif" font-size="14.00" fill="#000000">reconnecting failed</text>
</g>
<!-- running_rta&#45;&gt;running -->
<g id="edge2" class="edge">
<title>running_rta&#45;&gt;running</title>
<path fill="none" stroke="#000000" d="M335.8444,-691.9243C290.4359,-679.2773 226.8836,-658.3867 212.4583,-637.2657 201.6909,-621.5006 199.3223,-601.5039 200.6039,-582.5823"/>
<polygon fill="#000000" stroke="#000000" points="204.098,-582.8166 201.6211,-572.5153 197.1334,-582.1128 204.098,-582.8166"/>
<text text-anchor="middle" x="284.9583" y="-626.0657" font-family="Times,serif" font-size="14.00" fill="#000000">fast_io_fail_tmo = off and</text>
<text text-anchor="middle" x="284.9583" y="-611.0657" font-family="Times,serif" font-size="14.00" fill="#000000">dev_loss_tmo = off;</text>
<text text-anchor="middle" x="284.9583" y="-596.0657" font-family="Times,serif" font-size="14.00" fill="#000000">reconnecting succeeded</text>
</g>
<!-- running_rta&#45;&gt;lost -->
<g id="edge12" class="edge">
<title>running_rta&#45;&gt;lost</title>
<path fill="none" stroke="#000000" d="M431.0334,-693.1824C463.021,-683.5444 503.8646,-666.3533 529.4583,-637.2657 565.0584,-596.8058 565.4583,-575.3676 565.4583,-521.4754 565.4583,-521.4754 565.4583,-521.4754 565.4583,-175.3938 565.4583,-91.2924 484.1804,-104.9257 406.4583,-72.7958 348.1328,-48.6845 275.2637,-36.6824 231.924,-31.2706"/>
<polygon fill="#000000" stroke="#000000" points="232.1755,-27.7759 221.8306,-30.0633 231.3441,-34.7263 232.1755,-27.7759"/>
<text text-anchor="middle" x="630.4583" y="-345.6384" font-family="Times,serif" font-size="14.00" fill="#000000">srp_stop_rport_timers()</text>
</g>
<!-- blocked&#45;&gt;running -->
<g id="edge8" class="edge">
<title>blocked&#45;&gt;running</title>
<path fill="none" stroke="#000000" d="M168.1312,-385.6963C175.8146,-407.7397 185.8054,-436.4028 194.6263,-461.7096"/>
<polygon fill="#000000" stroke="#000000" points="191.3461,-462.9327 197.9425,-471.2235 197.956,-460.6287 191.3461,-462.9327"/>
<text text-anchor="middle" x="223.4583" y="-431.985" font-family="Times,serif" font-size="14.00" fill="#000000">reconnecting</text>
<text text-anchor="middle" x="223.4583" y="-416.985" font-family="Times,serif" font-size="14.00" fill="#000000">succeeded</text>
</g>
<!-- blocked&#45;&gt;lost -->
<g id="edge6" class="edge">
<title>blocked&#45;&gt;lost</title>
<path fill="none" stroke="#000000" d="M148.9759,-311.4785C142.8119,-268.4435 136.1481,-196.3169 148.4583,-135.7958 153.8294,-109.3895 165.8647,-81.4382 176.2775,-60.5336"/>
<polygon fill="#000000" stroke="#000000" points="179.4828,-61.9527 180.9179,-51.4555 173.2499,-58.7666 179.4828,-61.9527"/>
<text text-anchor="middle" x="213.4583" y="-186.6938" font-family="Times,serif" font-size="14.00" fill="#000000">dev_loss_tmo</text>
<text text-anchor="middle" x="213.4583" y="-171.6938" font-family="Times,serif" font-size="14.00" fill="#000000">expired or</text>
<text text-anchor="middle" x="213.4583" y="-156.6938" font-family="Times,serif" font-size="14.00" fill="#000000">srp_stop_rport_timers()</text>
</g>
<!-- blocked&#45;&gt;failfast -->
<g id="edge5" class="edge">
<title>blocked&#45;&gt;failfast</title>
<path fill="none" stroke="#000000" d="M150.8591,-311.1126C150.042,-285.6459 153.6889,-253.2536 173.4583,-232.9918 204.9951,-200.6694 231.9601,-232.8021 273.4583,-214.9918 278.5995,-212.7853 283.7161,-210.009 288.6357,-206.9551"/>
<polygon fill="#000000" stroke="#000000" points="290.8596,-209.6791 297.2407,-201.2214 286.9781,-203.8538 290.8596,-209.6791"/>
<text text-anchor="middle" x="218.9583" y="-281.7918" font-family="Times,serif" font-size="14.00" fill="#000000">fast_io_fail_tmo</text>
<text text-anchor="middle" x="218.9583" y="-266.7918" font-family="Times,serif" font-size="14.00" fill="#000000">expired or</text>
<text text-anchor="middle" x="218.9583" y="-251.7918" font-family="Times,serif" font-size="14.00" fill="#000000">reconnecting</text>
<text text-anchor="middle" x="218.9583" y="-236.7918" font-family="Times,serif" font-size="14.00" fill="#000000">failed</text>
</g>
<!-- failfast&#45;&gt;running -->
<g id="edge10" class="edge">
<title>failfast&#45;&gt;running</title>
<path fill="none" stroke="#000000" d="M357.9429,-200.8722C402.1607,-241.046 474.9228,-321.3646 437.4583,-387.685 403.1827,-448.3603 329.1376,-484.5861 275.981,-503.7395"/>
<polygon fill="#000000" stroke="#000000" points="274.5978,-500.5153 266.3129,-507.1192 276.9077,-507.1232 274.5978,-500.5153"/>
<text text-anchor="middle" x="482.4583" y="-353.1384" font-family="Times,serif" font-size="14.00" fill="#000000">reconnecting</text>
<text text-anchor="middle" x="482.4583" y="-338.1384" font-family="Times,serif" font-size="14.00" fill="#000000">succeeded</text>
</g>
<!-- failfast&#45;&gt;lost -->
<g id="edge7" class="edge">
<title>failfast&#45;&gt;lost</title>
<path fill="none" stroke="#000000" d="M300.8634,-145.8003C277.2308,-119.5032 242.9284,-81.3331 219.7112,-55.4982"/>
<polygon fill="#000000" stroke="#000000" points="222.1733,-53.0016 212.8859,-47.9032 216.9668,-57.6806 222.1733,-53.0016"/>
<text text-anchor="middle" x="337.4583" y="-106.5958" font-family="Times,serif" font-size="14.00" fill="#000000">dev_loss_tmo</text>
<text text-anchor="middle" x="337.4583" y="-91.5958" font-family="Times,serif" font-size="14.00" fill="#000000">expired or</text>
<text text-anchor="middle" x="337.4583" y="-76.5958" font-family="Times,serif" font-size="14.00" fill="#000000">srp_stop_rport_timers()</text>
</g>
<!-- failfast&#45;&gt;failfast -->
<g id="edge9" class="edge">
<title>failfast&#45;&gt;failfast</title>
<path fill="none" stroke="#000000" d="M364.2967,-190.3856C375.9013,-190.1567 385.0563,-185.1595 385.0563,-175.3938 385.0563,-168.68 380.7291,-164.2199 374.2537,-162.0136"/>
<polygon fill="#000000" stroke="#000000" points="374.7275,-158.5448 364.2967,-160.4021 373.609,-165.4549 374.7275,-158.5448"/>
<text text-anchor="middle" x="420.0563" y="-179.1938" font-family="Times,serif" font-size="14.00" fill="#000000">reconnecting</text>
<text text-anchor="middle" x="420.0563" y="-164.1938" font-family="Times,serif" font-size="14.00" fill="#000000">failed</text>
</g>
</g>
</svg>
