<?xml version="1.0" encoding="UTF-8" standalone="no"?>
<!DOCTYPE svg PUBLIC "-//W3C//DTD SVG 1.1//EN"
 "http://www.w3.org/Graphics/SVG/1.1/DTD/svg11.dtd">
<!-- Generated by graphviz version 2.40.1 (20161225.0304)
 -->
<!-- Title: board Pages: 1 -->
<svg width="862pt" height="409pt"
 viewBox="0.00 0.00 862.00 409.00" xmlns="http://www.w3.org/2000/svg" xmlns:xlink="http://www.w3.org/1999/xlink">
<g id="graph0" class="graph" transform="scale(1 1) rotate(0) translate(4 405)">
<title>board</title>
<polygon fill="#ffffff" stroke="transparent" points="-4,4 -4,-405 858,-405 858,4 -4,4"/>
<!-- n00000001 -->
<g id="node1" class="node">
<title>n00000001</title>
<path fill="#00ff00" stroke="#000000" d="M134,-316.5C134,-316.5 220,-316.5 220,-316.5 226,-316.5 232,-322.5 232,-328.5 232,-328.5 232,-388.5 232,-388.5 232,-394.5 226,-400.5 220,-400.5 220,-400.5 134,-400.5 134,-400.5 128,-400.5 122,-394.5 122,-388.5 122,-388.5 122,-328.5 122,-328.5 122,-322.5 128,-316.5 134,-316.5"/>
<text text-anchor="middle" x="177" y="-385.3" font-family="Times,serif" font-size="14.00" fill="#000000"> </text>
<polyline fill="none" stroke="#000000" points="122,-377.5 232,-377.5 "/>
<text text-anchor="middle" x="177" y="-362.3" font-family="Times,serif" font-size="14.00" fill="#000000">Sensor A</text>
<text text-anchor="middle" x="177" y="-347.3" font-family="Times,serif" font-size="14.00" fill="#000000">/dev/v4l&#45;subdev0</text>
<polyline fill="none" stroke="#000000" points="122,-339.5 232,-339.5 "/>
<text text-anchor="middle" x="177" y="-324.3" font-family="Times,serif" font-size="14.00" fill="#000000">0</text>
</g>
<!-- n00000005 -->
<g id="node2" class="node">
<title>n00000005</title>
<path fill="#00ff00" stroke="#000000" d="M12,-195.5C12,-195.5 98,-195.5 98,-195.5 104,-195.5 110,-201.5 110,-207.5 110,-207.5 110,-267.5 110,-267.5 110,-273.5 104,-279.5 98,-279.5 98,-279.5 12,-279.5 12,-279.5 6,-279.5 0,-273.5 0,-267.5 0,-267.5 0,-207.5 0,-207.5 0,-201.5 6,-195.5 12,-195.5"/>
<text text-anchor="middle" x="55" y="-264.3" font-family="Times,serif" font-size="14.00" fill="#000000">0</text>
<polyline fill="none" stroke="#000000" points="0,-256.5 110,-256.5 "/>
<text text-anchor="middle" x="55" y="-241.3" font-family="Times,serif" font-size="14.00" fill="#000000">Debayer A</text>
<text text-anchor="middle" x="55" y="-226.3" font-family="Times,serif" font-size="14.00" fill="#000000">/dev/v4l&#45;subdev2</text>
<polyline fill="none" stroke="#000000" points="0,-218.5 110,-218.5 "/>
<text text-anchor="middle" x="55" y="-203.3" font-family="Times,serif" font-size="14.00" fill="#000000">1</text>
</g>
<!-- n00000001&#45;&gt;n00000005 -->
<g id="edge1" class="edge">
<title>n00000001:port0&#45;&gt;n00000005:port0</title>
<path fill="none" stroke="#000000" stroke-width="2" d="M122,-327.5C111.8085,-327.5 117.9436,-293.2673 115.5327,-276.9533"/>
<polygon fill="#000000" stroke="#000000" stroke-width="2" points="118.4049,-274.9504 110,-268.5 112.5479,-278.7839 118.4049,-274.9504"/>
</g>
<!-- n0000000b -->
<g id="node3" class="node">
<title>n0000000b</title>
<polygon fill="#ffff00" stroke="#000000" points="226,-256.5 128,-256.5 128,-218.5 226,-218.5 226,-256.5"/>
<text text-anchor="middle" x="177" y="-241.3" font-family="Times,serif" font-size="14.00" fill="#000000">Raw Capture 0</text>
<text text-anchor="middle" x="177" y="-226.3" font-family="Times,serif" font-size="14.00" fill="#000000">/dev/video0</text>
</g>
<!-- n00000001&#45;&gt;n0000000b -->
<g id="edge2" class="edge">
<title>n00000001:port0&#45;&gt;n0000000b</title>
<path fill="none" stroke="#000000" stroke-width="2" d="M177,-316.5C177,-300.0556 177,-281.6857 177,-266.8012"/>
<polygon fill="#000000" stroke="#000000" stroke-width="2" points="180.5001,-266.6562 177,-256.6563 173.5001,-266.6563 180.5001,-266.6562"/>
</g>
<!-- n00000002 -->
<g id="node4" class="node">
<title>n00000002</title>
<path fill="#00ff00" stroke="#000000" d="M256,-195.5C256,-195.5 342,-195.5 342,-195.5 348,-195.5 354,-201.5 354,-207.5 354,-207.5 354,-267.5 354,-267.5 354,-273.5 348,-279.5 342,-279.5 342,-279.5 256,-279.5 256,-279.5 250,-279.5 244,-273.5 244,-267.5 244,-267.5 244,-207.5 244,-207.5 244,-201.5 250,-195.5 256,-195.5"/>
<text text-anchor="middle" x="299" y="-264.3" font-family="Times,serif" font-size="14.00" fill="#000000"> </text>
<polyline fill="none" stroke="#000000" points="244,-256.5 354,-256.5 "/>
<text text-anchor="middle" x="299" y="-241.3" font-family="Times,serif" font-size="14.00" fill="#000000">Lens A</text>
<text text-anchor="middle" x="299" y="-226.3" font-family="Times,serif" font-size="14.00" fill="#000000">/dev/v4l&#45;subdev5</text>
<polyline fill="none" stroke="#000000" points="244,-218.5 354,-218.5 "/>
<text text-anchor="middle" x="299" y="-203.3" font-family="Times,serif" font-size="14.00" fill="#000000"> </text>
</g>
<!-- n00000001&#45;&gt;n00000002 -->
<g id="edge3" class="edge">
<title>n00000001&#45;&gt;n00000002</title>
<path fill="none" stroke="#000000" d="M219.6697,-316.1801C229.2906,-306.638 239.5822,-296.4307 249.4582,-286.6357"/>
<polygon fill="#000000" stroke="#000000" points="251.925,-289.1187 256.5604,-279.5917 246.9956,-284.1486 251.925,-289.1187"/>
</g>
<!-- n00000015 -->
<g id="node9" class="node">
<title>n00000015</title>
<path fill="#00ff00" stroke="#000000" d="M384,-74.5C384,-74.5 470,-74.5 470,-74.5 476,-74.5 482,-80.5 482,-86.5 482,-86.5 482,-146.5 482,-146.5 482,-152.5 476,-158.5 470,-158.5 470,-158.5 384,-158.5 384,-158.5 378,-158.5 372,-152.5 372,-146.5 372,-146.5 372,-86.5 372,-86.5 372,-80.5 378,-74.5 384,-74.5"/>
<text text-anchor="middle" x="427" y="-143.3" font-family="Times,serif" font-size="14.00" fill="#000000">0</text>
<polyline fill="none" stroke="#000000" points="372,-135.5 482,-135.5 "/>
<text text-anchor="middle" x="427" y="-120.3" font-family="Times,serif" font-size="14.00" fill="#000000">Scaler</text>
<text text-anchor="middle" x="427" y="-105.3" font-family="Times,serif" font-size="14.00" fill="#000000">/dev/v4l&#45;subdev5</text>
<polyline fill="none" stroke="#000000" points="372,-97.5 482,-97.5 "/>
<text text-anchor="middle" x="427" y="-82.3" font-family="Times,serif" font-size="14.00" fill="#000000">1</text>
</g>
<!-- n00000005&#45;&gt;n00000015 -->
<g id="edge7" class="edge">
<title>n00000005:port1&#45;&gt;n00000015:port0</title>
<path fill="none" stroke="#000000" d="M110,-206.5C116.4903,-206.5 113.4539,-198.3711 119,-195 165.2092,-166.9119 299.02,-149.4811 361.8407,-147.6586"/>
<polygon fill="#000000" stroke="#000000" points="362.0559,-151.1558 372,-147.5 361.9465,-144.1566 362.0559,-151.1558"/>
</g>
<!-- n00000003 -->
<g id="node5" class="node">
<title>n00000003</title>
<path fill="#00ff00" stroke="#000000" d="M506,-316.5C506,-316.5 592,-316.5 592,-316.5 598,-316.5 604,-322.5 604,-328.5 604,-328.5 604,-388.5 604,-388.5 604,-394.5 598,-400.5 592,-400.5 592,-400.5 506,-400.5 506,-400.5 500,-400.5 494,-394.5 494,-388.5 494,-388.5 494,-328.5 494,-328.5 494,-322.5 500,-316.5 506,-316.5"/>
<text text-anchor="middle" x="549" y="-385.3" font-family="Times,serif" font-size="14.00" fill="#000000"> </text>
<polyline fill="none" stroke="#000000" points="494,-377.5 604,-377.5 "/>
<text text-anchor="middle" x="549" y="-362.3" font-family="Times,serif" font-size="14.00" fill="#000000">Sensor B</text>
<text text-anchor="middle" x="549" y="-347.3" font-family="Times,serif" font-size="14.00" fill="#000000">/dev/v4l&#45;subdev1</text>
<polyline fill="none" stroke="#000000" points="494,-339.5 604,-339.5 "/>
<text text-anchor="middle" x="549" y="-324.3" font-family="Times,serif" font-size="14.00" fill="#000000">0</text>
</g>
<!-- n00000008 -->
<g id="node6" class="node">
<title>n00000008</title>
<path fill="#00ff00" stroke="#000000" d="M384,-195.5C384,-195.5 470,-195.5 470,-195.5 476,-195.5 482,-201.5 482,-207.5 482,-207.5 482,-267.5 482,-267.5 482,-273.5 476,-279.5 470,-279.5 470,-279.5 384,-279.5 384,-279.5 378,-279.5 372,-273.5 372,-267.5 372,-267.5 372,-207.5 372,-207.5 372,-201.5 378,-195.5 384,-195.5"/>
<text text-anchor="middle" x="427" y="-264.3" font-family="Times,serif" font-size="14.00" fill="#000000">0</text>
<polyline fill="none" stroke="#000000" points="372,-256.5 482,-256.5 "/>
<text text-anchor="middle" x="427" y="-241.3" font-family="Times,serif" font-size="14.00" fill="#000000">Debayer B</text>
<text text-anchor="middle" x="427" y="-226.3" font-family="Times,serif" font-size="14.00" fill="#000000">/dev/v4l&#45;subdev3</text>
<polyline fill="none" stroke="#000000" points="372,-218.5 482,-218.5 "/>
<text text-anchor="middle" x="427" y="-203.3" font-family="Times,serif" font-size="14.00" fill="#000000">1</text>
</g>
<!-- n00000003&#45;&gt;n00000008 -->
<g id="edge4" class="edge">
<title>n00000003:port0&#45;&gt;n00000008:port0</title>
<path fill="none" stroke="#000000" stroke-width="2" d="M494,-327.5C483.8085,-327.5 489.9436,-293.2673 487.5327,-276.9533"/>
<polygon fill="#000000" stroke="#000000" stroke-width="2" points="490.4049,-274.9504 482,-268.5 484.5479,-278.7839 490.4049,-274.9504"/>
</g>
<!-- n0000000f -->
<g id="node7" class="node">
<title>n0000000f</title>
<polygon fill="#ffff00" stroke="#000000" points="598,-256.5 500,-256.5 500,-218.5 598,-218.5 598,-256.5"/>
<text text-anchor="middle" x="549" y="-241.3" font-family="Times,serif" font-size="14.00" fill="#000000">Raw Capture 1</text>
<text text-anchor="middle" x="549" y="-226.3" font-family="Times,serif" font-size="14.00" fill="#000000">/dev/video1</text>
</g>
<!-- n00000003&#45;&gt;n0000000f -->
<g id="edge5" class="edge">
<title>n00000003:port0&#45;&gt;n0000000f</title>
<path fill="none" stroke="#000000" stroke-width="2" d="M549,-316.5C549,-300.0556 549,-281.6857 549,-266.8012"/>
<polygon fill="#000000" stroke="#000000" stroke-width="2" points="552.5001,-266.6562 549,-256.6563 545.5001,-266.6563 552.5001,-266.6562"/>
</g>
<!-- n00000004 -->
<g id="node8" class="node">
<title>n00000004</title>
<path fill="#00ff00" stroke="#000000" d="M628,-195.5C628,-195.5 714,-195.5 714,-195.5 720,-195.5 726,-201.5 726,-207.5 726,-207.5 726,-267.5 726,-267.5 726,-273.5 720,-279.5 714,-279.5 714,-279.5 628,-279.5 628,-279.5 622,-279.5 616,-273.5 616,-267.5 616,-267.5 616,-207.5 616,-207.5 616,-201.5 622,-195.5 628,-195.5"/>
<text text-anchor="middle" x="671" y="-264.3" font-family="Times,serif" font-size="14.00" fill="#000000"> </text>
<polyline fill="none" stroke="#000000" points="616,-256.5 726,-256.5 "/>
<text text-anchor="middle" x="671" y="-241.3" font-family="Times,serif" font-size="14.00" fill="#000000">Lens B</text>
<text text-anchor="middle" x="671" y="-226.3" font-family="Times,serif" font-size="14.00" fill="#000000">/dev/v4l&#45;subdev6</text>
<polyline fill="none" stroke="#000000" points="616,-218.5 726,-218.5 "/>
<text text-anchor="middle" x="671" y="-203.3" font-family="Times,serif" font-size="14.00" fill="#000000"> </text>
</g>
<!-- n00000003&#45;&gt;n00000004 -->
<g id="edge6" class="edge">
<title>n00000003&#45;&gt;n00000004</title>
<path fill="none" stroke="#000000" d="M591.6697,-316.1801C601.2906,-306.638 611.5822,-296.4307 621.4582,-286.6357"/>
<polygon fill="#000000" stroke="#000000" points="623.925,-289.1187 628.5604,-279.5917 618.9956,-284.1486 623.925,-289.1187"/>
</g>
<!-- n00000008&#45;&gt;n00000015 -->
<g id="edge8" class="edge">
<title>n00000008:port1&#45;&gt;n00000015:port0</title>
<path fill="none" stroke="#000000" stroke-dasharray="5,2" d="M427,-195.5C427,-183.0382 427,-177.6592 427,-168.6281"/>
<polygon fill="#000000" stroke="#000000" points="430.5001,-168.5 427,-158.5 423.5001,-168.5 430.5001,-168.5"/>
</g>
<!-- n00000018 -->
<g id="node11" class="node">
<title>n00000018</title>
<polygon fill="#ffff00" stroke="#000000" points="489,-38 365,-38 365,0 489,0 489,-38"/>
<text text-anchor="middle" x="427" y="-22.8" font-family="Times,serif" font-size="14.00" fill="#000000">RGB/YUV Capture</text>
<text text-anchor="middle" x="427" y="-7.8" font-family="Times,serif" font-size="14.00" fill="#000000">/dev/video2</text>
</g>
<!-- n00000015&#45;&gt;n00000018 -->
<g id="edge10" class="edge">
<title>n00000015:port1&#45;&gt;n00000018</title>
<path fill="none" stroke="#000000" stroke-width="2" d="M427,-74.5C427,-65.9636 427,-56.6887 427,-48.2088"/>
<polygon fill="#000000" stroke="#000000" stroke-width="2" points="430.5001,-48.0081 427,-38.0081 423.5001,-48.0081 430.5001,-48.0081"/>
</g>
<!-- n00000013 -->
<g id="node10" class="node">
<title>n00000013</title>
<path fill="#00ff00" stroke="#000000" d="M756,-195.5C756,-195.5 842,-195.5 842,-195.5 848,-195.5 854,-201.5 854,-207.5 854,-207.5 854,-267.5 854,-267.5 854,-273.5 848,-279.5 842,-279.5 842,-279.5 756,-279.5 756,-279.5 750,-279.5 744,-273.5 744,-267.5 744,-267.5 744,-207.5 744,-207.5 744,-201.5 750,-195.5 756,-195.5"/>
<text text-anchor="middle" x="799" y="-264.3" font-family="Times,serif" font-size="14.00" fill="#000000"> </text>
<polyline fill="none" stroke="#000000" points="744,-256.5 854,-256.5 "/>
<text text-anchor="middle" x="799" y="-241.3" font-family="Times,serif" font-size="14.00" fill="#000000">RGB/YUV Input</text>
<text text-anchor="middle" x="799" y="-226.3" font-family="Times,serif" font-size="14.00" fill="#000000">/dev/v4l&#45;subdev4</text>
<polyline fill="none" stroke="#000000" points="744,-218.5 854,-218.5 "/>
<text text-anchor="middle" x="799" y="-203.3" font-family="Times,serif" font-size="14.00" fill="#000000">0</text>
</g>
<!-- n00000013&#45;&gt;n00000015 -->
<g id="edge9" class="edge">
<title>n00000013:port0&#45;&gt;n00000015:port0</title>
<path fill="none" stroke="#000000" stroke-dasharray="5,2" d="M744,-206.5C737.5097,-206.5 740.5461,-198.3711 735,-195 688.7908,-166.9119 554.98,-149.4811 492.1593,-147.6586"/>
<polygon fill="#000000" stroke="#000000" points="492.0535,-144.1566 482,-147.5 491.9441,-151.1558 492.0535,-144.1566"/>
</g>
</g>
</svg>
